<?xml version="1.0" encoding="utf-8" standalone="no"?>
<!DOCTYPE svg PUBLIC "-//W3C//DTD SVG 1.1//EN"
  "http://www.w3.org/Graphics/SVG/1.1/DTD/svg11.dtd">
<svg xmlns:xlink="http://www.w3.org/1999/xlink" width="576pt" height="864pt" viewBox="0 0 576 864" xmlns="http://www.w3.org/2000/svg" version="1.1">
 <metadata>
  <rdf:RDF xmlns:dc="http://purl.org/dc/elements/1.1/" xmlns:cc="http://creativecommons.org/ns#" xmlns:rdf="http://www.w3.org/1999/02/22-rdf-syntax-ns#">
   <cc:Work>
    <dc:type rdf:resource="http://purl.org/dc/dcmitype/StillImage"/>
    <dc:date>2025-12-22T13:11:23.921436</dc:date>
    <dc:format>image/svg+xml</dc:format>
    <dc:creator>
     <cc:Agent>
      <dc:title>Matplotlib v3.10.6, https://matplotlib.org/</dc:title>
     </cc:Agent>
    </dc:creator>
   </cc:Work>
  </rdf:RDF>
 </metadata>
 <defs>
  <style type="text/css">*{stroke-linejoin: round; stroke-linecap: butt}</style>
 </defs>
 <g id="figure_1">
  <g id="patch_1">
   <path d="M 0 864 
L 576 864 
L 576 0 
L 0 0 
z
" style="fill: #ffffff"/>
  </g>
  <g id="axes_1">
   <g id="patch_2">
    <path d="M 55.779096 266.266198 
L 565.2 266.266198 
L 565.2 32.4 
L 55.779096 32.4 
z
" style="fill: #ffffff"/>
   </g>
   <g id="matplotlib.axis_1">
    <g id="xtick_1">
     <g id="line2d_1">
      <defs>
       <path id="mc4d2e08f76" d="M 0 0 
L 0 3.5 
" style="stroke: #000000; stroke-width: 0.8"/>
      </defs>
      <g>
       <use xlink:href="#mc4d2e08f76" x="71.465077" y="266.266198" style="stroke: #000000; stroke-width: 0.8"/>
      </g>
     </g>
     <g id="text_1">
      <!-- 0 -->
      <g transform="translate(68.283827 280.864636) scale(0.1 -0.1)">
       <defs>
        <path id="DejaVuSans-30" d="M 2034 4250 
Q 1547 4250 1301 3770 
Q 1056 3291 1056 2328 
Q 1056 1369 1301 889 
Q 1547 409 2034 409 
Q 2525 409 2770 889 
Q 3016 1369 3016 2328 
Q 3016 3291 2770 3770 
Q 2525 4250 2034 4250 
z
M 2034 4750 
Q 2819 4750 3233 4129 
Q 3647 3509 3647 2328 
Q 3647 1150 3233 529 
Q 2819 -91 2034 -91 
Q 1250 -91 836 529 
Q 422 1150 422 2328 
Q 422 3509 836 4129 
Q 1250 4750 2034 4750 
z
" transform="scale(0.015625)"/>
       </defs>
       <use xlink:href="#DejaVuSans-30"/>
      </g>
     </g>
    </g>
    <g id="xtick_2">
     <g id="line2d_2">
      <g>
       <use xlink:href="#mc4d2e08f76" x="164.834011" y="266.266198" style="stroke: #000000; stroke-width: 0.8"/>
      </g>
     </g>
     <g id="text_2">
      <!-- 50 -->
      <g transform="translate(158.471511 280.864636) scale(0.1 -0.1)">
       <defs>
        <path id="DejaVuSans-35" d="M 691 4666 
L 3169 4666 
L 3169 4134 
L 1269 4134 
L 1269 2991 
Q 1406 3038 1543 3061 
Q 1681 3084 1819 3084 
Q 2600 3084 3056 2656 
Q 3513 2228 3513 1497 
Q 3513 744 3044 326 
Q 2575 -91 1722 -91 
Q 1428 -91 1123 -41 
Q 819 9 494 109 
L 494 744 
Q 775 591 1075 516 
Q 1375 441 1709 441 
Q 2250 441 2565 725 
Q 2881 1009 2881 1497 
Q 2881 1984 2565 2268 
Q 2250 2553 1709 2553 
Q 1456 2553 1204 2497 
Q 953 2441 691 2322 
L 691 4666 
z
" transform="scale(0.015625)"/>
       </defs>
       <use xlink:href="#DejaVuSans-35"/>
       <use xlink:href="#DejaVuSans-30" transform="translate(63.623047 0)"/>
      </g>
     </g>
    </g>
    <g id="xtick_3">
     <g id="line2d_3">
      <g>
       <use xlink:href="#mc4d2e08f76" x="258.202945" y="266.266198" style="stroke: #000000; stroke-width: 0.8"/>
      </g>
     </g>
     <g id="text_3">
      <!-- 100 -->
      <g transform="translate(248.659195 280.864636) scale(0.1 -0.1)">
       <defs>
        <path id="DejaVuSans-31" d="M 794 531 
L 1825 531 
L 1825 4091 
L 703 3866 
L 703 4441 
L 1819 4666 
L 2450 4666 
L 2450 531 
L 3481 531 
L 3481 0 
L 794 0 
L 794 531 
z
" transform="scale(0.015625)"/>
       </defs>
       <use xlink:href="#DejaVuSans-31"/>
       <use xlink:href="#DejaVuSans-30" transform="translate(63.623047 0)"/>
       <use xlink:href="#DejaVuSans-30" transform="translate(127.246094 0)"/>
      </g>
     </g>
    </g>
    <g id="xtick_4">
     <g id="line2d_4">
      <g>
       <use xlink:href="#mc4d2e08f76" x="351.571879" y="266.266198" style="stroke: #000000; stroke-width: 0.8"/>
      </g>
     </g>
     <g id="text_4">
      <!-- 150 -->
      <g transform="translate(342.028129 280.864636) scale(0.1 -0.1)">
       <use xlink:href="#DejaVuSans-31"/>
       <use xlink:href="#DejaVuSans-35" transform="translate(63.623047 0)"/>
       <use xlink:href="#DejaVuSans-30" transform="translate(127.246094 0)"/>
      </g>
     </g>
    </g>
    <g id="xtick_5">
     <g id="line2d_5">
      <g>
       <use xlink:href="#mc4d2e08f76" x="444.940813" y="266.266198" style="stroke: #000000; stroke-width: 0.8"/>
      </g>
     </g>
     <g id="text_5">
      <!-- 200 -->
      <g transform="translate(435.397063 280.864636) scale(0.1 -0.1)">
       <defs>
        <path id="DejaVuSans-32" d="M 1228 531 
L 3431 531 
L 3431 0 
L 469 0 
L 469 531 
Q 828 903 1448 1529 
Q 2069 2156 2228 2338 
Q 2531 2678 2651 2914 
Q 2772 3150 2772 3378 
Q 2772 3750 2511 3984 
Q 2250 4219 1831 4219 
Q 1534 4219 1204 4116 
Q 875 4013 500 3803 
L 500 4441 
Q 881 4594 1212 4672 
Q 1544 4750 1819 4750 
Q 2544 4750 2975 4387 
Q 3406 4025 3406 3419 
Q 3406 3131 3298 2873 
Q 3191 2616 2906 2266 
Q 2828 2175 2409 1742 
Q 1991 1309 1228 531 
z
" transform="scale(0.015625)"/>
       </defs>
       <use xlink:href="#DejaVuSans-32"/>
       <use xlink:href="#DejaVuSans-30" transform="translate(63.623047 0)"/>
       <use xlink:href="#DejaVuSans-30" transform="translate(127.246094 0)"/>
      </g>
     </g>
    </g>
    <g id="xtick_6">
     <g id="line2d_6">
      <g>
       <use xlink:href="#mc4d2e08f76" x="538.309747" y="266.266198" style="stroke: #000000; stroke-width: 0.8"/>
      </g>
     </g>
     <g id="text_6">
      <!-- 250 -->
      <g transform="translate(528.765997 280.864636) scale(0.1 -0.1)">
       <use xlink:href="#DejaVuSans-32"/>
       <use xlink:href="#DejaVuSans-35" transform="translate(63.623047 0)"/>
       <use xlink:href="#DejaVuSans-30" transform="translate(127.246094 0)"/>
      </g>
     </g>
    </g>
    <g id="text_7">
     <!-- Time (days) -->
     <g transform="translate(280.962986 294.542761) scale(0.1 -0.1)">
      <defs>
       <path id="DejaVuSans-54" d="M -19 4666 
L 3928 4666 
L 3928 4134 
L 2272 4134 
L 2272 0 
L 1638 0 
L 1638 4134 
L -19 4134 
L -19 4666 
z
" transform="scale(0.015625)"/>
       <path id="DejaVuSans-69" d="M 603 3500 
L 1178 3500 
L 1178 0 
L 603 0 
L 603 3500 
z
M 603 4863 
L 1178 4863 
L 1178 4134 
L 603 4134 
L 603 4863 
z
" transform="scale(0.015625)"/>
       <path id="DejaVuSans-6d" d="M 3328 2828 
Q 3544 3216 3844 3400 
Q 4144 3584 4550 3584 
Q 5097 3584 5394 3201 
Q 5691 2819 5691 2113 
L 5691 0 
L 5113 0 
L 5113 2094 
Q 5113 2597 4934 2840 
Q 4756 3084 4391 3084 
Q 3944 3084 3684 2787 
Q 3425 2491 3425 1978 
L 3425 0 
L 2847 0 
L 2847 2094 
Q 2847 2600 2669 2842 
Q 2491 3084 2119 3084 
Q 1678 3084 1418 2786 
Q 1159 2488 1159 1978 
L 1159 0 
L 581 0 
L 581 3500 
L 1159 3500 
L 1159 2956 
Q 1356 3278 1631 3431 
Q 1906 3584 2284 3584 
Q 2666 3584 2933 3390 
Q 3200 3197 3328 2828 
z
" transform="scale(0.015625)"/>
       <path id="DejaVuSans-65" d="M 3597 1894 
L 3597 1613 
L 953 1613 
Q 991 1019 1311 708 
Q 1631 397 2203 397 
Q 2534 397 2845 478 
Q 3156 559 3463 722 
L 3463 178 
Q 3153 47 2828 -22 
Q 2503 -91 2169 -91 
Q 1331 -91 842 396 
Q 353 884 353 1716 
Q 353 2575 817 3079 
Q 1281 3584 2069 3584 
Q 2775 3584 3186 3129 
Q 3597 2675 3597 1894 
z
M 3022 2063 
Q 3016 2534 2758 2815 
Q 2500 3097 2075 3097 
Q 1594 3097 1305 2825 
Q 1016 2553 972 2059 
L 3022 2063 
z
" transform="scale(0.015625)"/>
       <path id="DejaVuSans-20" transform="scale(0.015625)"/>
       <path id="DejaVuSans-28" d="M 1984 4856 
Q 1566 4138 1362 3434 
Q 1159 2731 1159 2009 
Q 1159 1288 1364 580 
Q 1569 -128 1984 -844 
L 1484 -844 
Q 1016 -109 783 600 
Q 550 1309 550 2009 
Q 550 2706 781 3412 
Q 1013 4119 1484 4856 
L 1984 4856 
z
" transform="scale(0.015625)"/>
       <path id="DejaVuSans-64" d="M 2906 2969 
L 2906 4863 
L 3481 4863 
L 3481 0 
L 2906 0 
L 2906 525 
Q 2725 213 2448 61 
Q 2172 -91 1784 -91 
Q 1150 -91 751 415 
Q 353 922 353 1747 
Q 353 2572 751 3078 
Q 1150 3584 1784 3584 
Q 2172 3584 2448 3432 
Q 2725 3281 2906 2969 
z
M 947 1747 
Q 947 1113 1208 752 
Q 1469 391 1925 391 
Q 2381 391 2643 752 
Q 2906 1113 2906 1747 
Q 2906 2381 2643 2742 
Q 2381 3103 1925 3103 
Q 1469 3103 1208 2742 
Q 947 2381 947 1747 
z
" transform="scale(0.015625)"/>
       <path id="DejaVuSans-61" d="M 2194 1759 
Q 1497 1759 1228 1600 
Q 959 1441 959 1056 
Q 959 750 1161 570 
Q 1363 391 1709 391 
Q 2188 391 2477 730 
Q 2766 1069 2766 1631 
L 2766 1759 
L 2194 1759 
z
M 3341 1997 
L 3341 0 
L 2766 0 
L 2766 531 
Q 2569 213 2275 61 
Q 1981 -91 1556 -91 
Q 1019 -91 701 211 
Q 384 513 384 1019 
Q 384 1609 779 1909 
Q 1175 2209 1959 2209 
L 2766 2209 
L 2766 2266 
Q 2766 2663 2505 2880 
Q 2244 3097 1772 3097 
Q 1472 3097 1187 3025 
Q 903 2953 641 2809 
L 641 3341 
Q 956 3463 1253 3523 
Q 1550 3584 1831 3584 
Q 2591 3584 2966 3190 
Q 3341 2797 3341 1997 
z
" transform="scale(0.015625)"/>
       <path id="DejaVuSans-79" d="M 2059 -325 
Q 1816 -950 1584 -1140 
Q 1353 -1331 966 -1331 
L 506 -1331 
L 506 -850 
L 844 -850 
Q 1081 -850 1212 -737 
Q 1344 -625 1503 -206 
L 1606 56 
L 191 3500 
L 800 3500 
L 1894 763 
L 2988 3500 
L 3597 3500 
L 2059 -325 
z
" transform="scale(0.015625)"/>
       <path id="DejaVuSans-73" d="M 2834 3397 
L 2834 2853 
Q 2591 2978 2328 3040 
Q 2066 3103 1784 3103 
Q 1356 3103 1142 2972 
Q 928 2841 928 2578 
Q 928 2378 1081 2264 
Q 1234 2150 1697 2047 
L 1894 2003 
Q 2506 1872 2764 1633 
Q 3022 1394 3022 966 
Q 3022 478 2636 193 
Q 2250 -91 1575 -91 
Q 1294 -91 989 -36 
Q 684 19 347 128 
L 347 722 
Q 666 556 975 473 
Q 1284 391 1588 391 
Q 1994 391 2212 530 
Q 2431 669 2431 922 
Q 2431 1156 2273 1281 
Q 2116 1406 1581 1522 
L 1381 1569 
Q 847 1681 609 1914 
Q 372 2147 372 2553 
Q 372 3047 722 3315 
Q 1072 3584 1716 3584 
Q 2034 3584 2315 3537 
Q 2597 3491 2834 3397 
z
" transform="scale(0.015625)"/>
       <path id="DejaVuSans-29" d="M 513 4856 
L 1013 4856 
Q 1481 4119 1714 3412 
Q 1947 2706 1947 2009 
Q 1947 1309 1714 600 
Q 1481 -109 1013 -844 
L 513 -844 
Q 928 -128 1133 580 
Q 1338 1288 1338 2009 
Q 1338 2731 1133 3434 
Q 928 4138 513 4856 
z
" transform="scale(0.015625)"/>
      </defs>
      <use xlink:href="#DejaVuSans-54"/>
      <use xlink:href="#DejaVuSans-69" transform="translate(57.958984 0)"/>
      <use xlink:href="#DejaVuSans-6d" transform="translate(85.742188 0)"/>
      <use xlink:href="#DejaVuSans-65" transform="translate(183.154297 0)"/>
      <use xlink:href="#DejaVuSans-20" transform="translate(244.677734 0)"/>
      <use xlink:href="#DejaVuSans-28" transform="translate(276.464844 0)"/>
      <use xlink:href="#DejaVuSans-64" transform="translate(315.478516 0)"/>
      <use xlink:href="#DejaVuSans-61" transform="translate(378.955078 0)"/>
      <use xlink:href="#DejaVuSans-79" transform="translate(440.234375 0)"/>
      <use xlink:href="#DejaVuSans-73" transform="translate(499.414062 0)"/>
      <use xlink:href="#DejaVuSans-29" transform="translate(551.513672 0)"/>
     </g>
    </g>
   </g>
   <g id="matplotlib.axis_2">
    <g id="ytick_1">
     <g id="line2d_7">
      <defs>
       <path id="m60a542bf4a" d="M 0 0 
L -3.5 0 
" style="stroke: #000000; stroke-width: 0.8"/>
      </defs>
      <g>
       <use xlink:href="#m60a542bf4a" x="55.779096" y="266.266198" style="stroke: #000000; stroke-width: 0.8"/>
      </g>
     </g>
     <g id="text_8">
      <!-- 1.0 -->
      <g transform="translate(32.875971 270.065417) scale(0.1 -0.1)">
       <defs>
        <path id="DejaVuSans-2e" d="M 684 794 
L 1344 794 
L 1344 0 
L 684 0 
L 684 794 
z
" transform="scale(0.015625)"/>
       </defs>
       <use xlink:href="#DejaVuSans-31"/>
       <use xlink:href="#DejaVuSans-2e" transform="translate(63.623047 0)"/>
       <use xlink:href="#DejaVuSans-30" transform="translate(95.410156 0)"/>
      </g>
     </g>
    </g>
    <g id="ytick_2">
     <g id="line2d_8">
      <g>
       <use xlink:href="#m60a542bf4a" x="55.779096" y="226.172484" style="stroke: #000000; stroke-width: 0.8"/>
      </g>
     </g>
     <g id="text_9">
      <!-- 1.5 -->
      <g transform="translate(32.875971 229.971703) scale(0.1 -0.1)">
       <use xlink:href="#DejaVuSans-31"/>
       <use xlink:href="#DejaVuSans-2e" transform="translate(63.623047 0)"/>
       <use xlink:href="#DejaVuSans-35" transform="translate(95.410156 0)"/>
      </g>
     </g>
    </g>
    <g id="ytick_3">
     <g id="line2d_9">
      <g>
       <use xlink:href="#m60a542bf4a" x="55.779096" y="186.078769" style="stroke: #000000; stroke-width: 0.8"/>
      </g>
     </g>
     <g id="text_10">
      <!-- 2.0 -->
      <g transform="translate(32.875971 189.877988) scale(0.1 -0.1)">
       <use xlink:href="#DejaVuSans-32"/>
       <use xlink:href="#DejaVuSans-2e" transform="translate(63.623047 0)"/>
       <use xlink:href="#DejaVuSans-30" transform="translate(95.410156 0)"/>
      </g>
     </g>
    </g>
    <g id="ytick_4">
     <g id="line2d_10">
      <g>
       <use xlink:href="#m60a542bf4a" x="55.779096" y="145.985055" style="stroke: #000000; stroke-width: 0.8"/>
      </g>
     </g>
     <g id="text_11">
      <!-- 2.5 -->
      <g transform="translate(32.875971 149.784274) scale(0.1 -0.1)">
       <use xlink:href="#DejaVuSans-32"/>
       <use xlink:href="#DejaVuSans-2e" transform="translate(63.623047 0)"/>
       <use xlink:href="#DejaVuSans-35" transform="translate(95.410156 0)"/>
      </g>
     </g>
    </g>
    <g id="ytick_5">
     <g id="line2d_11">
      <g>
       <use xlink:href="#m60a542bf4a" x="55.779096" y="105.891341" style="stroke: #000000; stroke-width: 0.8"/>
      </g>
     </g>
     <g id="text_12">
      <!-- 3.0 -->
      <g transform="translate(32.875971 109.690559) scale(0.1 -0.1)">
       <defs>
        <path id="DejaVuSans-33" d="M 2597 2516 
Q 3050 2419 3304 2112 
Q 3559 1806 3559 1356 
Q 3559 666 3084 287 
Q 2609 -91 1734 -91 
Q 1441 -91 1130 -33 
Q 819 25 488 141 
L 488 750 
Q 750 597 1062 519 
Q 1375 441 1716 441 
Q 2309 441 2620 675 
Q 2931 909 2931 1356 
Q 2931 1769 2642 2001 
Q 2353 2234 1838 2234 
L 1294 2234 
L 1294 2753 
L 1863 2753 
Q 2328 2753 2575 2939 
Q 2822 3125 2822 3475 
Q 2822 3834 2567 4026 
Q 2313 4219 1838 4219 
Q 1578 4219 1281 4162 
Q 984 4106 628 3988 
L 628 4550 
Q 988 4650 1302 4700 
Q 1616 4750 1894 4750 
Q 2613 4750 3031 4423 
Q 3450 4097 3450 3541 
Q 3450 3153 3228 2886 
Q 3006 2619 2597 2516 
z
" transform="scale(0.015625)"/>
       </defs>
       <use xlink:href="#DejaVuSans-33"/>
       <use xlink:href="#DejaVuSans-2e" transform="translate(63.623047 0)"/>
       <use xlink:href="#DejaVuSans-30" transform="translate(95.410156 0)"/>
      </g>
     </g>
    </g>
    <g id="ytick_6">
     <g id="line2d_12">
      <g>
       <use xlink:href="#m60a542bf4a" x="55.779096" y="65.797626" style="stroke: #000000; stroke-width: 0.8"/>
      </g>
     </g>
     <g id="text_13">
      <!-- 3.5 -->
      <g transform="translate(32.875971 69.596845) scale(0.1 -0.1)">
       <use xlink:href="#DejaVuSans-33"/>
       <use xlink:href="#DejaVuSans-2e" transform="translate(63.623047 0)"/>
       <use xlink:href="#DejaVuSans-35" transform="translate(95.410156 0)"/>
      </g>
     </g>
    </g>
    <g id="text_14">
     <!-- Period-averaged fractional quotas -->
     <g transform="translate(26.796284 234.238568) rotate(-90) scale(0.1 -0.1)">
      <defs>
       <path id="DejaVuSans-50" d="M 1259 4147 
L 1259 2394 
L 2053 2394 
Q 2494 2394 2734 2622 
Q 2975 2850 2975 3272 
Q 2975 3691 2734 3919 
Q 2494 4147 2053 4147 
L 1259 4147 
z
M 628 4666 
L 2053 4666 
Q 2838 4666 3239 4311 
Q 3641 3956 3641 3272 
Q 3641 2581 3239 2228 
Q 2838 1875 2053 1875 
L 1259 1875 
L 1259 0 
L 628 0 
L 628 4666 
z
" transform="scale(0.015625)"/>
       <path id="DejaVuSans-72" d="M 2631 2963 
Q 2534 3019 2420 3045 
Q 2306 3072 2169 3072 
Q 1681 3072 1420 2755 
Q 1159 2438 1159 1844 
L 1159 0 
L 581 0 
L 581 3500 
L 1159 3500 
L 1159 2956 
Q 1341 3275 1631 3429 
Q 1922 3584 2338 3584 
Q 2397 3584 2469 3576 
Q 2541 3569 2628 3553 
L 2631 2963 
z
" transform="scale(0.015625)"/>
       <path id="DejaVuSans-6f" d="M 1959 3097 
Q 1497 3097 1228 2736 
Q 959 2375 959 1747 
Q 959 1119 1226 758 
Q 1494 397 1959 397 
Q 2419 397 2687 759 
Q 2956 1122 2956 1747 
Q 2956 2369 2687 2733 
Q 2419 3097 1959 3097 
z
M 1959 3584 
Q 2709 3584 3137 3096 
Q 3566 2609 3566 1747 
Q 3566 888 3137 398 
Q 2709 -91 1959 -91 
Q 1206 -91 779 398 
Q 353 888 353 1747 
Q 353 2609 779 3096 
Q 1206 3584 1959 3584 
z
" transform="scale(0.015625)"/>
       <path id="DejaVuSans-2d" d="M 313 2009 
L 1997 2009 
L 1997 1497 
L 313 1497 
L 313 2009 
z
" transform="scale(0.015625)"/>
       <path id="DejaVuSans-76" d="M 191 3500 
L 800 3500 
L 1894 563 
L 2988 3500 
L 3597 3500 
L 2284 0 
L 1503 0 
L 191 3500 
z
" transform="scale(0.015625)"/>
       <path id="DejaVuSans-67" d="M 2906 1791 
Q 2906 2416 2648 2759 
Q 2391 3103 1925 3103 
Q 1463 3103 1205 2759 
Q 947 2416 947 1791 
Q 947 1169 1205 825 
Q 1463 481 1925 481 
Q 2391 481 2648 825 
Q 2906 1169 2906 1791 
z
M 3481 434 
Q 3481 -459 3084 -895 
Q 2688 -1331 1869 -1331 
Q 1566 -1331 1297 -1286 
Q 1028 -1241 775 -1147 
L 775 -588 
Q 1028 -725 1275 -790 
Q 1522 -856 1778 -856 
Q 2344 -856 2625 -561 
Q 2906 -266 2906 331 
L 2906 616 
Q 2728 306 2450 153 
Q 2172 0 1784 0 
Q 1141 0 747 490 
Q 353 981 353 1791 
Q 353 2603 747 3093 
Q 1141 3584 1784 3584 
Q 2172 3584 2450 3431 
Q 2728 3278 2906 2969 
L 2906 3500 
L 3481 3500 
L 3481 434 
z
" transform="scale(0.015625)"/>
       <path id="DejaVuSans-66" d="M 2375 4863 
L 2375 4384 
L 1825 4384 
Q 1516 4384 1395 4259 
Q 1275 4134 1275 3809 
L 1275 3500 
L 2222 3500 
L 2222 3053 
L 1275 3053 
L 1275 0 
L 697 0 
L 697 3053 
L 147 3053 
L 147 3500 
L 697 3500 
L 697 3744 
Q 697 4328 969 4595 
Q 1241 4863 1831 4863 
L 2375 4863 
z
" transform="scale(0.015625)"/>
       <path id="DejaVuSans-63" d="M 3122 3366 
L 3122 2828 
Q 2878 2963 2633 3030 
Q 2388 3097 2138 3097 
Q 1578 3097 1268 2742 
Q 959 2388 959 1747 
Q 959 1106 1268 751 
Q 1578 397 2138 397 
Q 2388 397 2633 464 
Q 2878 531 3122 666 
L 3122 134 
Q 2881 22 2623 -34 
Q 2366 -91 2075 -91 
Q 1284 -91 818 406 
Q 353 903 353 1747 
Q 353 2603 823 3093 
Q 1294 3584 2113 3584 
Q 2378 3584 2631 3529 
Q 2884 3475 3122 3366 
z
" transform="scale(0.015625)"/>
       <path id="DejaVuSans-74" d="M 1172 4494 
L 1172 3500 
L 2356 3500 
L 2356 3053 
L 1172 3053 
L 1172 1153 
Q 1172 725 1289 603 
Q 1406 481 1766 481 
L 2356 481 
L 2356 0 
L 1766 0 
Q 1100 0 847 248 
Q 594 497 594 1153 
L 594 3053 
L 172 3053 
L 172 3500 
L 594 3500 
L 594 4494 
L 1172 4494 
z
" transform="scale(0.015625)"/>
       <path id="DejaVuSans-6e" d="M 3513 2113 
L 3513 0 
L 2938 0 
L 2938 2094 
Q 2938 2591 2744 2837 
Q 2550 3084 2163 3084 
Q 1697 3084 1428 2787 
Q 1159 2491 1159 1978 
L 1159 0 
L 581 0 
L 581 3500 
L 1159 3500 
L 1159 2956 
Q 1366 3272 1645 3428 
Q 1925 3584 2291 3584 
Q 2894 3584 3203 3211 
Q 3513 2838 3513 2113 
z
" transform="scale(0.015625)"/>
       <path id="DejaVuSans-6c" d="M 603 4863 
L 1178 4863 
L 1178 0 
L 603 0 
L 603 4863 
z
" transform="scale(0.015625)"/>
       <path id="DejaVuSans-71" d="M 947 1747 
Q 947 1113 1208 752 
Q 1469 391 1925 391 
Q 2381 391 2643 752 
Q 2906 1113 2906 1747 
Q 2906 2381 2643 2742 
Q 2381 3103 1925 3103 
Q 1469 3103 1208 2742 
Q 947 2381 947 1747 
z
M 2906 525 
Q 2725 213 2448 61 
Q 2172 -91 1784 -91 
Q 1150 -91 751 415 
Q 353 922 353 1747 
Q 353 2572 751 3078 
Q 1150 3584 1784 3584 
Q 2172 3584 2448 3432 
Q 2725 3281 2906 2969 
L 2906 3500 
L 3481 3500 
L 3481 -1331 
L 2906 -1331 
L 2906 525 
z
" transform="scale(0.015625)"/>
       <path id="DejaVuSans-75" d="M 544 1381 
L 544 3500 
L 1119 3500 
L 1119 1403 
Q 1119 906 1312 657 
Q 1506 409 1894 409 
Q 2359 409 2629 706 
Q 2900 1003 2900 1516 
L 2900 3500 
L 3475 3500 
L 3475 0 
L 2900 0 
L 2900 538 
Q 2691 219 2414 64 
Q 2138 -91 1772 -91 
Q 1169 -91 856 284 
Q 544 659 544 1381 
z
M 1991 3584 
L 1991 3584 
z
" transform="scale(0.015625)"/>
      </defs>
      <use xlink:href="#DejaVuSans-50"/>
      <use xlink:href="#DejaVuSans-65" transform="translate(56.677734 0)"/>
      <use xlink:href="#DejaVuSans-72" transform="translate(118.201172 0)"/>
      <use xlink:href="#DejaVuSans-69" transform="translate(159.314453 0)"/>
      <use xlink:href="#DejaVuSans-6f" transform="translate(187.097656 0)"/>
      <use xlink:href="#DejaVuSans-64" transform="translate(248.279297 0)"/>
      <use xlink:href="#DejaVuSans-2d" transform="translate(311.755859 0)"/>
      <use xlink:href="#DejaVuSans-61" transform="translate(347.839844 0)"/>
      <use xlink:href="#DejaVuSans-76" transform="translate(409.119141 0)"/>
      <use xlink:href="#DejaVuSans-65" transform="translate(468.298828 0)"/>
      <use xlink:href="#DejaVuSans-72" transform="translate(529.822266 0)"/>
      <use xlink:href="#DejaVuSans-61" transform="translate(570.935547 0)"/>
      <use xlink:href="#DejaVuSans-67" transform="translate(632.214844 0)"/>
      <use xlink:href="#DejaVuSans-65" transform="translate(695.691406 0)"/>
      <use xlink:href="#DejaVuSans-64" transform="translate(757.214844 0)"/>
      <use xlink:href="#DejaVuSans-20" transform="translate(820.691406 0)"/>
      <use xlink:href="#DejaVuSans-66" transform="translate(852.478516 0)"/>
      <use xlink:href="#DejaVuSans-72" transform="translate(887.683594 0)"/>
      <use xlink:href="#DejaVuSans-61" transform="translate(928.796875 0)"/>
      <use xlink:href="#DejaVuSans-63" transform="translate(990.076172 0)"/>
      <use xlink:href="#DejaVuSans-74" transform="translate(1045.056641 0)"/>
      <use xlink:href="#DejaVuSans-69" transform="translate(1084.265625 0)"/>
      <use xlink:href="#DejaVuSans-6f" transform="translate(1112.048828 0)"/>
      <use xlink:href="#DejaVuSans-6e" transform="translate(1173.230469 0)"/>
      <use xlink:href="#DejaVuSans-61" transform="translate(1236.609375 0)"/>
      <use xlink:href="#DejaVuSans-6c" transform="translate(1297.888672 0)"/>
      <use xlink:href="#DejaVuSans-20" transform="translate(1325.671875 0)"/>
      <use xlink:href="#DejaVuSans-71" transform="translate(1357.458984 0)"/>
      <use xlink:href="#DejaVuSans-75" transform="translate(1420.935547 0)"/>
      <use xlink:href="#DejaVuSans-6f" transform="translate(1484.314453 0)"/>
      <use xlink:href="#DejaVuSans-74" transform="translate(1545.496094 0)"/>
      <use xlink:href="#DejaVuSans-61" transform="translate(1584.705078 0)"/>
      <use xlink:href="#DejaVuSans-73" transform="translate(1645.984375 0)"/>
     </g>
    </g>
   </g>
   <g id="line2d_13">
    <path d="M 78.934592 249.869215 
L 93.873621 243.808523 
L 108.812651 241.119525 
L 123.75168 244.309857 
L 138.69071 247.406495 
L 153.629739 249.374446 
L 168.568768 250.640166 
L 183.507798 251.499621 
L 198.446827 252.111924 
L 213.385857 252.563714 
L 228.324886 252.907615 
L 243.263916 253.176451 
L 258.202945 253.391515 
L 273.141974 253.566685 
L 288.081004 253.711728 
L 303.020033 253.833489 
L 317.959063 253.936883 
L 332.898092 254.02562 
L 347.837122 254.102549 
L 362.776151 254.169674 
L 377.715181 254.228726 
L 392.65421 254.281056 
L 407.593239 254.327724 
L 422.532269 254.369604 
L 437.471298 254.407387 
L 452.410328 254.441644 
L 467.349357 254.472829 
L 482.288387 254.501331 
L 497.227416 254.52749 
L 512.166445 254.551594 
L 527.105475 254.573898 
L 542.044504 254.594621 
" clip-path="url(#pc90ae680f0)" style="fill: none; stroke: #1f77b4; stroke-width: 1.5; stroke-linecap: square"/>
   </g>
   <g id="line2d_14">
    <path d="M 78.934592 240.714281 
L 93.873621 231.517836 
L 108.812651 226.926057 
L 123.75168 231.975753 
L 138.69071 236.972158 
L 153.629739 240.156062 
L 168.568768 242.200542 
L 183.507798 243.589828 
L 198.446827 244.577354 
L 213.385857 245.305187 
L 228.324886 245.858762 
L 243.263916 246.291234 
L 258.202945 246.636835 
L 273.141974 246.918277 
L 288.081004 247.151164 
L 303.020033 247.34654 
L 317.959063 247.512427 
L 332.898092 247.654736 
L 347.837122 247.777995 
L 362.776151 247.885606 
L 377.715181 247.98026 
L 392.65421 248.064104 
L 407.593239 248.138862 
L 422.532269 248.205919 
L 437.471298 248.266401 
L 452.410328 248.321213 
L 467.349357 248.3711 
L 482.288387 248.416689 
L 497.227416 248.458526 
L 512.166445 248.497083 
L 527.105475 248.532759 
L 542.044504 248.565895 
" clip-path="url(#pc90ae680f0)" style="fill: none; stroke: #ff7f0e; stroke-width: 1.5; stroke-linecap: square"/>
   </g>
   <g id="line2d_15">
    <path d="M 78.934592 229.083644 
L 93.873621 216.70964 
L 108.812651 209.662209 
L 123.75168 216.964773 
L 138.69071 224.297157 
L 153.629739 228.968021 
L 168.568768 231.959421 
L 183.507798 233.990205 
L 198.446827 235.430712 
L 213.385857 236.49114 
L 228.324886 237.296974 
L 243.263916 237.92607 
L 258.202945 238.42844 
L 273.141974 238.837427 
L 288.081004 239.175693 
L 303.020033 239.45939 
L 317.959063 239.700166 
L 332.898092 239.906747 
L 347.837122 240.085541 
L 362.776151 240.241681 
L 377.715181 240.379011 
L 392.65421 240.500629 
L 407.593239 240.609064 
L 422.532269 240.706303 
L 437.471298 240.793996 
L 452.410328 240.873455 
L 467.349357 240.945761 
L 482.288387 241.011834 
L 497.227416 241.072465 
L 512.166445 241.128354 
L 527.105475 241.180074 
L 542.044504 241.228106 
" clip-path="url(#pc90ae680f0)" style="fill: none; stroke: #2ca02c; stroke-width: 1.5; stroke-linecap: square"/>
   </g>
   <g id="line2d_16">
    <path d="M 78.934592 213.78721 
L 93.873621 198.603302 
L 108.812651 188.423373 
L 123.75168 198.388771 
L 138.69071 208.581072 
L 153.629739 215.079261 
L 168.568768 219.231713 
L 183.507798 222.047007 
L 198.446827 224.041203 
L 213.385857 225.507997 
L 228.324886 226.621955 
L 243.263916 227.491153 
L 258.202945 228.185017 
L 273.141974 228.749786 
L 288.081004 229.216778 
L 303.020033 229.608412 
L 317.959063 229.940666 
L 332.898092 230.22583 
L 347.837122 230.472527 
L 362.776151 230.688004 
L 377.715181 230.877522 
L 392.65421 231.045341 
L 407.593239 231.194973 
L 422.532269 231.32914 
L 437.471298 231.450135 
L 452.410328 231.559772 
L 467.349357 231.659535 
L 482.288387 231.750701 
L 497.227416 231.83436 
L 512.166445 231.911488 
L 527.105475 231.982872 
L 542.044504 232.04916 
" clip-path="url(#pc90ae680f0)" style="fill: none; stroke: #d62728; stroke-width: 1.5; stroke-linecap: square"/>
   </g>
   <g id="line2d_17">
    <path d="M 78.934592 193.259048 
L 93.873621 176.349026 
L 108.812651 162.188016 
L 123.75168 175.195628 
L 138.69071 188.895343 
L 153.629739 197.6674 
L 168.568768 203.263299 
L 183.507798 207.051223 
L 198.446827 209.731563 
L 213.385857 211.701705 
L 228.324886 213.197195 
L 243.263916 214.36362 
L 258.202945 215.294591 
L 273.141974 216.052222 
L 288.081004 216.678609 
L 303.020033 217.20394 
L 317.959063 217.649487 
L 332.898092 218.032019 
L 347.837122 218.362888 
L 362.776151 218.651907 
L 377.715181 218.90612 
L 392.65421 219.131224 
L 407.593239 219.331944 
L 422.532269 219.511918 
L 437.471298 219.674232 
L 452.410328 219.821332 
L 467.349357 219.955193 
L 482.288387 220.077529 
L 497.227416 220.189797 
L 512.166445 220.293317 
L 527.105475 220.389136 
L 542.044504 220.478113 
" clip-path="url(#pc90ae680f0)" style="fill: none; stroke: #9467bd; stroke-width: 1.5; stroke-linecap: square"/>
   </g>
   <g id="line2d_18">
    <path d="M 78.934592 165.386346 
L 93.873621 149.034549 
L 108.812651 129.881809 
L 123.75168 146.177248 
L 138.69071 164.169986 
L 153.629739 175.805308 
L 168.568768 183.21892 
L 183.507798 188.226726 
L 198.446827 191.766125 
L 213.385857 194.365575 
L 228.324886 196.33756 
L 243.263916 197.874893 
L 258.202945 199.101646 
L 273.141974 200.09975 
L 288.081004 200.924857 
L 303.020033 201.616862 
L 317.959063 202.203635 
L 332.898092 202.707538 
L 347.837122 203.14337 
L 362.776151 203.524079 
L 377.715181 203.858958 
L 392.65421 204.155504 
L 407.593239 204.419939 
L 422.532269 204.657054 
L 437.471298 204.870922 
L 452.410328 205.064784 
L 467.349357 205.241219 
L 482.288387 205.402487 
L 497.227416 205.550495 
L 512.166445 205.686985 
L 527.105475 205.81333 
L 542.044504 205.930655 
" clip-path="url(#pc90ae680f0)" style="fill: none; stroke: #8c564b; stroke-width: 1.5; stroke-linecap: square"/>
   </g>
   <g id="line2d_19">
    <path d="M 78.934592 127.242122 
L 93.873621 115.604388 
L 108.812651 90.460749 
L 123.75168 110.007285 
L 138.69071 133.191277 
L 153.629739 148.457097 
L 168.568768 158.183305 
L 183.507798 164.734631 
L 198.446827 169.356969 
L 213.385857 172.747475 
L 228.324886 175.317106 
L 243.263916 177.318873 
L 258.202945 178.915543 
L 273.141974 180.214093 
L 288.081004 181.287323 
L 303.020033 182.187329 
L 317.959063 182.950302 
L 332.898092 183.605552 
L 347.837122 184.172302 
L 362.776151 184.667331 
L 377.715181 185.102783 
L 392.65421 185.488401 
L 407.593239 185.832271 
L 422.532269 186.140634 
L 437.471298 186.418791 
L 452.410328 186.670976 
L 467.349357 186.900527 
L 482.288387 187.110373 
L 497.227416 187.302984 
L 512.166445 187.48062 
L 527.105475 187.645063 
L 542.044504 187.797775 
" clip-path="url(#pc90ae680f0)" style="fill: none; stroke: #e377c2; stroke-width: 1.5; stroke-linecap: square"/>
   </g>
   <g id="line2d_20">
    <path d="M 78.934592 74.62699 
L 93.873621 74.602012 
L 108.812651 42.980696 
L 123.75168 65.329272 
L 138.69071 94.620841 
L 153.629739 114.482588 
L 168.568768 127.172222 
L 183.507798 135.690225 
L 198.446827 141.684182 
L 213.385857 146.07195 
L 228.324886 149.392269 
L 243.263916 151.975747 
L 258.202945 154.034705 
L 273.141974 155.708075 
L 288.081004 157.090455 
L 303.020033 158.249333 
L 317.959063 159.231477 
L 332.898092 160.074792 
L 347.837122 160.804204 
L 362.776151 161.441191 
L 377.715181 162.001496 
L 392.65421 162.497672 
L 407.593239 162.940117 
L 422.532269 163.336892 
L 437.471298 163.694818 
L 452.410328 164.019369 
L 467.349357 164.314833 
L 482.288387 164.584964 
L 497.227416 164.832931 
L 512.166445 165.061628 
L 527.105475 165.273351 
L 542.044504 165.469985 
" clip-path="url(#pc90ae680f0)" style="fill: none; stroke: #7f7f7f; stroke-width: 1.5; stroke-linecap: square"/>
   </g>
   <g id="patch_3">
    <path d="M 55.779096 266.266198 
L 55.779096 32.4 
" style="fill: none; stroke: #000000; stroke-width: 0.8; stroke-linejoin: miter; stroke-linecap: square"/>
   </g>
   <g id="patch_4">
    <path d="M 565.2 266.266198 
L 565.2 32.4 
" style="fill: none; stroke: #000000; stroke-width: 0.8; stroke-linejoin: miter; stroke-linecap: square"/>
   </g>
   <g id="patch_5">
    <path d="M 55.779096 266.266198 
L 565.2 266.266198 
" style="fill: none; stroke: #000000; stroke-width: 0.8; stroke-linejoin: miter; stroke-linecap: square"/>
   </g>
   <g id="patch_6">
    <path d="M 55.779096 32.4 
L 565.2 32.4 
" style="fill: none; stroke: #000000; stroke-width: 0.8; stroke-linejoin: miter; stroke-linecap: square"/>
   </g>
   <g id="legend_1">
    <g id="patch_7">
     <path d="M 477.626562 157.825 
L 558.2 157.825 
Q 560.2 157.825 560.2 155.825 
L 560.2 39.4 
Q 560.2 37.4 558.2 37.4 
L 477.626562 37.4 
Q 475.626562 37.4 475.626562 39.4 
L 475.626562 155.825 
Q 475.626562 157.825 477.626562 157.825 
z
" style="fill: #ffffff; opacity: 0.8; stroke: #cccccc; stroke-linejoin: miter"/>
    </g>
    <g id="line2d_21">
     <path d="M 479.626562 45.498438 
L 489.626562 45.498438 
L 499.626562 45.498438 
" style="fill: none; stroke: #1f77b4; stroke-width: 1.5; stroke-linecap: square"/>
    </g>
    <g id="text_15">
     <!-- s = 2.50 -->
     <g transform="translate(507.626562 48.998438) scale(0.1 -0.1)">
      <defs>
       <path id="DejaVuSans-3d" d="M 678 2906 
L 4684 2906 
L 4684 2381 
L 678 2381 
L 678 2906 
z
M 678 1631 
L 4684 1631 
L 4684 1100 
L 678 1100 
L 678 1631 
z
" transform="scale(0.015625)"/>
      </defs>
      <use xlink:href="#DejaVuSans-73"/>
      <use xlink:href="#DejaVuSans-20" transform="translate(52.099609 0)"/>
      <use xlink:href="#DejaVuSans-3d" transform="translate(83.886719 0)"/>
      <use xlink:href="#DejaVuSans-20" transform="translate(167.675781 0)"/>
      <use xlink:href="#DejaVuSans-32" transform="translate(199.462891 0)"/>
      <use xlink:href="#DejaVuSans-2e" transform="translate(263.085938 0)"/>
      <use xlink:href="#DejaVuSans-35" transform="translate(294.873047 0)"/>
      <use xlink:href="#DejaVuSans-30" transform="translate(358.496094 0)"/>
     </g>
    </g>
    <g id="line2d_22">
     <path d="M 479.626562 60.176563 
L 489.626562 60.176563 
L 499.626562 60.176563 
" style="fill: none; stroke: #ff7f0e; stroke-width: 1.5; stroke-linecap: square"/>
    </g>
    <g id="text_16">
     <!-- s = 3.93 -->
     <g transform="translate(507.626562 63.676563) scale(0.1 -0.1)">
      <defs>
       <path id="DejaVuSans-39" d="M 703 97 
L 703 672 
Q 941 559 1184 500 
Q 1428 441 1663 441 
Q 2288 441 2617 861 
Q 2947 1281 2994 2138 
Q 2813 1869 2534 1725 
Q 2256 1581 1919 1581 
Q 1219 1581 811 2004 
Q 403 2428 403 3163 
Q 403 3881 828 4315 
Q 1253 4750 1959 4750 
Q 2769 4750 3195 4129 
Q 3622 3509 3622 2328 
Q 3622 1225 3098 567 
Q 2575 -91 1691 -91 
Q 1453 -91 1209 -44 
Q 966 3 703 97 
z
M 1959 2075 
Q 2384 2075 2632 2365 
Q 2881 2656 2881 3163 
Q 2881 3666 2632 3958 
Q 2384 4250 1959 4250 
Q 1534 4250 1286 3958 
Q 1038 3666 1038 3163 
Q 1038 2656 1286 2365 
Q 1534 2075 1959 2075 
z
" transform="scale(0.015625)"/>
      </defs>
      <use xlink:href="#DejaVuSans-73"/>
      <use xlink:href="#DejaVuSans-20" transform="translate(52.099609 0)"/>
      <use xlink:href="#DejaVuSans-3d" transform="translate(83.886719 0)"/>
      <use xlink:href="#DejaVuSans-20" transform="translate(167.675781 0)"/>
      <use xlink:href="#DejaVuSans-33" transform="translate(199.462891 0)"/>
      <use xlink:href="#DejaVuSans-2e" transform="translate(263.085938 0)"/>
      <use xlink:href="#DejaVuSans-39" transform="translate(294.873047 0)"/>
      <use xlink:href="#DejaVuSans-33" transform="translate(358.496094 0)"/>
     </g>
    </g>
    <g id="line2d_23">
     <path d="M 479.626562 74.854688 
L 489.626562 74.854688 
L 499.626562 74.854688 
" style="fill: none; stroke: #2ca02c; stroke-width: 1.5; stroke-linecap: square"/>
    </g>
    <g id="text_17">
     <!-- s = 5.36 -->
     <g transform="translate(507.626562 78.354688) scale(0.1 -0.1)">
      <defs>
       <path id="DejaVuSans-36" d="M 2113 2584 
Q 1688 2584 1439 2293 
Q 1191 2003 1191 1497 
Q 1191 994 1439 701 
Q 1688 409 2113 409 
Q 2538 409 2786 701 
Q 3034 994 3034 1497 
Q 3034 2003 2786 2293 
Q 2538 2584 2113 2584 
z
M 3366 4563 
L 3366 3988 
Q 3128 4100 2886 4159 
Q 2644 4219 2406 4219 
Q 1781 4219 1451 3797 
Q 1122 3375 1075 2522 
Q 1259 2794 1537 2939 
Q 1816 3084 2150 3084 
Q 2853 3084 3261 2657 
Q 3669 2231 3669 1497 
Q 3669 778 3244 343 
Q 2819 -91 2113 -91 
Q 1303 -91 875 529 
Q 447 1150 447 2328 
Q 447 3434 972 4092 
Q 1497 4750 2381 4750 
Q 2619 4750 2861 4703 
Q 3103 4656 3366 4563 
z
" transform="scale(0.015625)"/>
      </defs>
      <use xlink:href="#DejaVuSans-73"/>
      <use xlink:href="#DejaVuSans-20" transform="translate(52.099609 0)"/>
      <use xlink:href="#DejaVuSans-3d" transform="translate(83.886719 0)"/>
      <use xlink:href="#DejaVuSans-20" transform="translate(167.675781 0)"/>
      <use xlink:href="#DejaVuSans-35" transform="translate(199.462891 0)"/>
      <use xlink:href="#DejaVuSans-2e" transform="translate(263.085938 0)"/>
      <use xlink:href="#DejaVuSans-33" transform="translate(294.873047 0)"/>
      <use xlink:href="#DejaVuSans-36" transform="translate(358.496094 0)"/>
     </g>
    </g>
    <g id="line2d_24">
     <path d="M 479.626562 89.532812 
L 489.626562 89.532812 
L 499.626562 89.532812 
" style="fill: none; stroke: #d62728; stroke-width: 1.5; stroke-linecap: square"/>
    </g>
    <g id="text_18">
     <!-- s = 6.79 -->
     <g transform="translate(507.626562 93.032812) scale(0.1 -0.1)">
      <defs>
       <path id="DejaVuSans-37" d="M 525 4666 
L 3525 4666 
L 3525 4397 
L 1831 0 
L 1172 0 
L 2766 4134 
L 525 4134 
L 525 4666 
z
" transform="scale(0.015625)"/>
      </defs>
      <use xlink:href="#DejaVuSans-73"/>
      <use xlink:href="#DejaVuSans-20" transform="translate(52.099609 0)"/>
      <use xlink:href="#DejaVuSans-3d" transform="translate(83.886719 0)"/>
      <use xlink:href="#DejaVuSans-20" transform="translate(167.675781 0)"/>
      <use xlink:href="#DejaVuSans-36" transform="translate(199.462891 0)"/>
      <use xlink:href="#DejaVuSans-2e" transform="translate(263.085938 0)"/>
      <use xlink:href="#DejaVuSans-37" transform="translate(294.873047 0)"/>
      <use xlink:href="#DejaVuSans-39" transform="translate(358.496094 0)"/>
     </g>
    </g>
    <g id="line2d_25">
     <path d="M 479.626562 104.210938 
L 489.626562 104.210938 
L 499.626562 104.210938 
" style="fill: none; stroke: #9467bd; stroke-width: 1.5; stroke-linecap: square"/>
    </g>
    <g id="text_19">
     <!-- s = 8.21 -->
     <g transform="translate(507.626562 107.710938) scale(0.1 -0.1)">
      <defs>
       <path id="DejaVuSans-38" d="M 2034 2216 
Q 1584 2216 1326 1975 
Q 1069 1734 1069 1313 
Q 1069 891 1326 650 
Q 1584 409 2034 409 
Q 2484 409 2743 651 
Q 3003 894 3003 1313 
Q 3003 1734 2745 1975 
Q 2488 2216 2034 2216 
z
M 1403 2484 
Q 997 2584 770 2862 
Q 544 3141 544 3541 
Q 544 4100 942 4425 
Q 1341 4750 2034 4750 
Q 2731 4750 3128 4425 
Q 3525 4100 3525 3541 
Q 3525 3141 3298 2862 
Q 3072 2584 2669 2484 
Q 3125 2378 3379 2068 
Q 3634 1759 3634 1313 
Q 3634 634 3220 271 
Q 2806 -91 2034 -91 
Q 1263 -91 848 271 
Q 434 634 434 1313 
Q 434 1759 690 2068 
Q 947 2378 1403 2484 
z
M 1172 3481 
Q 1172 3119 1398 2916 
Q 1625 2713 2034 2713 
Q 2441 2713 2670 2916 
Q 2900 3119 2900 3481 
Q 2900 3844 2670 4047 
Q 2441 4250 2034 4250 
Q 1625 4250 1398 4047 
Q 1172 3844 1172 3481 
z
" transform="scale(0.015625)"/>
      </defs>
      <use xlink:href="#DejaVuSans-73"/>
      <use xlink:href="#DejaVuSans-20" transform="translate(52.099609 0)"/>
      <use xlink:href="#DejaVuSans-3d" transform="translate(83.886719 0)"/>
      <use xlink:href="#DejaVuSans-20" transform="translate(167.675781 0)"/>
      <use xlink:href="#DejaVuSans-38" transform="translate(199.462891 0)"/>
      <use xlink:href="#DejaVuSans-2e" transform="translate(263.085938 0)"/>
      <use xlink:href="#DejaVuSans-32" transform="translate(294.873047 0)"/>
      <use xlink:href="#DejaVuSans-31" transform="translate(358.496094 0)"/>
     </g>
    </g>
    <g id="line2d_26">
     <path d="M 479.626562 118.889063 
L 489.626562 118.889063 
L 499.626562 118.889063 
" style="fill: none; stroke: #8c564b; stroke-width: 1.5; stroke-linecap: square"/>
    </g>
    <g id="text_20">
     <!-- s = 9.64 -->
     <g transform="translate(507.626562 122.389063) scale(0.1 -0.1)">
      <defs>
       <path id="DejaVuSans-34" d="M 2419 4116 
L 825 1625 
L 2419 1625 
L 2419 4116 
z
M 2253 4666 
L 3047 4666 
L 3047 1625 
L 3713 1625 
L 3713 1100 
L 3047 1100 
L 3047 0 
L 2419 0 
L 2419 1100 
L 313 1100 
L 313 1709 
L 2253 4666 
z
" transform="scale(0.015625)"/>
      </defs>
      <use xlink:href="#DejaVuSans-73"/>
      <use xlink:href="#DejaVuSans-20" transform="translate(52.099609 0)"/>
      <use xlink:href="#DejaVuSans-3d" transform="translate(83.886719 0)"/>
      <use xlink:href="#DejaVuSans-20" transform="translate(167.675781 0)"/>
      <use xlink:href="#DejaVuSans-39" transform="translate(199.462891 0)"/>
      <use xlink:href="#DejaVuSans-2e" transform="translate(263.085938 0)"/>
      <use xlink:href="#DejaVuSans-36" transform="translate(294.873047 0)"/>
      <use xlink:href="#DejaVuSans-34" transform="translate(358.496094 0)"/>
     </g>
    </g>
    <g id="line2d_27">
     <path d="M 479.626562 133.567188 
L 489.626562 133.567188 
L 499.626562 133.567188 
" style="fill: none; stroke: #e377c2; stroke-width: 1.5; stroke-linecap: square"/>
    </g>
    <g id="text_21">
     <!-- s = 11.07 -->
     <g transform="translate(507.626562 137.067188) scale(0.1 -0.1)">
      <use xlink:href="#DejaVuSans-73"/>
      <use xlink:href="#DejaVuSans-20" transform="translate(52.099609 0)"/>
      <use xlink:href="#DejaVuSans-3d" transform="translate(83.886719 0)"/>
      <use xlink:href="#DejaVuSans-20" transform="translate(167.675781 0)"/>
      <use xlink:href="#DejaVuSans-31" transform="translate(199.462891 0)"/>
      <use xlink:href="#DejaVuSans-31" transform="translate(263.085938 0)"/>
      <use xlink:href="#DejaVuSans-2e" transform="translate(326.708984 0)"/>
      <use xlink:href="#DejaVuSans-30" transform="translate(358.496094 0)"/>
      <use xlink:href="#DejaVuSans-37" transform="translate(422.119141 0)"/>
     </g>
    </g>
    <g id="line2d_28">
     <path d="M 479.626562 148.245312 
L 489.626562 148.245312 
L 499.626562 148.245312 
" style="fill: none; stroke: #7f7f7f; stroke-width: 1.5; stroke-linecap: square"/>
    </g>
    <g id="text_22">
     <!-- s = 12.50 -->
     <g transform="translate(507.626562 151.745312) scale(0.1 -0.1)">
      <use xlink:href="#DejaVuSans-73"/>
      <use xlink:href="#DejaVuSans-20" transform="translate(52.099609 0)"/>
      <use xlink:href="#DejaVuSans-3d" transform="translate(83.886719 0)"/>
      <use xlink:href="#DejaVuSans-20" transform="translate(167.675781 0)"/>
      <use xlink:href="#DejaVuSans-31" transform="translate(199.462891 0)"/>
      <use xlink:href="#DejaVuSans-32" transform="translate(263.085938 0)"/>
      <use xlink:href="#DejaVuSans-2e" transform="translate(326.708984 0)"/>
      <use xlink:href="#DejaVuSans-35" transform="translate(358.496094 0)"/>
      <use xlink:href="#DejaVuSans-30" transform="translate(422.119141 0)"/>
     </g>
    </g>
   </g>
  </g>
  <g id="axes_2">
   <g id="patch_8">
    <path d="M 55.779096 544.153099 
L 565.2 544.153099 
L 565.2 310.286901 
L 55.779096 310.286901 
z
" style="fill: #ffffff"/>
   </g>
   <g id="matplotlib.axis_3">
    <g id="xtick_7">
     <g id="line2d_29">
      <g>
       <use xlink:href="#mc4d2e08f76" x="71.465077" y="544.153099" style="stroke: #000000; stroke-width: 0.8"/>
      </g>
     </g>
     <g id="text_23">
      <!-- 0 -->
      <g transform="translate(68.283827 558.751537) scale(0.1 -0.1)">
       <use xlink:href="#DejaVuSans-30"/>
      </g>
     </g>
    </g>
    <g id="xtick_8">
     <g id="line2d_30">
      <g>
       <use xlink:href="#mc4d2e08f76" x="164.834011" y="544.153099" style="stroke: #000000; stroke-width: 0.8"/>
      </g>
     </g>
     <g id="text_24">
      <!-- 50 -->
      <g transform="translate(158.471511 558.751537) scale(0.1 -0.1)">
       <use xlink:href="#DejaVuSans-35"/>
       <use xlink:href="#DejaVuSans-30" transform="translate(63.623047 0)"/>
      </g>
     </g>
    </g>
    <g id="xtick_9">
     <g id="line2d_31">
      <g>
       <use xlink:href="#mc4d2e08f76" x="258.202945" y="544.153099" style="stroke: #000000; stroke-width: 0.8"/>
      </g>
     </g>
     <g id="text_25">
      <!-- 100 -->
      <g transform="translate(248.659195 558.751537) scale(0.1 -0.1)">
       <use xlink:href="#DejaVuSans-31"/>
       <use xlink:href="#DejaVuSans-30" transform="translate(63.623047 0)"/>
       <use xlink:href="#DejaVuSans-30" transform="translate(127.246094 0)"/>
      </g>
     </g>
    </g>
    <g id="xtick_10">
     <g id="line2d_32">
      <g>
       <use xlink:href="#mc4d2e08f76" x="351.571879" y="544.153099" style="stroke: #000000; stroke-width: 0.8"/>
      </g>
     </g>
     <g id="text_26">
      <!-- 150 -->
      <g transform="translate(342.028129 558.751537) scale(0.1 -0.1)">
       <use xlink:href="#DejaVuSans-31"/>
       <use xlink:href="#DejaVuSans-35" transform="translate(63.623047 0)"/>
       <use xlink:href="#DejaVuSans-30" transform="translate(127.246094 0)"/>
      </g>
     </g>
    </g>
    <g id="xtick_11">
     <g id="line2d_33">
      <g>
       <use xlink:href="#mc4d2e08f76" x="444.940813" y="544.153099" style="stroke: #000000; stroke-width: 0.8"/>
      </g>
     </g>
     <g id="text_27">
      <!-- 200 -->
      <g transform="translate(435.397063 558.751537) scale(0.1 -0.1)">
       <use xlink:href="#DejaVuSans-32"/>
       <use xlink:href="#DejaVuSans-30" transform="translate(63.623047 0)"/>
       <use xlink:href="#DejaVuSans-30" transform="translate(127.246094 0)"/>
      </g>
     </g>
    </g>
    <g id="xtick_12">
     <g id="line2d_34">
      <g>
       <use xlink:href="#mc4d2e08f76" x="538.309747" y="544.153099" style="stroke: #000000; stroke-width: 0.8"/>
      </g>
     </g>
     <g id="text_28">
      <!-- 250 -->
      <g transform="translate(528.765997 558.751537) scale(0.1 -0.1)">
       <use xlink:href="#DejaVuSans-32"/>
       <use xlink:href="#DejaVuSans-35" transform="translate(63.623047 0)"/>
       <use xlink:href="#DejaVuSans-30" transform="translate(127.246094 0)"/>
      </g>
     </g>
    </g>
    <g id="text_29">
     <!-- Time (days) -->
     <g transform="translate(280.962986 572.429662) scale(0.1 -0.1)">
      <use xlink:href="#DejaVuSans-54"/>
      <use xlink:href="#DejaVuSans-69" transform="translate(57.958984 0)"/>
      <use xlink:href="#DejaVuSans-6d" transform="translate(85.742188 0)"/>
      <use xlink:href="#DejaVuSans-65" transform="translate(183.154297 0)"/>
      <use xlink:href="#DejaVuSans-20" transform="translate(244.677734 0)"/>
      <use xlink:href="#DejaVuSans-28" transform="translate(276.464844 0)"/>
      <use xlink:href="#DejaVuSans-64" transform="translate(315.478516 0)"/>
      <use xlink:href="#DejaVuSans-61" transform="translate(378.955078 0)"/>
      <use xlink:href="#DejaVuSans-79" transform="translate(440.234375 0)"/>
      <use xlink:href="#DejaVuSans-73" transform="translate(499.414062 0)"/>
      <use xlink:href="#DejaVuSans-29" transform="translate(551.513672 0)"/>
     </g>
    </g>
   </g>
   <g id="matplotlib.axis_4">
    <g id="ytick_7">
     <g id="line2d_35">
      <g>
       <use xlink:href="#m60a542bf4a" x="55.779096" y="544.153099" style="stroke: #000000; stroke-width: 0.8"/>
      </g>
     </g>
     <g id="text_30">
      <!-- $\mathdefault{10^{-1}}$ -->
      <g transform="translate(25.279096 547.952318) scale(0.1 -0.1)">
       <defs>
        <path id="DejaVuSans-2212" d="M 678 2272 
L 4684 2272 
L 4684 1741 
L 678 1741 
L 678 2272 
z
" transform="scale(0.015625)"/>
       </defs>
       <use xlink:href="#DejaVuSans-31" transform="translate(0 0.684375)"/>
       <use xlink:href="#DejaVuSans-30" transform="translate(63.623047 0.684375)"/>
       <use xlink:href="#DejaVuSans-2212" transform="translate(128.203125 38.965625) scale(0.7)"/>
       <use xlink:href="#DejaVuSans-31" transform="translate(186.855469 38.965625) scale(0.7)"/>
      </g>
     </g>
    </g>
    <g id="ytick_8">
     <g id="line2d_36">
      <g>
       <use xlink:href="#m60a542bf4a" x="55.779096" y="512.903953" style="stroke: #000000; stroke-width: 0.8"/>
      </g>
     </g>
     <g id="text_31">
      <!-- $\mathdefault{10^{1}}$ -->
      <g transform="translate(31.179096 516.703172) scale(0.1 -0.1)">
       <use xlink:href="#DejaVuSans-31" transform="translate(0 0.684375)"/>
       <use xlink:href="#DejaVuSans-30" transform="translate(63.623047 0.684375)"/>
       <use xlink:href="#DejaVuSans-31" transform="translate(128.203125 38.965625) scale(0.7)"/>
      </g>
     </g>
    </g>
    <g id="ytick_9">
     <g id="line2d_37">
      <g>
       <use xlink:href="#m60a542bf4a" x="55.779096" y="481.654807" style="stroke: #000000; stroke-width: 0.8"/>
      </g>
     </g>
     <g id="text_32">
      <!-- $\mathdefault{10^{3}}$ -->
      <g transform="translate(31.179096 485.454026) scale(0.1 -0.1)">
       <use xlink:href="#DejaVuSans-31" transform="translate(0 0.765625)"/>
       <use xlink:href="#DejaVuSans-30" transform="translate(63.623047 0.765625)"/>
       <use xlink:href="#DejaVuSans-33" transform="translate(128.203125 39.046875) scale(0.7)"/>
      </g>
     </g>
    </g>
    <g id="ytick_10">
     <g id="line2d_38">
      <g>
       <use xlink:href="#m60a542bf4a" x="55.779096" y="450.405661" style="stroke: #000000; stroke-width: 0.8"/>
      </g>
     </g>
     <g id="text_33">
      <!-- $\mathdefault{10^{5}}$ -->
      <g transform="translate(31.179096 454.20488) scale(0.1 -0.1)">
       <use xlink:href="#DejaVuSans-31" transform="translate(0 0.684375)"/>
       <use xlink:href="#DejaVuSans-30" transform="translate(63.623047 0.684375)"/>
       <use xlink:href="#DejaVuSans-35" transform="translate(128.203125 38.965625) scale(0.7)"/>
      </g>
     </g>
    </g>
    <g id="ytick_11">
     <g id="line2d_39">
      <g>
       <use xlink:href="#m60a542bf4a" x="55.779096" y="419.156515" style="stroke: #000000; stroke-width: 0.8"/>
      </g>
     </g>
     <g id="text_34">
      <!-- $\mathdefault{10^{7}}$ -->
      <g transform="translate(31.179096 422.955734) scale(0.1 -0.1)">
       <use xlink:href="#DejaVuSans-31" transform="translate(0 0.684375)"/>
       <use xlink:href="#DejaVuSans-30" transform="translate(63.623047 0.684375)"/>
       <use xlink:href="#DejaVuSans-37" transform="translate(128.203125 38.965625) scale(0.7)"/>
      </g>
     </g>
    </g>
    <g id="ytick_12">
     <g id="line2d_40">
      <g>
       <use xlink:href="#m60a542bf4a" x="55.779096" y="387.907369" style="stroke: #000000; stroke-width: 0.8"/>
      </g>
     </g>
     <g id="text_35">
      <!-- $\mathdefault{10^{9}}$ -->
      <g transform="translate(31.179096 391.706587) scale(0.1 -0.1)">
       <use xlink:href="#DejaVuSans-31" transform="translate(0 0.765625)"/>
       <use xlink:href="#DejaVuSans-30" transform="translate(63.623047 0.765625)"/>
       <use xlink:href="#DejaVuSans-39" transform="translate(128.203125 39.046875) scale(0.7)"/>
      </g>
     </g>
    </g>
    <g id="ytick_13">
     <g id="line2d_41">
      <g>
       <use xlink:href="#m60a542bf4a" x="55.779096" y="356.658223" style="stroke: #000000; stroke-width: 0.8"/>
      </g>
     </g>
     <g id="text_36">
      <!-- $\mathdefault{10^{11}}$ -->
      <g transform="translate(26.679096 360.457441) scale(0.1 -0.1)">
       <use xlink:href="#DejaVuSans-31" transform="translate(0 0.684375)"/>
       <use xlink:href="#DejaVuSans-30" transform="translate(63.623047 0.684375)"/>
       <use xlink:href="#DejaVuSans-31" transform="translate(128.203125 38.965625) scale(0.7)"/>
       <use xlink:href="#DejaVuSans-31" transform="translate(172.739258 38.965625) scale(0.7)"/>
      </g>
     </g>
    </g>
    <g id="ytick_14">
     <g id="line2d_42">
      <g>
       <use xlink:href="#m60a542bf4a" x="55.779096" y="325.409076" style="stroke: #000000; stroke-width: 0.8"/>
      </g>
     </g>
     <g id="text_37">
      <!-- $\mathdefault{10^{13}}$ -->
      <g transform="translate(26.679096 329.208295) scale(0.1 -0.1)">
       <use xlink:href="#DejaVuSans-31" transform="translate(0 0.765625)"/>
       <use xlink:href="#DejaVuSans-30" transform="translate(63.623047 0.765625)"/>
       <use xlink:href="#DejaVuSans-31" transform="translate(128.203125 39.046875) scale(0.7)"/>
       <use xlink:href="#DejaVuSans-33" transform="translate(172.739258 39.046875) scale(0.7)"/>
      </g>
     </g>
    </g>
    <g id="text_38">
     <!-- Period-averaged biovolume -->
     <g transform="translate(19.199409 495.991875) rotate(-90) scale(0.1 -0.1)">
      <defs>
       <path id="DejaVuSans-62" d="M 3116 1747 
Q 3116 2381 2855 2742 
Q 2594 3103 2138 3103 
Q 1681 3103 1420 2742 
Q 1159 2381 1159 1747 
Q 1159 1113 1420 752 
Q 1681 391 2138 391 
Q 2594 391 2855 752 
Q 3116 1113 3116 1747 
z
M 1159 2969 
Q 1341 3281 1617 3432 
Q 1894 3584 2278 3584 
Q 2916 3584 3314 3078 
Q 3713 2572 3713 1747 
Q 3713 922 3314 415 
Q 2916 -91 2278 -91 
Q 1894 -91 1617 61 
Q 1341 213 1159 525 
L 1159 0 
L 581 0 
L 581 4863 
L 1159 4863 
L 1159 2969 
z
" transform="scale(0.015625)"/>
      </defs>
      <use xlink:href="#DejaVuSans-50"/>
      <use xlink:href="#DejaVuSans-65" transform="translate(56.677734 0)"/>
      <use xlink:href="#DejaVuSans-72" transform="translate(118.201172 0)"/>
      <use xlink:href="#DejaVuSans-69" transform="translate(159.314453 0)"/>
      <use xlink:href="#DejaVuSans-6f" transform="translate(187.097656 0)"/>
      <use xlink:href="#DejaVuSans-64" transform="translate(248.279297 0)"/>
      <use xlink:href="#DejaVuSans-2d" transform="translate(311.755859 0)"/>
      <use xlink:href="#DejaVuSans-61" transform="translate(347.839844 0)"/>
      <use xlink:href="#DejaVuSans-76" transform="translate(409.119141 0)"/>
      <use xlink:href="#DejaVuSans-65" transform="translate(468.298828 0)"/>
      <use xlink:href="#DejaVuSans-72" transform="translate(529.822266 0)"/>
      <use xlink:href="#DejaVuSans-61" transform="translate(570.935547 0)"/>
      <use xlink:href="#DejaVuSans-67" transform="translate(632.214844 0)"/>
      <use xlink:href="#DejaVuSans-65" transform="translate(695.691406 0)"/>
      <use xlink:href="#DejaVuSans-64" transform="translate(757.214844 0)"/>
      <use xlink:href="#DejaVuSans-20" transform="translate(820.691406 0)"/>
      <use xlink:href="#DejaVuSans-62" transform="translate(852.478516 0)"/>
      <use xlink:href="#DejaVuSans-69" transform="translate(915.955078 0)"/>
      <use xlink:href="#DejaVuSans-6f" transform="translate(943.738281 0)"/>
      <use xlink:href="#DejaVuSans-76" transform="translate(1004.919922 0)"/>
      <use xlink:href="#DejaVuSans-6f" transform="translate(1064.099609 0)"/>
      <use xlink:href="#DejaVuSans-6c" transform="translate(1125.28125 0)"/>
      <use xlink:href="#DejaVuSans-75" transform="translate(1153.064453 0)"/>
      <use xlink:href="#DejaVuSans-6d" transform="translate(1216.443359 0)"/>
      <use xlink:href="#DejaVuSans-65" transform="translate(1313.855469 0)"/>
     </g>
    </g>
   </g>
   <g id="line2d_43">
    <path d="M 78.934592 470.119121 
L 93.873621 465.155728 
L 108.812651 458.508531 
L 123.75168 452.774245 
L 138.69071 448.611156 
L 153.629739 445.567121 
L 168.568768 443.232744 
L 183.507798 441.372016 
L 198.446827 439.844652 
L 213.385857 438.561534 
L 228.324886 437.463366 
L 243.263916 436.509198 
L 258.202945 435.669775 
L 273.141974 434.92362 
L 288.081004 434.254517 
L 303.020033 433.649952 
L 317.959063 433.100129 
L 332.898092 432.597205 
L 347.837122 432.134901 
L 362.776151 431.708036 
L 377.715181 431.312313 
L 392.65421 430.944145 
L 407.593239 430.600513 
L 422.532269 430.278869 
L 437.471298 429.977053 
L 452.410328 429.693215 
L 467.349357 429.425753 
L 482.288387 429.173261 
L 497.227416 428.934504 
L 512.166445 428.708389 
L 527.105475 428.493955 
L 542.044504 428.290353 
" clip-path="url(#p6d06a49ed0)" style="fill: none; stroke: #1f77b4; stroke-width: 1.5; stroke-linecap: square"/>
   </g>
   <g id="line2d_44">
    <path d="M 78.934592 447.747162 
L 93.873621 443.090619 
L 108.812651 436.61272 
L 123.75168 430.931857 
L 138.69071 426.849962 
L 153.629739 423.940934 
L 168.568768 421.788697 
L 183.507798 420.14659 
L 198.446827 418.86538 
L 213.385857 417.849436 
L 228.324886 417.034823 
L 243.263916 416.377233 
L 258.202945 415.844913 
L 273.141974 415.414516 
L 288.081004 415.068386 
L 303.020033 414.792886 
L 317.959063 414.577334 
L 332.898092 414.413172 
L 347.837122 414.2935 
L 362.776151 414.212661 
L 377.715181 414.165968 
L 392.65421 414.149507 
L 407.593239 414.159985 
L 422.532269 414.194615 
L 437.471298 414.25102 
L 452.410328 414.327154 
L 467.349357 414.421242 
L 482.288387 414.531735 
L 497.227416 414.657276 
L 512.166445 414.79668 
L 527.105475 414.948906 
L 542.044504 415.113033 
" clip-path="url(#p6d06a49ed0)" style="fill: none; stroke: #ff7f0e; stroke-width: 1.5; stroke-linecap: square"/>
   </g>
   <g id="line2d_45">
    <path d="M 78.934592 425.87945 
L 93.873621 422.171746 
L 108.812651 416.606731 
L 123.75168 411.627807 
L 138.69071 408.18485 
L 153.629739 405.915175 
L 168.568768 404.412568 
L 183.507798 403.430019 
L 198.446827 402.816614 
L 213.385857 402.47504 
L 228.324886 402.340035 
L 243.263916 402.366266 
L 258.202945 402.521206 
L 273.141974 402.780909 
L 288.081004 403.127259 
L 303.020033 403.546257 
L 317.959063 404.026918 
L 332.898092 404.560466 
L 347.837122 405.139787 
L 362.776151 405.759071 
L 377.715181 406.413504 
L 392.65421 407.099059 
L 407.593239 407.812352 
L 422.532269 408.550513 
L 437.471298 409.311095 
L 452.410328 410.091985 
L 467.349357 410.891354 
L 482.288387 411.707603 
L 497.227416 412.539339 
L 512.166445 413.385344 
L 527.105475 414.24455 
L 542.044504 415.116011 
" clip-path="url(#p6d06a49ed0)" style="fill: none; stroke: #2ca02c; stroke-width: 1.5; stroke-linecap: square"/>
   </g>
   <g id="line2d_46">
    <path d="M 78.934592 404.327 
L 93.873621 401.869836 
L 108.812651 397.598806 
L 123.75168 393.666508 
L 138.69071 391.159587 
L 153.629739 389.796889 
L 168.568768 389.1923 
L 183.507798 389.104049 
L 198.446827 389.383326 
L 213.385857 389.933636 
L 228.324886 390.690082 
L 243.263916 391.607498 
L 258.202945 392.653453 
L 273.141974 393.804056 
L 288.081004 395.041222 
L 303.020033 396.350984 
L 317.959063 397.722356 
L 332.898092 399.146584 
L 347.837122 400.61656 
L 362.776151 402.126475 
L 377.715181 403.671522 
L 392.65421 405.247677 
L 407.593239 406.851558 
L 422.532269 408.480296 
L 437.471298 410.131441 
L 452.410328 411.802885 
L 467.349357 413.492797 
L 482.288387 415.19958 
L 497.227416 416.921839 
L 512.166445 418.658359 
L 527.105475 420.408074 
L 542.044504 422.170039 
" clip-path="url(#p6d06a49ed0)" style="fill: none; stroke: #d62728; stroke-width: 1.5; stroke-linecap: square"/>
   </g>
   <g id="line2d_47">
    <path d="M 78.934592 383.008161 
L 93.873621 381.973031 
L 108.812651 379.266879 
L 123.75168 376.656946 
L 138.69071 375.322156 
L 153.629739 375.074049 
L 168.568768 375.55821 
L 183.507798 376.54385 
L 198.446827 377.887606 
L 213.385857 379.495921 
L 228.324886 381.305645 
L 243.263916 383.272726 
L 258.202945 385.365508 
L 273.141974 387.560649 
L 288.081004 389.840476 
L 303.020033 392.191335 
L 317.959063 394.602478 
L 332.898092 397.065345 
L 347.837122 399.572991 
L 362.776151 402.119723 
L 377.715181 404.700843 
L 392.65421 407.31241 
L 407.593239 409.951115 
L 422.532269 412.614149 
L 437.471298 415.299115 
L 452.410328 418.00395 
L 467.349357 420.726864 
L 482.288387 423.466292 
L 497.227416 426.22087 
L 512.166445 428.989408 
L 527.105475 431.770864 
L 542.044504 434.564311 
" clip-path="url(#p6d06a49ed0)" style="fill: none; stroke: #9467bd; stroke-width: 1.5; stroke-linecap: square"/>
   </g>
   <g id="line2d_48">
    <path d="M 78.934592 361.87926 
L 93.873621 362.423501 
L 108.812651 361.567197 
L 123.75168 360.608559 
L 138.69071 360.731222 
L 153.629739 361.844105 
L 168.568768 363.640475 
L 183.507798 365.908885 
L 198.446827 368.515987 
L 213.385857 371.374011 
L 228.324886 374.423381 
L 243.263916 377.622397 
L 258.202945 380.941039 
L 273.141974 384.357142 
L 288.081004 387.85391 
L 303.020033 391.418361 
L 317.959063 395.040269 
L 332.898092 398.71148 
L 347.837122 402.425392 
L 362.776151 406.176577 
L 377.715181 409.960559 
L 392.65421 413.773583 
L 407.593239 417.612494 
L 422.532269 421.474614 
L 437.471298 425.357657 
L 452.410328 429.259659 
L 467.349357 433.178914 
L 482.288387 437.113932 
L 497.227416 441.063411 
L 512.166445 445.026215 
L 527.105475 449.001348 
L 542.044504 452.987929 
" clip-path="url(#p6d06a49ed0)" style="fill: none; stroke: #8c564b; stroke-width: 1.5; stroke-linecap: square"/>
   </g>
   <g id="line2d_49">
    <path d="M 78.934592 340.894441 
L 93.873621 343.222786 
L 108.812651 344.537961 
L 123.75168 345.62803 
L 138.69071 347.56998 
L 153.629739 350.361873 
L 168.568768 353.760642 
L 183.507798 357.583968 
L 198.446827 361.714003 
L 213.385857 366.07225 
L 228.324886 370.605003 
L 243.263916 375.274476 
L 258.202945 380.053383 
L 273.141974 384.921534 
L 288.081004 389.863607 
L 303.020033 394.867746 
L 317.959063 399.924602 
L 332.898092 405.026709 
L 347.837122 410.168031 
L 362.776151 415.343592 
L 377.715181 420.549288 
L 392.65421 425.781677 
L 407.593239 431.037862 
L 422.532269 436.315388 
L 437.471298 441.612155 
L 452.410328 446.926361 
L 467.349357 452.256443 
L 482.288387 457.601032 
L 497.227416 462.958932 
L 512.166445 468.329099 
L 527.105475 473.710617 
L 542.044504 479.102675 
" clip-path="url(#p6d06a49ed0)" style="fill: none; stroke: #e377c2; stroke-width: 1.5; stroke-linecap: square"/>
   </g>
   <g id="line2d_50">
    <path d="M 78.934592 319.98682 
L 93.873621 324.355797 
L 108.812651 328.141778 
L 123.75168 331.664732 
L 138.69071 335.804859 
L 153.629739 340.624962 
L 168.568768 345.952755 
L 183.507798 351.642116 
L 198.446827 357.594959 
L 213.385857 363.74493 
L 228.324886 370.04618 
L 243.263916 376.466245 
L 258.202945 382.981579 
L 273.141974 389.574716 
L 288.081004 396.232369 
L 303.020033 402.94424 
L 317.959063 409.702204 
L 332.898092 416.49975 
L 347.837122 423.331628 
L 362.776151 430.193494 
L 377.715181 437.081765 
L 392.65421 443.993436 
L 407.593239 450.925973 
L 422.532269 457.877229 
L 437.471298 464.845369 
L 452.410328 471.828816 
L 467.349357 478.826203 
L 482.288387 485.836334 
L 497.227416 492.858161 
L 512.166445 499.890767 
L 527.105475 506.93335 
L 542.044504 513.985199 
" clip-path="url(#p6d06a49ed0)" style="fill: none; stroke: #7f7f7f; stroke-width: 1.5; stroke-linecap: square"/>
   </g>
   <g id="patch_9">
    <path d="M 55.779096 544.153099 
L 55.779096 310.286901 
" style="fill: none; stroke: #000000; stroke-width: 0.8; stroke-linejoin: miter; stroke-linecap: square"/>
   </g>
   <g id="patch_10">
    <path d="M 565.2 544.153099 
L 565.2 310.286901 
" style="fill: none; stroke: #000000; stroke-width: 0.8; stroke-linejoin: miter; stroke-linecap: square"/>
   </g>
   <g id="patch_11">
    <path d="M 55.779096 544.153099 
L 565.2 544.153099 
" style="fill: none; stroke: #000000; stroke-width: 0.8; stroke-linejoin: miter; stroke-linecap: square"/>
   </g>
   <g id="patch_12">
    <path d="M 55.779096 310.286901 
L 565.2 310.286901 
" style="fill: none; stroke: #000000; stroke-width: 0.8; stroke-linejoin: miter; stroke-linecap: square"/>
   </g>
   <g id="legend_2">
    <g id="patch_13">
     <path d="M 270.202829 539.153099 
L 350.776267 539.153099 
Q 352.776267 539.153099 352.776267 537.153099 
L 352.776267 420.728099 
Q 352.776267 418.728099 350.776267 418.728099 
L 270.202829 418.728099 
Q 268.202829 418.728099 268.202829 420.728099 
L 268.202829 537.153099 
Q 268.202829 539.153099 270.202829 539.153099 
z
" style="fill: #ffffff; opacity: 0.8; stroke: #cccccc; stroke-linejoin: miter"/>
    </g>
    <g id="line2d_51">
     <path d="M 272.202829 426.826537 
L 282.202829 426.826537 
L 292.202829 426.826537 
" style="fill: none; stroke: #1f77b4; stroke-width: 1.5; stroke-linecap: square"/>
    </g>
    <g id="text_39">
     <!-- s = 2.50 -->
     <g transform="translate(300.202829 430.326537) scale(0.1 -0.1)">
      <use xlink:href="#DejaVuSans-73"/>
      <use xlink:href="#DejaVuSans-20" transform="translate(52.099609 0)"/>
      <use xlink:href="#DejaVuSans-3d" transform="translate(83.886719 0)"/>
      <use xlink:href="#DejaVuSans-20" transform="translate(167.675781 0)"/>
      <use xlink:href="#DejaVuSans-32" transform="translate(199.462891 0)"/>
      <use xlink:href="#DejaVuSans-2e" transform="translate(263.085938 0)"/>
      <use xlink:href="#DejaVuSans-35" transform="translate(294.873047 0)"/>
      <use xlink:href="#DejaVuSans-30" transform="translate(358.496094 0)"/>
     </g>
    </g>
    <g id="line2d_52">
     <path d="M 272.202829 441.504662 
L 282.202829 441.504662 
L 292.202829 441.504662 
" style="fill: none; stroke: #ff7f0e; stroke-width: 1.5; stroke-linecap: square"/>
    </g>
    <g id="text_40">
     <!-- s = 3.93 -->
     <g transform="translate(300.202829 445.004662) scale(0.1 -0.1)">
      <use xlink:href="#DejaVuSans-73"/>
      <use xlink:href="#DejaVuSans-20" transform="translate(52.099609 0)"/>
      <use xlink:href="#DejaVuSans-3d" transform="translate(83.886719 0)"/>
      <use xlink:href="#DejaVuSans-20" transform="translate(167.675781 0)"/>
      <use xlink:href="#DejaVuSans-33" transform="translate(199.462891 0)"/>
      <use xlink:href="#DejaVuSans-2e" transform="translate(263.085938 0)"/>
      <use xlink:href="#DejaVuSans-39" transform="translate(294.873047 0)"/>
      <use xlink:href="#DejaVuSans-33" transform="translate(358.496094 0)"/>
     </g>
    </g>
    <g id="line2d_53">
     <path d="M 272.202829 456.182787 
L 282.202829 456.182787 
L 292.202829 456.182787 
" style="fill: none; stroke: #2ca02c; stroke-width: 1.5; stroke-linecap: square"/>
    </g>
    <g id="text_41">
     <!-- s = 5.36 -->
     <g transform="translate(300.202829 459.682787) scale(0.1 -0.1)">
      <use xlink:href="#DejaVuSans-73"/>
      <use xlink:href="#DejaVuSans-20" transform="translate(52.099609 0)"/>
      <use xlink:href="#DejaVuSans-3d" transform="translate(83.886719 0)"/>
      <use xlink:href="#DejaVuSans-20" transform="translate(167.675781 0)"/>
      <use xlink:href="#DejaVuSans-35" transform="translate(199.462891 0)"/>
      <use xlink:href="#DejaVuSans-2e" transform="translate(263.085938 0)"/>
      <use xlink:href="#DejaVuSans-33" transform="translate(294.873047 0)"/>
      <use xlink:href="#DejaVuSans-36" transform="translate(358.496094 0)"/>
     </g>
    </g>
    <g id="line2d_54">
     <path d="M 272.202829 470.860912 
L 282.202829 470.860912 
L 292.202829 470.860912 
" style="fill: none; stroke: #d62728; stroke-width: 1.5; stroke-linecap: square"/>
    </g>
    <g id="text_42">
     <!-- s = 6.79 -->
     <g transform="translate(300.202829 474.360912) scale(0.1 -0.1)">
      <use xlink:href="#DejaVuSans-73"/>
      <use xlink:href="#DejaVuSans-20" transform="translate(52.099609 0)"/>
      <use xlink:href="#DejaVuSans-3d" transform="translate(83.886719 0)"/>
      <use xlink:href="#DejaVuSans-20" transform="translate(167.675781 0)"/>
      <use xlink:href="#DejaVuSans-36" transform="translate(199.462891 0)"/>
      <use xlink:href="#DejaVuSans-2e" transform="translate(263.085938 0)"/>
      <use xlink:href="#DejaVuSans-37" transform="translate(294.873047 0)"/>
      <use xlink:href="#DejaVuSans-39" transform="translate(358.496094 0)"/>
     </g>
    </g>
    <g id="line2d_55">
     <path d="M 272.202829 485.539037 
L 282.202829 485.539037 
L 292.202829 485.539037 
" style="fill: none; stroke: #9467bd; stroke-width: 1.5; stroke-linecap: square"/>
    </g>
    <g id="text_43">
     <!-- s = 8.21 -->
     <g transform="translate(300.202829 489.039037) scale(0.1 -0.1)">
      <use xlink:href="#DejaVuSans-73"/>
      <use xlink:href="#DejaVuSans-20" transform="translate(52.099609 0)"/>
      <use xlink:href="#DejaVuSans-3d" transform="translate(83.886719 0)"/>
      <use xlink:href="#DejaVuSans-20" transform="translate(167.675781 0)"/>
      <use xlink:href="#DejaVuSans-38" transform="translate(199.462891 0)"/>
      <use xlink:href="#DejaVuSans-2e" transform="translate(263.085938 0)"/>
      <use xlink:href="#DejaVuSans-32" transform="translate(294.873047 0)"/>
      <use xlink:href="#DejaVuSans-31" transform="translate(358.496094 0)"/>
     </g>
    </g>
    <g id="line2d_56">
     <path d="M 272.202829 500.217162 
L 282.202829 500.217162 
L 292.202829 500.217162 
" style="fill: none; stroke: #8c564b; stroke-width: 1.5; stroke-linecap: square"/>
    </g>
    <g id="text_44">
     <!-- s = 9.64 -->
     <g transform="translate(300.202829 503.717162) scale(0.1 -0.1)">
      <use xlink:href="#DejaVuSans-73"/>
      <use xlink:href="#DejaVuSans-20" transform="translate(52.099609 0)"/>
      <use xlink:href="#DejaVuSans-3d" transform="translate(83.886719 0)"/>
      <use xlink:href="#DejaVuSans-20" transform="translate(167.675781 0)"/>
      <use xlink:href="#DejaVuSans-39" transform="translate(199.462891 0)"/>
      <use xlink:href="#DejaVuSans-2e" transform="translate(263.085938 0)"/>
      <use xlink:href="#DejaVuSans-36" transform="translate(294.873047 0)"/>
      <use xlink:href="#DejaVuSans-34" transform="translate(358.496094 0)"/>
     </g>
    </g>
    <g id="line2d_57">
     <path d="M 272.202829 514.895287 
L 282.202829 514.895287 
L 292.202829 514.895287 
" style="fill: none; stroke: #e377c2; stroke-width: 1.5; stroke-linecap: square"/>
    </g>
    <g id="text_45">
     <!-- s = 11.07 -->
     <g transform="translate(300.202829 518.395287) scale(0.1 -0.1)">
      <use xlink:href="#DejaVuSans-73"/>
      <use xlink:href="#DejaVuSans-20" transform="translate(52.099609 0)"/>
      <use xlink:href="#DejaVuSans-3d" transform="translate(83.886719 0)"/>
      <use xlink:href="#DejaVuSans-20" transform="translate(167.675781 0)"/>
      <use xlink:href="#DejaVuSans-31" transform="translate(199.462891 0)"/>
      <use xlink:href="#DejaVuSans-31" transform="translate(263.085938 0)"/>
      <use xlink:href="#DejaVuSans-2e" transform="translate(326.708984 0)"/>
      <use xlink:href="#DejaVuSans-30" transform="translate(358.496094 0)"/>
      <use xlink:href="#DejaVuSans-37" transform="translate(422.119141 0)"/>
     </g>
    </g>
    <g id="line2d_58">
     <path d="M 272.202829 529.573412 
L 282.202829 529.573412 
L 292.202829 529.573412 
" style="fill: none; stroke: #7f7f7f; stroke-width: 1.5; stroke-linecap: square"/>
    </g>
    <g id="text_46">
     <!-- s = 12.50 -->
     <g transform="translate(300.202829 533.073412) scale(0.1 -0.1)">
      <use xlink:href="#DejaVuSans-73"/>
      <use xlink:href="#DejaVuSans-20" transform="translate(52.099609 0)"/>
      <use xlink:href="#DejaVuSans-3d" transform="translate(83.886719 0)"/>
      <use xlink:href="#DejaVuSans-20" transform="translate(167.675781 0)"/>
      <use xlink:href="#DejaVuSans-31" transform="translate(199.462891 0)"/>
      <use xlink:href="#DejaVuSans-32" transform="translate(263.085938 0)"/>
      <use xlink:href="#DejaVuSans-2e" transform="translate(326.708984 0)"/>
      <use xlink:href="#DejaVuSans-35" transform="translate(358.496094 0)"/>
      <use xlink:href="#DejaVuSans-30" transform="translate(422.119141 0)"/>
     </g>
    </g>
   </g>
  </g>
  <g id="axes_3">
   <g id="patch_14">
    <path d="M 55.779096 822.04 
L 565.2 822.04 
L 565.2 588.173802 
L 55.779096 588.173802 
z
" style="fill: #ffffff"/>
   </g>
   <g id="matplotlib.axis_5">
    <g id="xtick_13">
     <g id="line2d_59">
      <g>
       <use xlink:href="#mc4d2e08f76" x="71.465077" y="822.04" style="stroke: #000000; stroke-width: 0.8"/>
      </g>
     </g>
     <g id="text_47">
      <!-- 0 -->
      <g transform="translate(68.283827 836.638438) scale(0.1 -0.1)">
       <use xlink:href="#DejaVuSans-30"/>
      </g>
     </g>
    </g>
    <g id="xtick_14">
     <g id="line2d_60">
      <g>
       <use xlink:href="#mc4d2e08f76" x="164.834011" y="822.04" style="stroke: #000000; stroke-width: 0.8"/>
      </g>
     </g>
     <g id="text_48">
      <!-- 50 -->
      <g transform="translate(158.471511 836.638438) scale(0.1 -0.1)">
       <use xlink:href="#DejaVuSans-35"/>
       <use xlink:href="#DejaVuSans-30" transform="translate(63.623047 0)"/>
      </g>
     </g>
    </g>
    <g id="xtick_15">
     <g id="line2d_61">
      <g>
       <use xlink:href="#mc4d2e08f76" x="258.202945" y="822.04" style="stroke: #000000; stroke-width: 0.8"/>
      </g>
     </g>
     <g id="text_49">
      <!-- 100 -->
      <g transform="translate(248.659195 836.638438) scale(0.1 -0.1)">
       <use xlink:href="#DejaVuSans-31"/>
       <use xlink:href="#DejaVuSans-30" transform="translate(63.623047 0)"/>
       <use xlink:href="#DejaVuSans-30" transform="translate(127.246094 0)"/>
      </g>
     </g>
    </g>
    <g id="xtick_16">
     <g id="line2d_62">
      <g>
       <use xlink:href="#mc4d2e08f76" x="351.571879" y="822.04" style="stroke: #000000; stroke-width: 0.8"/>
      </g>
     </g>
     <g id="text_50">
      <!-- 150 -->
      <g transform="translate(342.028129 836.638438) scale(0.1 -0.1)">
       <use xlink:href="#DejaVuSans-31"/>
       <use xlink:href="#DejaVuSans-35" transform="translate(63.623047 0)"/>
       <use xlink:href="#DejaVuSans-30" transform="translate(127.246094 0)"/>
      </g>
     </g>
    </g>
    <g id="xtick_17">
     <g id="line2d_63">
      <g>
       <use xlink:href="#mc4d2e08f76" x="444.940813" y="822.04" style="stroke: #000000; stroke-width: 0.8"/>
      </g>
     </g>
     <g id="text_51">
      <!-- 200 -->
      <g transform="translate(435.397063 836.638438) scale(0.1 -0.1)">
       <use xlink:href="#DejaVuSans-32"/>
       <use xlink:href="#DejaVuSans-30" transform="translate(63.623047 0)"/>
       <use xlink:href="#DejaVuSans-30" transform="translate(127.246094 0)"/>
      </g>
     </g>
    </g>
    <g id="xtick_18">
     <g id="line2d_64">
      <g>
       <use xlink:href="#mc4d2e08f76" x="538.309747" y="822.04" style="stroke: #000000; stroke-width: 0.8"/>
      </g>
     </g>
     <g id="text_52">
      <!-- 250 -->
      <g transform="translate(528.765997 836.638438) scale(0.1 -0.1)">
       <use xlink:href="#DejaVuSans-32"/>
       <use xlink:href="#DejaVuSans-35" transform="translate(63.623047 0)"/>
       <use xlink:href="#DejaVuSans-30" transform="translate(127.246094 0)"/>
      </g>
     </g>
    </g>
    <g id="text_53">
     <!-- Time (days) -->
     <g transform="translate(280.962986 850.316563) scale(0.1 -0.1)">
      <use xlink:href="#DejaVuSans-54"/>
      <use xlink:href="#DejaVuSans-69" transform="translate(57.958984 0)"/>
      <use xlink:href="#DejaVuSans-6d" transform="translate(85.742188 0)"/>
      <use xlink:href="#DejaVuSans-65" transform="translate(183.154297 0)"/>
      <use xlink:href="#DejaVuSans-20" transform="translate(244.677734 0)"/>
      <use xlink:href="#DejaVuSans-28" transform="translate(276.464844 0)"/>
      <use xlink:href="#DejaVuSans-64" transform="translate(315.478516 0)"/>
      <use xlink:href="#DejaVuSans-61" transform="translate(378.955078 0)"/>
      <use xlink:href="#DejaVuSans-79" transform="translate(440.234375 0)"/>
      <use xlink:href="#DejaVuSans-73" transform="translate(499.414062 0)"/>
      <use xlink:href="#DejaVuSans-29" transform="translate(551.513672 0)"/>
     </g>
    </g>
   </g>
   <g id="matplotlib.axis_6">
    <g id="ytick_15">
     <g id="line2d_65">
      <g>
       <use xlink:href="#m60a542bf4a" x="55.779096" y="822.04" style="stroke: #000000; stroke-width: 0.8"/>
      </g>
     </g>
     <g id="text_54">
      <!-- 0.0 -->
      <g transform="translate(32.875971 825.839219) scale(0.1 -0.1)">
       <use xlink:href="#DejaVuSans-30"/>
       <use xlink:href="#DejaVuSans-2e" transform="translate(63.623047 0)"/>
       <use xlink:href="#DejaVuSans-30" transform="translate(95.410156 0)"/>
      </g>
     </g>
    </g>
    <g id="ytick_16">
     <g id="line2d_66">
      <g>
       <use xlink:href="#m60a542bf4a" x="55.779096" y="788.954836" style="stroke: #000000; stroke-width: 0.8"/>
      </g>
     </g>
     <g id="text_55">
      <!-- 0.2 -->
      <g transform="translate(32.875971 792.754054) scale(0.1 -0.1)">
       <use xlink:href="#DejaVuSans-30"/>
       <use xlink:href="#DejaVuSans-2e" transform="translate(63.623047 0)"/>
       <use xlink:href="#DejaVuSans-32" transform="translate(95.410156 0)"/>
      </g>
     </g>
    </g>
    <g id="ytick_17">
     <g id="line2d_67">
      <g>
       <use xlink:href="#m60a542bf4a" x="55.779096" y="755.869671" style="stroke: #000000; stroke-width: 0.8"/>
      </g>
     </g>
     <g id="text_56">
      <!-- 0.4 -->
      <g transform="translate(32.875971 759.66889) scale(0.1 -0.1)">
       <use xlink:href="#DejaVuSans-30"/>
       <use xlink:href="#DejaVuSans-2e" transform="translate(63.623047 0)"/>
       <use xlink:href="#DejaVuSans-34" transform="translate(95.410156 0)"/>
      </g>
     </g>
    </g>
    <g id="ytick_18">
     <g id="line2d_68">
      <g>
       <use xlink:href="#m60a542bf4a" x="55.779096" y="722.784507" style="stroke: #000000; stroke-width: 0.8"/>
      </g>
     </g>
     <g id="text_57">
      <!-- 0.6 -->
      <g transform="translate(32.875971 726.583725) scale(0.1 -0.1)">
       <use xlink:href="#DejaVuSans-30"/>
       <use xlink:href="#DejaVuSans-2e" transform="translate(63.623047 0)"/>
       <use xlink:href="#DejaVuSans-36" transform="translate(95.410156 0)"/>
      </g>
     </g>
    </g>
    <g id="ytick_19">
     <g id="line2d_69">
      <g>
       <use xlink:href="#m60a542bf4a" x="55.779096" y="689.699342" style="stroke: #000000; stroke-width: 0.8"/>
      </g>
     </g>
     <g id="text_58">
      <!-- 0.8 -->
      <g transform="translate(32.875971 693.498561) scale(0.1 -0.1)">
       <use xlink:href="#DejaVuSans-30"/>
       <use xlink:href="#DejaVuSans-2e" transform="translate(63.623047 0)"/>
       <use xlink:href="#DejaVuSans-38" transform="translate(95.410156 0)"/>
      </g>
     </g>
    </g>
    <g id="ytick_20">
     <g id="line2d_70">
      <g>
       <use xlink:href="#m60a542bf4a" x="55.779096" y="656.614178" style="stroke: #000000; stroke-width: 0.8"/>
      </g>
     </g>
     <g id="text_59">
      <!-- 1.0 -->
      <g transform="translate(32.875971 660.413397) scale(0.1 -0.1)">
       <use xlink:href="#DejaVuSans-31"/>
       <use xlink:href="#DejaVuSans-2e" transform="translate(63.623047 0)"/>
       <use xlink:href="#DejaVuSans-30" transform="translate(95.410156 0)"/>
      </g>
     </g>
    </g>
    <g id="ytick_21">
     <g id="line2d_71">
      <g>
       <use xlink:href="#m60a542bf4a" x="55.779096" y="623.529013" style="stroke: #000000; stroke-width: 0.8"/>
      </g>
     </g>
     <g id="text_60">
      <!-- 1.2 -->
      <g transform="translate(32.875971 627.328232) scale(0.1 -0.1)">
       <use xlink:href="#DejaVuSans-31"/>
       <use xlink:href="#DejaVuSans-2e" transform="translate(63.623047 0)"/>
       <use xlink:href="#DejaVuSans-32" transform="translate(95.410156 0)"/>
      </g>
     </g>
    </g>
    <g id="ytick_22">
     <g id="line2d_72">
      <g>
       <use xlink:href="#m60a542bf4a" x="55.779096" y="590.443849" style="stroke: #000000; stroke-width: 0.8"/>
      </g>
     </g>
     <g id="text_61">
      <!-- 1.4 -->
      <g transform="translate(32.875971 594.243068) scale(0.1 -0.1)">
       <use xlink:href="#DejaVuSans-31"/>
       <use xlink:href="#DejaVuSans-2e" transform="translate(63.623047 0)"/>
       <use xlink:href="#DejaVuSans-34" transform="translate(95.410156 0)"/>
      </g>
     </g>
    </g>
    <g id="text_62">
     <!-- Period-averaged resource (nutrient) -->
     <g transform="translate(26.796284 794.792057) rotate(-90) scale(0.1 -0.1)">
      <use xlink:href="#DejaVuSans-50"/>
      <use xlink:href="#DejaVuSans-65" transform="translate(56.677734 0)"/>
      <use xlink:href="#DejaVuSans-72" transform="translate(118.201172 0)"/>
      <use xlink:href="#DejaVuSans-69" transform="translate(159.314453 0)"/>
      <use xlink:href="#DejaVuSans-6f" transform="translate(187.097656 0)"/>
      <use xlink:href="#DejaVuSans-64" transform="translate(248.279297 0)"/>
      <use xlink:href="#DejaVuSans-2d" transform="translate(311.755859 0)"/>
      <use xlink:href="#DejaVuSans-61" transform="translate(347.839844 0)"/>
      <use xlink:href="#DejaVuSans-76" transform="translate(409.119141 0)"/>
      <use xlink:href="#DejaVuSans-65" transform="translate(468.298828 0)"/>
      <use xlink:href="#DejaVuSans-72" transform="translate(529.822266 0)"/>
      <use xlink:href="#DejaVuSans-61" transform="translate(570.935547 0)"/>
      <use xlink:href="#DejaVuSans-67" transform="translate(632.214844 0)"/>
      <use xlink:href="#DejaVuSans-65" transform="translate(695.691406 0)"/>
      <use xlink:href="#DejaVuSans-64" transform="translate(757.214844 0)"/>
      <use xlink:href="#DejaVuSans-20" transform="translate(820.691406 0)"/>
      <use xlink:href="#DejaVuSans-72" transform="translate(852.478516 0)"/>
      <use xlink:href="#DejaVuSans-65" transform="translate(891.341797 0)"/>
      <use xlink:href="#DejaVuSans-73" transform="translate(952.865234 0)"/>
      <use xlink:href="#DejaVuSans-6f" transform="translate(1004.964844 0)"/>
      <use xlink:href="#DejaVuSans-75" transform="translate(1066.146484 0)"/>
      <use xlink:href="#DejaVuSans-72" transform="translate(1129.525391 0)"/>
      <use xlink:href="#DejaVuSans-63" transform="translate(1168.388672 0)"/>
      <use xlink:href="#DejaVuSans-65" transform="translate(1223.369141 0)"/>
      <use xlink:href="#DejaVuSans-20" transform="translate(1284.892578 0)"/>
      <use xlink:href="#DejaVuSans-28" transform="translate(1316.679688 0)"/>
      <use xlink:href="#DejaVuSans-6e" transform="translate(1355.693359 0)"/>
      <use xlink:href="#DejaVuSans-75" transform="translate(1419.072266 0)"/>
      <use xlink:href="#DejaVuSans-74" transform="translate(1482.451172 0)"/>
      <use xlink:href="#DejaVuSans-72" transform="translate(1521.660156 0)"/>
      <use xlink:href="#DejaVuSans-69" transform="translate(1562.773438 0)"/>
      <use xlink:href="#DejaVuSans-65" transform="translate(1590.556641 0)"/>
      <use xlink:href="#DejaVuSans-6e" transform="translate(1652.080078 0)"/>
      <use xlink:href="#DejaVuSans-74" transform="translate(1715.458984 0)"/>
      <use xlink:href="#DejaVuSans-29" transform="translate(1754.667969 0)"/>
     </g>
    </g>
   </g>
   <g id="line2d_73">
    <path d="M 78.934592 692.567297 
L 93.873621 630.210832 
L 108.812651 594.233567 
L 123.75168 619.643954 
L 138.69071 648.009554 
L 153.629739 666.324646 
L 168.568768 678.093254 
L 183.507798 686.121592 
L 198.446827 691.837409 
L 213.385857 696.061503 
L 228.324886 699.284042 
L 243.263916 701.809706 
L 258.202945 703.834388 
L 273.141974 705.489739 
L 288.081004 706.864378 
L 303.020033 708.021976 
L 317.959063 709.008685 
L 332.898092 709.858761 
L 347.837122 710.597444 
L 362.776151 711.245319 
L 377.715181 711.817512 
L 392.65421 712.326362 
L 407.593239 712.781951 
L 422.532269 713.192225 
L 437.471298 713.563741 
L 452.410328 713.901657 
L 467.349357 714.210337 
L 482.288387 714.493531 
L 497.227416 714.754356 
L 512.166445 714.995716 
L 527.105475 715.219897 
L 542.044504 715.428878 
" clip-path="url(#p64c33fa5b6)" style="fill: none; stroke: #1f77b4; stroke-width: 1.5; stroke-linecap: square"/>
   </g>
   <g id="patch_15">
    <path d="M 55.779096 822.04 
L 55.779096 588.173802 
" style="fill: none; stroke: #000000; stroke-width: 0.8; stroke-linejoin: miter; stroke-linecap: square"/>
   </g>
   <g id="patch_16">
    <path d="M 565.2 822.04 
L 565.2 588.173802 
" style="fill: none; stroke: #000000; stroke-width: 0.8; stroke-linejoin: miter; stroke-linecap: square"/>
   </g>
   <g id="patch_17">
    <path d="M 55.779096 822.04 
L 565.2 822.04 
" style="fill: none; stroke: #000000; stroke-width: 0.8; stroke-linejoin: miter; stroke-linecap: square"/>
   </g>
   <g id="patch_18">
    <path d="M 55.779096 588.173802 
L 565.2 588.173802 
" style="fill: none; stroke: #000000; stroke-width: 0.8; stroke-linejoin: miter; stroke-linecap: square"/>
   </g>
  </g>
  <g id="text_63">
   <!-- Mixing every 8.0 days: Period-Averaged Time Series -->
   <g transform="translate(131.890312 26.398125) scale(0.12 -0.12)">
    <defs>
     <path id="DejaVuSans-4d" d="M 628 4666 
L 1569 4666 
L 2759 1491 
L 3956 4666 
L 4897 4666 
L 4897 0 
L 4281 0 
L 4281 4097 
L 3078 897 
L 2444 897 
L 1241 4097 
L 1241 0 
L 628 0 
L 628 4666 
z
" transform="scale(0.015625)"/>
     <path id="DejaVuSans-78" d="M 3513 3500 
L 2247 1797 
L 3578 0 
L 2900 0 
L 1881 1375 
L 863 0 
L 184 0 
L 1544 1831 
L 300 3500 
L 978 3500 
L 1906 2253 
L 2834 3500 
L 3513 3500 
z
" transform="scale(0.015625)"/>
     <path id="DejaVuSans-3a" d="M 750 794 
L 1409 794 
L 1409 0 
L 750 0 
L 750 794 
z
M 750 3309 
L 1409 3309 
L 1409 2516 
L 750 2516 
L 750 3309 
z
" transform="scale(0.015625)"/>
     <path id="DejaVuSans-41" d="M 2188 4044 
L 1331 1722 
L 3047 1722 
L 2188 4044 
z
M 1831 4666 
L 2547 4666 
L 4325 0 
L 3669 0 
L 3244 1197 
L 1141 1197 
L 716 0 
L 50 0 
L 1831 4666 
z
" transform="scale(0.015625)"/>
     <path id="DejaVuSans-53" d="M 3425 4513 
L 3425 3897 
Q 3066 4069 2747 4153 
Q 2428 4238 2131 4238 
Q 1616 4238 1336 4038 
Q 1056 3838 1056 3469 
Q 1056 3159 1242 3001 
Q 1428 2844 1947 2747 
L 2328 2669 
Q 3034 2534 3370 2195 
Q 3706 1856 3706 1288 
Q 3706 609 3251 259 
Q 2797 -91 1919 -91 
Q 1588 -91 1214 -16 
Q 841 59 441 206 
L 441 856 
Q 825 641 1194 531 
Q 1563 422 1919 422 
Q 2459 422 2753 634 
Q 3047 847 3047 1241 
Q 3047 1584 2836 1778 
Q 2625 1972 2144 2069 
L 1759 2144 
Q 1053 2284 737 2584 
Q 422 2884 422 3419 
Q 422 4038 858 4394 
Q 1294 4750 2059 4750 
Q 2388 4750 2728 4690 
Q 3069 4631 3425 4513 
z
" transform="scale(0.015625)"/>
    </defs>
    <use xlink:href="#DejaVuSans-4d"/>
    <use xlink:href="#DejaVuSans-69" transform="translate(86.279297 0)"/>
    <use xlink:href="#DejaVuSans-78" transform="translate(114.0625 0)"/>
    <use xlink:href="#DejaVuSans-69" transform="translate(173.242188 0)"/>
    <use xlink:href="#DejaVuSans-6e" transform="translate(201.025391 0)"/>
    <use xlink:href="#DejaVuSans-67" transform="translate(264.404297 0)"/>
    <use xlink:href="#DejaVuSans-20" transform="translate(327.880859 0)"/>
    <use xlink:href="#DejaVuSans-65" transform="translate(359.667969 0)"/>
    <use xlink:href="#DejaVuSans-76" transform="translate(421.191406 0)"/>
    <use xlink:href="#DejaVuSans-65" transform="translate(480.371094 0)"/>
    <use xlink:href="#DejaVuSans-72" transform="translate(541.894531 0)"/>
    <use xlink:href="#DejaVuSans-79" transform="translate(583.007812 0)"/>
    <use xlink:href="#DejaVuSans-20" transform="translate(642.1875 0)"/>
    <use xlink:href="#DejaVuSans-38" transform="translate(673.974609 0)"/>
    <use xlink:href="#DejaVuSans-2e" transform="translate(737.597656 0)"/>
    <use xlink:href="#DejaVuSans-30" transform="translate(769.384766 0)"/>
    <use xlink:href="#DejaVuSans-20" transform="translate(833.007812 0)"/>
    <use xlink:href="#DejaVuSans-64" transform="translate(864.794922 0)"/>
    <use xlink:href="#DejaVuSans-61" transform="translate(928.271484 0)"/>
    <use xlink:href="#DejaVuSans-79" transform="translate(989.550781 0)"/>
    <use xlink:href="#DejaVuSans-73" transform="translate(1048.730469 0)"/>
    <use xlink:href="#DejaVuSans-3a" transform="translate(1100.830078 0)"/>
    <use xlink:href="#DejaVuSans-20" transform="translate(1134.521484 0)"/>
    <use xlink:href="#DejaVuSans-50" transform="translate(1166.308594 0)"/>
    <use xlink:href="#DejaVuSans-65" transform="translate(1222.986328 0)"/>
    <use xlink:href="#DejaVuSans-72" transform="translate(1284.509766 0)"/>
    <use xlink:href="#DejaVuSans-69" transform="translate(1325.623047 0)"/>
    <use xlink:href="#DejaVuSans-6f" transform="translate(1353.40625 0)"/>
    <use xlink:href="#DejaVuSans-64" transform="translate(1414.587891 0)"/>
    <use xlink:href="#DejaVuSans-2d" transform="translate(1478.064453 0)"/>
    <use xlink:href="#DejaVuSans-41" transform="translate(1511.898438 0)"/>
    <use xlink:href="#DejaVuSans-76" transform="translate(1574.431641 0)"/>
    <use xlink:href="#DejaVuSans-65" transform="translate(1633.611328 0)"/>
    <use xlink:href="#DejaVuSans-72" transform="translate(1695.134766 0)"/>
    <use xlink:href="#DejaVuSans-61" transform="translate(1736.248047 0)"/>
    <use xlink:href="#DejaVuSans-67" transform="translate(1797.527344 0)"/>
    <use xlink:href="#DejaVuSans-65" transform="translate(1861.003906 0)"/>
    <use xlink:href="#DejaVuSans-64" transform="translate(1922.527344 0)"/>
    <use xlink:href="#DejaVuSans-20" transform="translate(1986.003906 0)"/>
    <use xlink:href="#DejaVuSans-54" transform="translate(2017.791016 0)"/>
    <use xlink:href="#DejaVuSans-69" transform="translate(2075.75 0)"/>
    <use xlink:href="#DejaVuSans-6d" transform="translate(2103.533203 0)"/>
    <use xlink:href="#DejaVuSans-65" transform="translate(2200.945312 0)"/>
    <use xlink:href="#DejaVuSans-20" transform="translate(2262.46875 0)"/>
    <use xlink:href="#DejaVuSans-53" transform="translate(2294.255859 0)"/>
    <use xlink:href="#DejaVuSans-65" transform="translate(2357.732422 0)"/>
    <use xlink:href="#DejaVuSans-72" transform="translate(2419.255859 0)"/>
    <use xlink:href="#DejaVuSans-69" transform="translate(2460.369141 0)"/>
    <use xlink:href="#DejaVuSans-65" transform="translate(2488.152344 0)"/>
    <use xlink:href="#DejaVuSans-73" transform="translate(2549.675781 0)"/>
   </g>
  </g>
 </g>
 <defs>
  <clipPath id="pc90ae680f0">
   <rect x="55.779096" y="32.4" width="509.420904" height="233.866198"/>
  </clipPath>
  <clipPath id="p6d06a49ed0">
   <rect x="55.779096" y="310.286901" width="509.420904" height="233.866198"/>
  </clipPath>
  <clipPath id="p64c33fa5b6">
   <rect x="55.779096" y="588.173802" width="509.420904" height="233.866198"/>
  </clipPath>
 </defs>
</svg>
