<?xml version="1.0" encoding="utf-8" standalone="no"?>
<!DOCTYPE svg PUBLIC "-//W3C//DTD SVG 1.1//EN"
  "http://www.w3.org/Graphics/SVG/1.1/DTD/svg11.dtd">
<svg xmlns:xlink="http://www.w3.org/1999/xlink" width="576pt" height="864pt" viewBox="0 0 576 864" xmlns="http://www.w3.org/2000/svg" version="1.1">
 <metadata>
  <rdf:RDF xmlns:dc="http://purl.org/dc/elements/1.1/" xmlns:cc="http://creativecommons.org/ns#" xmlns:rdf="http://www.w3.org/1999/02/22-rdf-syntax-ns#">
   <cc:Work>
    <dc:type rdf:resource="http://purl.org/dc/dcmitype/StillImage"/>
    <dc:date>2025-12-25T16:23:14.443444</dc:date>
    <dc:format>image/svg+xml</dc:format>
    <dc:creator>
     <cc:Agent>
      <dc:title>Matplotlib v3.10.6, https://matplotlib.org/</dc:title>
     </cc:Agent>
    </dc:creator>
   </cc:Work>
  </rdf:RDF>
 </metadata>
 <defs>
  <style type="text/css">*{stroke-linejoin: round; stroke-linecap: butt}</style>
 </defs>
 <g id="figure_1">
  <g id="patch_1">
   <path d="M 0 864 
L 576 864 
L 576 0 
L 0 0 
z
" style="fill: #ffffff"/>
  </g>
  <g id="axes_1">
   <g id="patch_2">
    <path d="M 55.779096 265.344787 
L 565.2 265.344787 
L 565.2 32.4 
L 55.779096 32.4 
z
" style="fill: #ffffff"/>
   </g>
   <g id="matplotlib.axis_1">
    <g id="xtick_1">
     <g id="line2d_1">
      <defs>
       <path id="mc233e30695" d="M 0 0 
L 0 3.5 
" style="stroke: #000000; stroke-width: 0.8"/>
      </defs>
      <g>
       <use xlink:href="#mc233e30695" x="71.465077" y="265.344787" style="stroke: #000000; stroke-width: 0.8"/>
      </g>
     </g>
     <g id="text_1">
      <!-- 0 -->
      <g transform="translate(68.283827 279.943225) scale(0.1 -0.1)">
       <defs>
        <path id="DejaVuSans-30" d="M 2034 4250 
Q 1547 4250 1301 3770 
Q 1056 3291 1056 2328 
Q 1056 1369 1301 889 
Q 1547 409 2034 409 
Q 2525 409 2770 889 
Q 3016 1369 3016 2328 
Q 3016 3291 2770 3770 
Q 2525 4250 2034 4250 
z
M 2034 4750 
Q 2819 4750 3233 4129 
Q 3647 3509 3647 2328 
Q 3647 1150 3233 529 
Q 2819 -91 2034 -91 
Q 1250 -91 836 529 
Q 422 1150 422 2328 
Q 422 3509 836 4129 
Q 1250 4750 2034 4750 
z
" transform="scale(0.015625)"/>
       </defs>
       <use xlink:href="#DejaVuSans-30"/>
      </g>
     </g>
    </g>
    <g id="xtick_2">
     <g id="line2d_2">
      <g>
       <use xlink:href="#mc233e30695" x="164.834011" y="265.344787" style="stroke: #000000; stroke-width: 0.8"/>
      </g>
     </g>
     <g id="text_2">
      <!-- 50 -->
      <g transform="translate(158.471511 279.943225) scale(0.1 -0.1)">
       <defs>
        <path id="DejaVuSans-35" d="M 691 4666 
L 3169 4666 
L 3169 4134 
L 1269 4134 
L 1269 2991 
Q 1406 3038 1543 3061 
Q 1681 3084 1819 3084 
Q 2600 3084 3056 2656 
Q 3513 2228 3513 1497 
Q 3513 744 3044 326 
Q 2575 -91 1722 -91 
Q 1428 -91 1123 -41 
Q 819 9 494 109 
L 494 744 
Q 775 591 1075 516 
Q 1375 441 1709 441 
Q 2250 441 2565 725 
Q 2881 1009 2881 1497 
Q 2881 1984 2565 2268 
Q 2250 2553 1709 2553 
Q 1456 2553 1204 2497 
Q 953 2441 691 2322 
L 691 4666 
z
" transform="scale(0.015625)"/>
       </defs>
       <use xlink:href="#DejaVuSans-35"/>
       <use xlink:href="#DejaVuSans-30" transform="translate(63.623047 0)"/>
      </g>
     </g>
    </g>
    <g id="xtick_3">
     <g id="line2d_3">
      <g>
       <use xlink:href="#mc233e30695" x="258.202945" y="265.344787" style="stroke: #000000; stroke-width: 0.8"/>
      </g>
     </g>
     <g id="text_3">
      <!-- 100 -->
      <g transform="translate(248.659195 279.943225) scale(0.1 -0.1)">
       <defs>
        <path id="DejaVuSans-31" d="M 794 531 
L 1825 531 
L 1825 4091 
L 703 3866 
L 703 4441 
L 1819 4666 
L 2450 4666 
L 2450 531 
L 3481 531 
L 3481 0 
L 794 0 
L 794 531 
z
" transform="scale(0.015625)"/>
       </defs>
       <use xlink:href="#DejaVuSans-31"/>
       <use xlink:href="#DejaVuSans-30" transform="translate(63.623047 0)"/>
       <use xlink:href="#DejaVuSans-30" transform="translate(127.246094 0)"/>
      </g>
     </g>
    </g>
    <g id="xtick_4">
     <g id="line2d_4">
      <g>
       <use xlink:href="#mc233e30695" x="351.571879" y="265.344787" style="stroke: #000000; stroke-width: 0.8"/>
      </g>
     </g>
     <g id="text_4">
      <!-- 150 -->
      <g transform="translate(342.028129 279.943225) scale(0.1 -0.1)">
       <use xlink:href="#DejaVuSans-31"/>
       <use xlink:href="#DejaVuSans-35" transform="translate(63.623047 0)"/>
       <use xlink:href="#DejaVuSans-30" transform="translate(127.246094 0)"/>
      </g>
     </g>
    </g>
    <g id="xtick_5">
     <g id="line2d_5">
      <g>
       <use xlink:href="#mc233e30695" x="444.940813" y="265.344787" style="stroke: #000000; stroke-width: 0.8"/>
      </g>
     </g>
     <g id="text_5">
      <!-- 200 -->
      <g transform="translate(435.397063 279.943225) scale(0.1 -0.1)">
       <defs>
        <path id="DejaVuSans-32" d="M 1228 531 
L 3431 531 
L 3431 0 
L 469 0 
L 469 531 
Q 828 903 1448 1529 
Q 2069 2156 2228 2338 
Q 2531 2678 2651 2914 
Q 2772 3150 2772 3378 
Q 2772 3750 2511 3984 
Q 2250 4219 1831 4219 
Q 1534 4219 1204 4116 
Q 875 4013 500 3803 
L 500 4441 
Q 881 4594 1212 4672 
Q 1544 4750 1819 4750 
Q 2544 4750 2975 4387 
Q 3406 4025 3406 3419 
Q 3406 3131 3298 2873 
Q 3191 2616 2906 2266 
Q 2828 2175 2409 1742 
Q 1991 1309 1228 531 
z
" transform="scale(0.015625)"/>
       </defs>
       <use xlink:href="#DejaVuSans-32"/>
       <use xlink:href="#DejaVuSans-30" transform="translate(63.623047 0)"/>
       <use xlink:href="#DejaVuSans-30" transform="translate(127.246094 0)"/>
      </g>
     </g>
    </g>
    <g id="xtick_6">
     <g id="line2d_6">
      <g>
       <use xlink:href="#mc233e30695" x="538.309747" y="265.344787" style="stroke: #000000; stroke-width: 0.8"/>
      </g>
     </g>
     <g id="text_6">
      <!-- 250 -->
      <g transform="translate(528.765997 279.943225) scale(0.1 -0.1)">
       <use xlink:href="#DejaVuSans-32"/>
       <use xlink:href="#DejaVuSans-35" transform="translate(63.623047 0)"/>
       <use xlink:href="#DejaVuSans-30" transform="translate(127.246094 0)"/>
      </g>
     </g>
    </g>
    <g id="text_7">
     <!-- Time (days) -->
     <g transform="translate(280.962986 293.62135) scale(0.1 -0.1)">
      <defs>
       <path id="DejaVuSans-54" d="M -19 4666 
L 3928 4666 
L 3928 4134 
L 2272 4134 
L 2272 0 
L 1638 0 
L 1638 4134 
L -19 4134 
L -19 4666 
z
" transform="scale(0.015625)"/>
       <path id="DejaVuSans-69" d="M 603 3500 
L 1178 3500 
L 1178 0 
L 603 0 
L 603 3500 
z
M 603 4863 
L 1178 4863 
L 1178 4134 
L 603 4134 
L 603 4863 
z
" transform="scale(0.015625)"/>
       <path id="DejaVuSans-6d" d="M 3328 2828 
Q 3544 3216 3844 3400 
Q 4144 3584 4550 3584 
Q 5097 3584 5394 3201 
Q 5691 2819 5691 2113 
L 5691 0 
L 5113 0 
L 5113 2094 
Q 5113 2597 4934 2840 
Q 4756 3084 4391 3084 
Q 3944 3084 3684 2787 
Q 3425 2491 3425 1978 
L 3425 0 
L 2847 0 
L 2847 2094 
Q 2847 2600 2669 2842 
Q 2491 3084 2119 3084 
Q 1678 3084 1418 2786 
Q 1159 2488 1159 1978 
L 1159 0 
L 581 0 
L 581 3500 
L 1159 3500 
L 1159 2956 
Q 1356 3278 1631 3431 
Q 1906 3584 2284 3584 
Q 2666 3584 2933 3390 
Q 3200 3197 3328 2828 
z
" transform="scale(0.015625)"/>
       <path id="DejaVuSans-65" d="M 3597 1894 
L 3597 1613 
L 953 1613 
Q 991 1019 1311 708 
Q 1631 397 2203 397 
Q 2534 397 2845 478 
Q 3156 559 3463 722 
L 3463 178 
Q 3153 47 2828 -22 
Q 2503 -91 2169 -91 
Q 1331 -91 842 396 
Q 353 884 353 1716 
Q 353 2575 817 3079 
Q 1281 3584 2069 3584 
Q 2775 3584 3186 3129 
Q 3597 2675 3597 1894 
z
M 3022 2063 
Q 3016 2534 2758 2815 
Q 2500 3097 2075 3097 
Q 1594 3097 1305 2825 
Q 1016 2553 972 2059 
L 3022 2063 
z
" transform="scale(0.015625)"/>
       <path id="DejaVuSans-20" transform="scale(0.015625)"/>
       <path id="DejaVuSans-28" d="M 1984 4856 
Q 1566 4138 1362 3434 
Q 1159 2731 1159 2009 
Q 1159 1288 1364 580 
Q 1569 -128 1984 -844 
L 1484 -844 
Q 1016 -109 783 600 
Q 550 1309 550 2009 
Q 550 2706 781 3412 
Q 1013 4119 1484 4856 
L 1984 4856 
z
" transform="scale(0.015625)"/>
       <path id="DejaVuSans-64" d="M 2906 2969 
L 2906 4863 
L 3481 4863 
L 3481 0 
L 2906 0 
L 2906 525 
Q 2725 213 2448 61 
Q 2172 -91 1784 -91 
Q 1150 -91 751 415 
Q 353 922 353 1747 
Q 353 2572 751 3078 
Q 1150 3584 1784 3584 
Q 2172 3584 2448 3432 
Q 2725 3281 2906 2969 
z
M 947 1747 
Q 947 1113 1208 752 
Q 1469 391 1925 391 
Q 2381 391 2643 752 
Q 2906 1113 2906 1747 
Q 2906 2381 2643 2742 
Q 2381 3103 1925 3103 
Q 1469 3103 1208 2742 
Q 947 2381 947 1747 
z
" transform="scale(0.015625)"/>
       <path id="DejaVuSans-61" d="M 2194 1759 
Q 1497 1759 1228 1600 
Q 959 1441 959 1056 
Q 959 750 1161 570 
Q 1363 391 1709 391 
Q 2188 391 2477 730 
Q 2766 1069 2766 1631 
L 2766 1759 
L 2194 1759 
z
M 3341 1997 
L 3341 0 
L 2766 0 
L 2766 531 
Q 2569 213 2275 61 
Q 1981 -91 1556 -91 
Q 1019 -91 701 211 
Q 384 513 384 1019 
Q 384 1609 779 1909 
Q 1175 2209 1959 2209 
L 2766 2209 
L 2766 2266 
Q 2766 2663 2505 2880 
Q 2244 3097 1772 3097 
Q 1472 3097 1187 3025 
Q 903 2953 641 2809 
L 641 3341 
Q 956 3463 1253 3523 
Q 1550 3584 1831 3584 
Q 2591 3584 2966 3190 
Q 3341 2797 3341 1997 
z
" transform="scale(0.015625)"/>
       <path id="DejaVuSans-79" d="M 2059 -325 
Q 1816 -950 1584 -1140 
Q 1353 -1331 966 -1331 
L 506 -1331 
L 506 -850 
L 844 -850 
Q 1081 -850 1212 -737 
Q 1344 -625 1503 -206 
L 1606 56 
L 191 3500 
L 800 3500 
L 1894 763 
L 2988 3500 
L 3597 3500 
L 2059 -325 
z
" transform="scale(0.015625)"/>
       <path id="DejaVuSans-73" d="M 2834 3397 
L 2834 2853 
Q 2591 2978 2328 3040 
Q 2066 3103 1784 3103 
Q 1356 3103 1142 2972 
Q 928 2841 928 2578 
Q 928 2378 1081 2264 
Q 1234 2150 1697 2047 
L 1894 2003 
Q 2506 1872 2764 1633 
Q 3022 1394 3022 966 
Q 3022 478 2636 193 
Q 2250 -91 1575 -91 
Q 1294 -91 989 -36 
Q 684 19 347 128 
L 347 722 
Q 666 556 975 473 
Q 1284 391 1588 391 
Q 1994 391 2212 530 
Q 2431 669 2431 922 
Q 2431 1156 2273 1281 
Q 2116 1406 1581 1522 
L 1381 1569 
Q 847 1681 609 1914 
Q 372 2147 372 2553 
Q 372 3047 722 3315 
Q 1072 3584 1716 3584 
Q 2034 3584 2315 3537 
Q 2597 3491 2834 3397 
z
" transform="scale(0.015625)"/>
       <path id="DejaVuSans-29" d="M 513 4856 
L 1013 4856 
Q 1481 4119 1714 3412 
Q 1947 2706 1947 2009 
Q 1947 1309 1714 600 
Q 1481 -109 1013 -844 
L 513 -844 
Q 928 -128 1133 580 
Q 1338 1288 1338 2009 
Q 1338 2731 1133 3434 
Q 928 4138 513 4856 
z
" transform="scale(0.015625)"/>
      </defs>
      <use xlink:href="#DejaVuSans-54"/>
      <use xlink:href="#DejaVuSans-69" transform="translate(57.958984 0)"/>
      <use xlink:href="#DejaVuSans-6d" transform="translate(85.742188 0)"/>
      <use xlink:href="#DejaVuSans-65" transform="translate(183.154297 0)"/>
      <use xlink:href="#DejaVuSans-20" transform="translate(244.677734 0)"/>
      <use xlink:href="#DejaVuSans-28" transform="translate(276.464844 0)"/>
      <use xlink:href="#DejaVuSans-64" transform="translate(315.478516 0)"/>
      <use xlink:href="#DejaVuSans-61" transform="translate(378.955078 0)"/>
      <use xlink:href="#DejaVuSans-79" transform="translate(440.234375 0)"/>
      <use xlink:href="#DejaVuSans-73" transform="translate(499.414062 0)"/>
      <use xlink:href="#DejaVuSans-29" transform="translate(551.513672 0)"/>
     </g>
    </g>
   </g>
   <g id="matplotlib.axis_2">
    <g id="ytick_1">
     <g id="line2d_7">
      <defs>
       <path id="m7885bdc9cd" d="M 0 0 
L -3.5 0 
" style="stroke: #000000; stroke-width: 0.8"/>
      </defs>
      <g>
       <use xlink:href="#m7885bdc9cd" x="55.779096" y="247.232013" style="stroke: #000000; stroke-width: 0.8"/>
      </g>
     </g>
     <g id="text_8">
      <!-- 2 -->
      <g transform="translate(42.416596 251.031231) scale(0.1 -0.1)">
       <use xlink:href="#DejaVuSans-32"/>
      </g>
     </g>
    </g>
    <g id="ytick_2">
     <g id="line2d_8">
      <g>
       <use xlink:href="#m7885bdc9cd" x="55.779096" y="211.006463" style="stroke: #000000; stroke-width: 0.8"/>
      </g>
     </g>
     <g id="text_9">
      <!-- 4 -->
      <g transform="translate(42.416596 214.805682) scale(0.1 -0.1)">
       <defs>
        <path id="DejaVuSans-34" d="M 2419 4116 
L 825 1625 
L 2419 1625 
L 2419 4116 
z
M 2253 4666 
L 3047 4666 
L 3047 1625 
L 3713 1625 
L 3713 1100 
L 3047 1100 
L 3047 0 
L 2419 0 
L 2419 1100 
L 313 1100 
L 313 1709 
L 2253 4666 
z
" transform="scale(0.015625)"/>
       </defs>
       <use xlink:href="#DejaVuSans-34"/>
      </g>
     </g>
    </g>
    <g id="ytick_3">
     <g id="line2d_9">
      <g>
       <use xlink:href="#m7885bdc9cd" x="55.779096" y="174.780914" style="stroke: #000000; stroke-width: 0.8"/>
      </g>
     </g>
     <g id="text_10">
      <!-- 6 -->
      <g transform="translate(42.416596 178.580132) scale(0.1 -0.1)">
       <defs>
        <path id="DejaVuSans-36" d="M 2113 2584 
Q 1688 2584 1439 2293 
Q 1191 2003 1191 1497 
Q 1191 994 1439 701 
Q 1688 409 2113 409 
Q 2538 409 2786 701 
Q 3034 994 3034 1497 
Q 3034 2003 2786 2293 
Q 2538 2584 2113 2584 
z
M 3366 4563 
L 3366 3988 
Q 3128 4100 2886 4159 
Q 2644 4219 2406 4219 
Q 1781 4219 1451 3797 
Q 1122 3375 1075 2522 
Q 1259 2794 1537 2939 
Q 1816 3084 2150 3084 
Q 2853 3084 3261 2657 
Q 3669 2231 3669 1497 
Q 3669 778 3244 343 
Q 2819 -91 2113 -91 
Q 1303 -91 875 529 
Q 447 1150 447 2328 
Q 447 3434 972 4092 
Q 1497 4750 2381 4750 
Q 2619 4750 2861 4703 
Q 3103 4656 3366 4563 
z
" transform="scale(0.015625)"/>
       </defs>
       <use xlink:href="#DejaVuSans-36"/>
      </g>
     </g>
    </g>
    <g id="ytick_4">
     <g id="line2d_10">
      <g>
       <use xlink:href="#m7885bdc9cd" x="55.779096" y="138.555364" style="stroke: #000000; stroke-width: 0.8"/>
      </g>
     </g>
     <g id="text_11">
      <!-- 8 -->
      <g transform="translate(42.416596 142.354583) scale(0.1 -0.1)">
       <defs>
        <path id="DejaVuSans-38" d="M 2034 2216 
Q 1584 2216 1326 1975 
Q 1069 1734 1069 1313 
Q 1069 891 1326 650 
Q 1584 409 2034 409 
Q 2484 409 2743 651 
Q 3003 894 3003 1313 
Q 3003 1734 2745 1975 
Q 2488 2216 2034 2216 
z
M 1403 2484 
Q 997 2584 770 2862 
Q 544 3141 544 3541 
Q 544 4100 942 4425 
Q 1341 4750 2034 4750 
Q 2731 4750 3128 4425 
Q 3525 4100 3525 3541 
Q 3525 3141 3298 2862 
Q 3072 2584 2669 2484 
Q 3125 2378 3379 2068 
Q 3634 1759 3634 1313 
Q 3634 634 3220 271 
Q 2806 -91 2034 -91 
Q 1263 -91 848 271 
Q 434 634 434 1313 
Q 434 1759 690 2068 
Q 947 2378 1403 2484 
z
M 1172 3481 
Q 1172 3119 1398 2916 
Q 1625 2713 2034 2713 
Q 2441 2713 2670 2916 
Q 2900 3119 2900 3481 
Q 2900 3844 2670 4047 
Q 2441 4250 2034 4250 
Q 1625 4250 1398 4047 
Q 1172 3844 1172 3481 
z
" transform="scale(0.015625)"/>
       </defs>
       <use xlink:href="#DejaVuSans-38"/>
      </g>
     </g>
    </g>
    <g id="ytick_5">
     <g id="line2d_11">
      <g>
       <use xlink:href="#m7885bdc9cd" x="55.779096" y="102.329815" style="stroke: #000000; stroke-width: 0.8"/>
      </g>
     </g>
     <g id="text_12">
      <!-- 10 -->
      <g transform="translate(36.054096 106.129033) scale(0.1 -0.1)">
       <use xlink:href="#DejaVuSans-31"/>
       <use xlink:href="#DejaVuSans-30" transform="translate(63.623047 0)"/>
      </g>
     </g>
    </g>
    <g id="ytick_6">
     <g id="line2d_12">
      <g>
       <use xlink:href="#m7885bdc9cd" x="55.779096" y="66.104265" style="stroke: #000000; stroke-width: 0.8"/>
      </g>
     </g>
     <g id="text_13">
      <!-- 12 -->
      <g transform="translate(36.054096 69.903484) scale(0.1 -0.1)">
       <use xlink:href="#DejaVuSans-31"/>
       <use xlink:href="#DejaVuSans-32" transform="translate(63.623047 0)"/>
      </g>
     </g>
    </g>
    <g id="text_14">
     <!-- Period-averaged fractional quotas -->
     <g transform="translate(29.974409 233.777862) rotate(-90) scale(0.1 -0.1)">
      <defs>
       <path id="DejaVuSans-50" d="M 1259 4147 
L 1259 2394 
L 2053 2394 
Q 2494 2394 2734 2622 
Q 2975 2850 2975 3272 
Q 2975 3691 2734 3919 
Q 2494 4147 2053 4147 
L 1259 4147 
z
M 628 4666 
L 2053 4666 
Q 2838 4666 3239 4311 
Q 3641 3956 3641 3272 
Q 3641 2581 3239 2228 
Q 2838 1875 2053 1875 
L 1259 1875 
L 1259 0 
L 628 0 
L 628 4666 
z
" transform="scale(0.015625)"/>
       <path id="DejaVuSans-72" d="M 2631 2963 
Q 2534 3019 2420 3045 
Q 2306 3072 2169 3072 
Q 1681 3072 1420 2755 
Q 1159 2438 1159 1844 
L 1159 0 
L 581 0 
L 581 3500 
L 1159 3500 
L 1159 2956 
Q 1341 3275 1631 3429 
Q 1922 3584 2338 3584 
Q 2397 3584 2469 3576 
Q 2541 3569 2628 3553 
L 2631 2963 
z
" transform="scale(0.015625)"/>
       <path id="DejaVuSans-6f" d="M 1959 3097 
Q 1497 3097 1228 2736 
Q 959 2375 959 1747 
Q 959 1119 1226 758 
Q 1494 397 1959 397 
Q 2419 397 2687 759 
Q 2956 1122 2956 1747 
Q 2956 2369 2687 2733 
Q 2419 3097 1959 3097 
z
M 1959 3584 
Q 2709 3584 3137 3096 
Q 3566 2609 3566 1747 
Q 3566 888 3137 398 
Q 2709 -91 1959 -91 
Q 1206 -91 779 398 
Q 353 888 353 1747 
Q 353 2609 779 3096 
Q 1206 3584 1959 3584 
z
" transform="scale(0.015625)"/>
       <path id="DejaVuSans-2d" d="M 313 2009 
L 1997 2009 
L 1997 1497 
L 313 1497 
L 313 2009 
z
" transform="scale(0.015625)"/>
       <path id="DejaVuSans-76" d="M 191 3500 
L 800 3500 
L 1894 563 
L 2988 3500 
L 3597 3500 
L 2284 0 
L 1503 0 
L 191 3500 
z
" transform="scale(0.015625)"/>
       <path id="DejaVuSans-67" d="M 2906 1791 
Q 2906 2416 2648 2759 
Q 2391 3103 1925 3103 
Q 1463 3103 1205 2759 
Q 947 2416 947 1791 
Q 947 1169 1205 825 
Q 1463 481 1925 481 
Q 2391 481 2648 825 
Q 2906 1169 2906 1791 
z
M 3481 434 
Q 3481 -459 3084 -895 
Q 2688 -1331 1869 -1331 
Q 1566 -1331 1297 -1286 
Q 1028 -1241 775 -1147 
L 775 -588 
Q 1028 -725 1275 -790 
Q 1522 -856 1778 -856 
Q 2344 -856 2625 -561 
Q 2906 -266 2906 331 
L 2906 616 
Q 2728 306 2450 153 
Q 2172 0 1784 0 
Q 1141 0 747 490 
Q 353 981 353 1791 
Q 353 2603 747 3093 
Q 1141 3584 1784 3584 
Q 2172 3584 2450 3431 
Q 2728 3278 2906 2969 
L 2906 3500 
L 3481 3500 
L 3481 434 
z
" transform="scale(0.015625)"/>
       <path id="DejaVuSans-66" d="M 2375 4863 
L 2375 4384 
L 1825 4384 
Q 1516 4384 1395 4259 
Q 1275 4134 1275 3809 
L 1275 3500 
L 2222 3500 
L 2222 3053 
L 1275 3053 
L 1275 0 
L 697 0 
L 697 3053 
L 147 3053 
L 147 3500 
L 697 3500 
L 697 3744 
Q 697 4328 969 4595 
Q 1241 4863 1831 4863 
L 2375 4863 
z
" transform="scale(0.015625)"/>
       <path id="DejaVuSans-63" d="M 3122 3366 
L 3122 2828 
Q 2878 2963 2633 3030 
Q 2388 3097 2138 3097 
Q 1578 3097 1268 2742 
Q 959 2388 959 1747 
Q 959 1106 1268 751 
Q 1578 397 2138 397 
Q 2388 397 2633 464 
Q 2878 531 3122 666 
L 3122 134 
Q 2881 22 2623 -34 
Q 2366 -91 2075 -91 
Q 1284 -91 818 406 
Q 353 903 353 1747 
Q 353 2603 823 3093 
Q 1294 3584 2113 3584 
Q 2378 3584 2631 3529 
Q 2884 3475 3122 3366 
z
" transform="scale(0.015625)"/>
       <path id="DejaVuSans-74" d="M 1172 4494 
L 1172 3500 
L 2356 3500 
L 2356 3053 
L 1172 3053 
L 1172 1153 
Q 1172 725 1289 603 
Q 1406 481 1766 481 
L 2356 481 
L 2356 0 
L 1766 0 
Q 1100 0 847 248 
Q 594 497 594 1153 
L 594 3053 
L 172 3053 
L 172 3500 
L 594 3500 
L 594 4494 
L 1172 4494 
z
" transform="scale(0.015625)"/>
       <path id="DejaVuSans-6e" d="M 3513 2113 
L 3513 0 
L 2938 0 
L 2938 2094 
Q 2938 2591 2744 2837 
Q 2550 3084 2163 3084 
Q 1697 3084 1428 2787 
Q 1159 2491 1159 1978 
L 1159 0 
L 581 0 
L 581 3500 
L 1159 3500 
L 1159 2956 
Q 1366 3272 1645 3428 
Q 1925 3584 2291 3584 
Q 2894 3584 3203 3211 
Q 3513 2838 3513 2113 
z
" transform="scale(0.015625)"/>
       <path id="DejaVuSans-6c" d="M 603 4863 
L 1178 4863 
L 1178 0 
L 603 0 
L 603 4863 
z
" transform="scale(0.015625)"/>
       <path id="DejaVuSans-71" d="M 947 1747 
Q 947 1113 1208 752 
Q 1469 391 1925 391 
Q 2381 391 2643 752 
Q 2906 1113 2906 1747 
Q 2906 2381 2643 2742 
Q 2381 3103 1925 3103 
Q 1469 3103 1208 2742 
Q 947 2381 947 1747 
z
M 2906 525 
Q 2725 213 2448 61 
Q 2172 -91 1784 -91 
Q 1150 -91 751 415 
Q 353 922 353 1747 
Q 353 2572 751 3078 
Q 1150 3584 1784 3584 
Q 2172 3584 2448 3432 
Q 2725 3281 2906 2969 
L 2906 3500 
L 3481 3500 
L 3481 -1331 
L 2906 -1331 
L 2906 525 
z
" transform="scale(0.015625)"/>
       <path id="DejaVuSans-75" d="M 544 1381 
L 544 3500 
L 1119 3500 
L 1119 1403 
Q 1119 906 1312 657 
Q 1506 409 1894 409 
Q 2359 409 2629 706 
Q 2900 1003 2900 1516 
L 2900 3500 
L 3475 3500 
L 3475 0 
L 2900 0 
L 2900 538 
Q 2691 219 2414 64 
Q 2138 -91 1772 -91 
Q 1169 -91 856 284 
Q 544 659 544 1381 
z
M 1991 3584 
L 1991 3584 
z
" transform="scale(0.015625)"/>
      </defs>
      <use xlink:href="#DejaVuSans-50"/>
      <use xlink:href="#DejaVuSans-65" transform="translate(56.677734 0)"/>
      <use xlink:href="#DejaVuSans-72" transform="translate(118.201172 0)"/>
      <use xlink:href="#DejaVuSans-69" transform="translate(159.314453 0)"/>
      <use xlink:href="#DejaVuSans-6f" transform="translate(187.097656 0)"/>
      <use xlink:href="#DejaVuSans-64" transform="translate(248.279297 0)"/>
      <use xlink:href="#DejaVuSans-2d" transform="translate(311.755859 0)"/>
      <use xlink:href="#DejaVuSans-61" transform="translate(347.839844 0)"/>
      <use xlink:href="#DejaVuSans-76" transform="translate(409.119141 0)"/>
      <use xlink:href="#DejaVuSans-65" transform="translate(468.298828 0)"/>
      <use xlink:href="#DejaVuSans-72" transform="translate(529.822266 0)"/>
      <use xlink:href="#DejaVuSans-61" transform="translate(570.935547 0)"/>
      <use xlink:href="#DejaVuSans-67" transform="translate(632.214844 0)"/>
      <use xlink:href="#DejaVuSans-65" transform="translate(695.691406 0)"/>
      <use xlink:href="#DejaVuSans-64" transform="translate(757.214844 0)"/>
      <use xlink:href="#DejaVuSans-20" transform="translate(820.691406 0)"/>
      <use xlink:href="#DejaVuSans-66" transform="translate(852.478516 0)"/>
      <use xlink:href="#DejaVuSans-72" transform="translate(887.683594 0)"/>
      <use xlink:href="#DejaVuSans-61" transform="translate(928.796875 0)"/>
      <use xlink:href="#DejaVuSans-63" transform="translate(990.076172 0)"/>
      <use xlink:href="#DejaVuSans-74" transform="translate(1045.056641 0)"/>
      <use xlink:href="#DejaVuSans-69" transform="translate(1084.265625 0)"/>
      <use xlink:href="#DejaVuSans-6f" transform="translate(1112.048828 0)"/>
      <use xlink:href="#DejaVuSans-6e" transform="translate(1173.230469 0)"/>
      <use xlink:href="#DejaVuSans-61" transform="translate(1236.609375 0)"/>
      <use xlink:href="#DejaVuSans-6c" transform="translate(1297.888672 0)"/>
      <use xlink:href="#DejaVuSans-20" transform="translate(1325.671875 0)"/>
      <use xlink:href="#DejaVuSans-71" transform="translate(1357.458984 0)"/>
      <use xlink:href="#DejaVuSans-75" transform="translate(1420.935547 0)"/>
      <use xlink:href="#DejaVuSans-6f" transform="translate(1484.314453 0)"/>
      <use xlink:href="#DejaVuSans-74" transform="translate(1545.496094 0)"/>
      <use xlink:href="#DejaVuSans-61" transform="translate(1584.705078 0)"/>
      <use xlink:href="#DejaVuSans-73" transform="translate(1645.984375 0)"/>
     </g>
    </g>
   </g>
   <g id="line2d_13">
    <path d="M 78.934592 245.41697 
L 93.873621 258.98799 
L 108.812651 261.836508 
L 123.75168 261.870276 
L 138.69071 262.037112 
L 153.629739 262.187201 
L 168.568768 262.294767 
L 183.507798 262.372059 
L 198.446827 262.429578 
L 213.385857 262.473918 
L 228.324886 262.509156 
L 243.263916 262.537869 
L 258.202945 262.561731 
L 273.141974 262.581902 
L 288.081004 262.59919 
L 303.020033 262.61417 
L 317.959063 262.627271 
L 332.898092 262.638841 
L 347.837122 262.649135 
L 362.776151 262.658359 
L 377.715181 262.666678 
L 392.65421 262.674222 
L 407.593239 262.681094 
L 422.532269 262.68738 
L 437.471298 262.693154 
L 452.410328 262.698479 
L 467.349357 262.703415 
L 482.288387 262.708007 
L 497.227416 262.712295 
L 512.166445 262.716315 
L 527.105475 262.720093 
L 542.044504 262.723653 
" clip-path="url(#pfd6930b455)" style="fill: none; stroke: #1f77b4; stroke-width: 1.5; stroke-linecap: square"/>
   </g>
   <g id="line2d_14">
    <path d="M 78.934592 232.248952 
L 93.873621 254.708464 
L 108.812651 259.951255 
L 123.75168 259.998349 
L 138.69071 260.266128 
L 153.629739 260.508523 
L 168.568768 260.682146 
L 183.507798 260.806751 
L 198.446827 260.89936 
L 213.385857 260.970675 
L 228.324886 261.027304 
L 243.263916 261.073407 
L 258.202945 261.111709 
L 273.141974 261.144059 
L 288.081004 261.171773 
L 303.020033 261.195784 
L 317.959063 261.216792 
L 332.898092 261.235332 
L 347.837122 261.25182 
L 362.776151 261.266589 
L 377.715181 261.279902 
L 392.65421 261.29197 
L 407.593239 261.30296 
L 422.532269 261.313013 
L 437.471298 261.322247 
L 452.410328 261.330768 
L 467.349357 261.338661 
L 482.288387 261.346004 
L 497.227416 261.352858 
L 512.166445 261.35928 
L 527.105475 261.365314 
L 542.044504 261.371 
" clip-path="url(#pfd6930b455)" style="fill: none; stroke: #ff7f0e; stroke-width: 1.5; stroke-linecap: square"/>
   </g>
   <g id="line2d_15">
    <path d="M 78.934592 215.197717 
L 93.873621 248.813228 
L 108.812651 257.661437 
L 123.75168 257.727405 
L 138.69071 258.116198 
L 153.629739 258.470041 
L 168.568768 258.723372 
L 183.507798 258.904965 
L 198.446827 259.039782 
L 213.385857 259.14352 
L 228.324886 259.225832 
L 243.263916 259.292809 
L 258.202945 259.348424 
L 273.141974 259.39539 
L 288.081004 259.435603 
L 303.020033 259.470439 
L 317.959063 259.500928 
L 332.898092 259.527824 
L 347.837122 259.551738 
L 362.776151 259.573154 
L 377.715181 259.592455 
L 392.65421 259.609946 
L 407.593239 259.625873 
L 422.532269 259.640441 
L 437.471298 259.653825 
L 452.410328 259.666178 
L 467.349357 259.677621 
L 482.288387 259.688263 
L 497.227416 259.698196 
L 512.166445 259.7075 
L 527.105475 259.716242 
L 542.044504 259.724479 
" clip-path="url(#pfd6930b455)" style="fill: none; stroke: #2ca02c; stroke-width: 1.5; stroke-linecap: square"/>
   </g>
   <g id="line2d_16">
    <path d="M 78.934592 193.394723 
L 93.873621 240.489003 
L 108.812651 254.792443 
L 123.75168 254.906099 
L 138.69071 255.440572 
L 153.629739 255.930466 
L 168.568768 256.28138 
L 183.507798 256.532731 
L 198.446827 256.71919 
L 213.385857 256.862588 
L 228.324886 256.976302 
L 243.263916 257.068808 
L 258.202945 257.14558 
L 273.141974 257.210425 
L 288.081004 257.265923 
L 303.020033 257.313995 
L 317.959063 257.356082 
L 332.898092 257.393199 
L 347.837122 257.426198 
L 362.776151 257.455746 
L 377.715181 257.482377 
L 392.65421 257.506508 
L 407.593239 257.528481 
L 422.532269 257.548581 
L 437.471298 257.567049 
L 452.410328 257.584098 
L 467.349357 257.599891 
L 482.288387 257.614577 
L 497.227416 257.628284 
L 512.166445 257.641122 
L 527.105475 257.653183 
L 542.044504 257.664547 
" clip-path="url(#pfd6930b455)" style="fill: none; stroke: #d62728; stroke-width: 1.5; stroke-linecap: square"/>
   </g>
   <g id="line2d_17">
    <path d="M 78.934592 165.993198 
L 93.873621 228.568663 
L 108.812651 251.102108 
L 123.75168 251.370304 
L 138.69071 252.080591 
L 153.629739 252.738239 
L 168.568768 253.210303 
L 183.507798 253.548288 
L 198.446827 253.798843 
L 213.385857 253.99144 
L 228.324886 254.144091 
L 243.263916 254.268249 
L 258.202945 254.371244 
L 273.141974 254.458255 
L 288.081004 254.532702 
L 303.020033 254.597185 
L 317.959063 254.653649 
L 332.898092 254.703441 
L 347.837122 254.747709 
L 362.776151 254.787346 
L 377.715181 254.823071 
L 392.65421 254.855445 
L 407.593239 254.884927 
L 422.532269 254.911898 
L 437.471298 254.936681 
L 452.410328 254.959567 
L 467.349357 254.980766 
L 482.288387 255.000478 
L 497.227416 255.018874 
L 512.166445 255.036103 
L 527.105475 255.052291 
L 542.044504 255.067543 
" clip-path="url(#pfd6930b455)" style="fill: none; stroke: #9467bd; stroke-width: 1.5; stroke-linecap: square"/>
   </g>
   <g id="line2d_18">
    <path d="M 78.934592 132.23989 
L 93.873621 211.488975 
L 108.812651 246.193706 
L 123.75168 246.938145 
L 138.69071 247.863343 
L 153.629739 248.728608 
L 168.568768 249.352491 
L 183.507798 249.799116 
L 198.446827 250.129944 
L 213.385857 250.384071 
L 228.324886 250.585371 
L 243.263916 250.74905 
L 258.202945 250.884766 
L 273.141974 250.999432 
L 288.081004 251.097519 
L 303.020033 251.182472 
L 317.959063 251.256866 
L 332.898092 251.322468 
L 347.837122 251.380792 
L 362.776151 251.433015 
L 377.715181 251.48009 
L 392.65421 251.522754 
L 407.593239 251.561612 
L 422.532269 251.597165 
L 437.471298 251.629837 
L 452.410328 251.660012 
L 467.349357 251.687964 
L 482.288387 251.713956 
L 497.227416 251.738213 
L 512.166445 251.760931 
L 527.105475 251.782276 
L 542.044504 251.802389 
" clip-path="url(#pfd6930b455)" style="fill: none; stroke: #8c564b; stroke-width: 1.5; stroke-linecap: square"/>
   </g>
   <g id="line2d_19">
    <path d="M 78.934592 91.52463 
L 93.873621 187.337514 
L 108.812651 239.357501 
L 123.75168 241.391003 
L 138.69071 242.602687 
L 153.629739 243.72493 
L 168.568768 244.539934 
L 183.507798 245.123575 
L 198.446827 245.555417 
L 213.385857 245.886777 
L 228.324886 246.149025 
L 243.263916 246.36214 
L 258.202945 246.538752 
L 273.141974 246.687945 
L 288.081004 246.81554 
L 303.020033 246.926032 
L 317.959063 247.022786 
L 332.898092 247.108106 
L 347.837122 247.18396 
L 362.776151 247.251879 
L 377.715181 247.313108 
L 392.65421 247.368607 
L 407.593239 247.419162 
L 422.532269 247.465423 
L 437.471298 247.507941 
L 452.410328 247.547212 
L 467.349357 247.583592 
L 482.288387 247.617424 
L 497.227416 247.648997 
L 512.166445 247.678568 
L 527.105475 247.706353 
L 542.044504 247.732538 
" clip-path="url(#pfd6930b455)" style="fill: none; stroke: #e377c2; stroke-width: 1.5; stroke-linecap: square"/>
   </g>
   <g id="line2d_20">
    <path d="M 78.934592 43.367793 
L 93.873621 154.023108 
L 108.812651 229.349194 
L 123.75168 234.403071 
L 138.69071 236.097256 
L 153.629739 237.54302 
L 168.568768 238.599017 
L 183.507798 239.355944 
L 198.446827 239.915169 
L 213.385857 240.343548 
L 228.324886 240.682118 
L 243.263916 240.956982 
L 258.202945 241.18459 
L 273.141974 241.376766 
L 288.081004 241.541067 
L 303.020033 241.683304 
L 317.959063 241.807829 
L 332.898092 241.917635 
L 347.837122 242.015249 
L 362.776151 242.102651 
L 377.715181 242.181444 
L 392.65421 242.252871 
L 407.593239 242.317942 
L 422.532269 242.377492 
L 437.471298 242.432227 
L 452.410328 242.482785 
L 467.349357 242.529626 
L 482.288387 242.573187 
L 497.227416 242.613842 
L 512.166445 242.651921 
L 527.105475 242.687703 
L 542.044504 242.721428 
" clip-path="url(#pfd6930b455)" style="fill: none; stroke: #7f7f7f; stroke-width: 1.5; stroke-linecap: square"/>
   </g>
   <g id="patch_3">
    <path d="M 55.779096 265.344787 
L 55.779096 32.4 
" style="fill: none; stroke: #000000; stroke-width: 0.8; stroke-linejoin: miter; stroke-linecap: square"/>
   </g>
   <g id="patch_4">
    <path d="M 565.2 265.344787 
L 565.2 32.4 
" style="fill: none; stroke: #000000; stroke-width: 0.8; stroke-linejoin: miter; stroke-linecap: square"/>
   </g>
   <g id="patch_5">
    <path d="M 55.779096 265.344787 
L 565.2 265.344787 
" style="fill: none; stroke: #000000; stroke-width: 0.8; stroke-linejoin: miter; stroke-linecap: square"/>
   </g>
   <g id="patch_6">
    <path d="M 55.779096 32.4 
L 565.2 32.4 
" style="fill: none; stroke: #000000; stroke-width: 0.8; stroke-linejoin: miter; stroke-linecap: square"/>
   </g>
   <g id="legend_1">
    <g id="patch_7">
     <path d="M 477.626562 157.825 
L 558.2 157.825 
Q 560.2 157.825 560.2 155.825 
L 560.2 39.4 
Q 560.2 37.4 558.2 37.4 
L 477.626562 37.4 
Q 475.626562 37.4 475.626562 39.4 
L 475.626562 155.825 
Q 475.626562 157.825 477.626562 157.825 
z
" style="fill: #ffffff; opacity: 0.8; stroke: #cccccc; stroke-linejoin: miter"/>
    </g>
    <g id="line2d_21">
     <path d="M 479.626562 45.498438 
L 489.626562 45.498438 
L 499.626562 45.498438 
" style="fill: none; stroke: #1f77b4; stroke-width: 1.5; stroke-linecap: square"/>
    </g>
    <g id="text_15">
     <!-- s = 2.50 -->
     <g transform="translate(507.626562 48.998438) scale(0.1 -0.1)">
      <defs>
       <path id="DejaVuSans-3d" d="M 678 2906 
L 4684 2906 
L 4684 2381 
L 678 2381 
L 678 2906 
z
M 678 1631 
L 4684 1631 
L 4684 1100 
L 678 1100 
L 678 1631 
z
" transform="scale(0.015625)"/>
       <path id="DejaVuSans-2e" d="M 684 794 
L 1344 794 
L 1344 0 
L 684 0 
L 684 794 
z
" transform="scale(0.015625)"/>
      </defs>
      <use xlink:href="#DejaVuSans-73"/>
      <use xlink:href="#DejaVuSans-20" transform="translate(52.099609 0)"/>
      <use xlink:href="#DejaVuSans-3d" transform="translate(83.886719 0)"/>
      <use xlink:href="#DejaVuSans-20" transform="translate(167.675781 0)"/>
      <use xlink:href="#DejaVuSans-32" transform="translate(199.462891 0)"/>
      <use xlink:href="#DejaVuSans-2e" transform="translate(263.085938 0)"/>
      <use xlink:href="#DejaVuSans-35" transform="translate(294.873047 0)"/>
      <use xlink:href="#DejaVuSans-30" transform="translate(358.496094 0)"/>
     </g>
    </g>
    <g id="line2d_22">
     <path d="M 479.626562 60.176563 
L 489.626562 60.176563 
L 499.626562 60.176563 
" style="fill: none; stroke: #ff7f0e; stroke-width: 1.5; stroke-linecap: square"/>
    </g>
    <g id="text_16">
     <!-- s = 3.93 -->
     <g transform="translate(507.626562 63.676563) scale(0.1 -0.1)">
      <defs>
       <path id="DejaVuSans-33" d="M 2597 2516 
Q 3050 2419 3304 2112 
Q 3559 1806 3559 1356 
Q 3559 666 3084 287 
Q 2609 -91 1734 -91 
Q 1441 -91 1130 -33 
Q 819 25 488 141 
L 488 750 
Q 750 597 1062 519 
Q 1375 441 1716 441 
Q 2309 441 2620 675 
Q 2931 909 2931 1356 
Q 2931 1769 2642 2001 
Q 2353 2234 1838 2234 
L 1294 2234 
L 1294 2753 
L 1863 2753 
Q 2328 2753 2575 2939 
Q 2822 3125 2822 3475 
Q 2822 3834 2567 4026 
Q 2313 4219 1838 4219 
Q 1578 4219 1281 4162 
Q 984 4106 628 3988 
L 628 4550 
Q 988 4650 1302 4700 
Q 1616 4750 1894 4750 
Q 2613 4750 3031 4423 
Q 3450 4097 3450 3541 
Q 3450 3153 3228 2886 
Q 3006 2619 2597 2516 
z
" transform="scale(0.015625)"/>
       <path id="DejaVuSans-39" d="M 703 97 
L 703 672 
Q 941 559 1184 500 
Q 1428 441 1663 441 
Q 2288 441 2617 861 
Q 2947 1281 2994 2138 
Q 2813 1869 2534 1725 
Q 2256 1581 1919 1581 
Q 1219 1581 811 2004 
Q 403 2428 403 3163 
Q 403 3881 828 4315 
Q 1253 4750 1959 4750 
Q 2769 4750 3195 4129 
Q 3622 3509 3622 2328 
Q 3622 1225 3098 567 
Q 2575 -91 1691 -91 
Q 1453 -91 1209 -44 
Q 966 3 703 97 
z
M 1959 2075 
Q 2384 2075 2632 2365 
Q 2881 2656 2881 3163 
Q 2881 3666 2632 3958 
Q 2384 4250 1959 4250 
Q 1534 4250 1286 3958 
Q 1038 3666 1038 3163 
Q 1038 2656 1286 2365 
Q 1534 2075 1959 2075 
z
" transform="scale(0.015625)"/>
      </defs>
      <use xlink:href="#DejaVuSans-73"/>
      <use xlink:href="#DejaVuSans-20" transform="translate(52.099609 0)"/>
      <use xlink:href="#DejaVuSans-3d" transform="translate(83.886719 0)"/>
      <use xlink:href="#DejaVuSans-20" transform="translate(167.675781 0)"/>
      <use xlink:href="#DejaVuSans-33" transform="translate(199.462891 0)"/>
      <use xlink:href="#DejaVuSans-2e" transform="translate(263.085938 0)"/>
      <use xlink:href="#DejaVuSans-39" transform="translate(294.873047 0)"/>
      <use xlink:href="#DejaVuSans-33" transform="translate(358.496094 0)"/>
     </g>
    </g>
    <g id="line2d_23">
     <path d="M 479.626562 74.854688 
L 489.626562 74.854688 
L 499.626562 74.854688 
" style="fill: none; stroke: #2ca02c; stroke-width: 1.5; stroke-linecap: square"/>
    </g>
    <g id="text_17">
     <!-- s = 5.36 -->
     <g transform="translate(507.626562 78.354688) scale(0.1 -0.1)">
      <use xlink:href="#DejaVuSans-73"/>
      <use xlink:href="#DejaVuSans-20" transform="translate(52.099609 0)"/>
      <use xlink:href="#DejaVuSans-3d" transform="translate(83.886719 0)"/>
      <use xlink:href="#DejaVuSans-20" transform="translate(167.675781 0)"/>
      <use xlink:href="#DejaVuSans-35" transform="translate(199.462891 0)"/>
      <use xlink:href="#DejaVuSans-2e" transform="translate(263.085938 0)"/>
      <use xlink:href="#DejaVuSans-33" transform="translate(294.873047 0)"/>
      <use xlink:href="#DejaVuSans-36" transform="translate(358.496094 0)"/>
     </g>
    </g>
    <g id="line2d_24">
     <path d="M 479.626562 89.532812 
L 489.626562 89.532812 
L 499.626562 89.532812 
" style="fill: none; stroke: #d62728; stroke-width: 1.5; stroke-linecap: square"/>
    </g>
    <g id="text_18">
     <!-- s = 6.79 -->
     <g transform="translate(507.626562 93.032812) scale(0.1 -0.1)">
      <defs>
       <path id="DejaVuSans-37" d="M 525 4666 
L 3525 4666 
L 3525 4397 
L 1831 0 
L 1172 0 
L 2766 4134 
L 525 4134 
L 525 4666 
z
" transform="scale(0.015625)"/>
      </defs>
      <use xlink:href="#DejaVuSans-73"/>
      <use xlink:href="#DejaVuSans-20" transform="translate(52.099609 0)"/>
      <use xlink:href="#DejaVuSans-3d" transform="translate(83.886719 0)"/>
      <use xlink:href="#DejaVuSans-20" transform="translate(167.675781 0)"/>
      <use xlink:href="#DejaVuSans-36" transform="translate(199.462891 0)"/>
      <use xlink:href="#DejaVuSans-2e" transform="translate(263.085938 0)"/>
      <use xlink:href="#DejaVuSans-37" transform="translate(294.873047 0)"/>
      <use xlink:href="#DejaVuSans-39" transform="translate(358.496094 0)"/>
     </g>
    </g>
    <g id="line2d_25">
     <path d="M 479.626562 104.210938 
L 489.626562 104.210938 
L 499.626562 104.210938 
" style="fill: none; stroke: #9467bd; stroke-width: 1.5; stroke-linecap: square"/>
    </g>
    <g id="text_19">
     <!-- s = 8.21 -->
     <g transform="translate(507.626562 107.710938) scale(0.1 -0.1)">
      <use xlink:href="#DejaVuSans-73"/>
      <use xlink:href="#DejaVuSans-20" transform="translate(52.099609 0)"/>
      <use xlink:href="#DejaVuSans-3d" transform="translate(83.886719 0)"/>
      <use xlink:href="#DejaVuSans-20" transform="translate(167.675781 0)"/>
      <use xlink:href="#DejaVuSans-38" transform="translate(199.462891 0)"/>
      <use xlink:href="#DejaVuSans-2e" transform="translate(263.085938 0)"/>
      <use xlink:href="#DejaVuSans-32" transform="translate(294.873047 0)"/>
      <use xlink:href="#DejaVuSans-31" transform="translate(358.496094 0)"/>
     </g>
    </g>
    <g id="line2d_26">
     <path d="M 479.626562 118.889063 
L 489.626562 118.889063 
L 499.626562 118.889063 
" style="fill: none; stroke: #8c564b; stroke-width: 1.5; stroke-linecap: square"/>
    </g>
    <g id="text_20">
     <!-- s = 9.64 -->
     <g transform="translate(507.626562 122.389063) scale(0.1 -0.1)">
      <use xlink:href="#DejaVuSans-73"/>
      <use xlink:href="#DejaVuSans-20" transform="translate(52.099609 0)"/>
      <use xlink:href="#DejaVuSans-3d" transform="translate(83.886719 0)"/>
      <use xlink:href="#DejaVuSans-20" transform="translate(167.675781 0)"/>
      <use xlink:href="#DejaVuSans-39" transform="translate(199.462891 0)"/>
      <use xlink:href="#DejaVuSans-2e" transform="translate(263.085938 0)"/>
      <use xlink:href="#DejaVuSans-36" transform="translate(294.873047 0)"/>
      <use xlink:href="#DejaVuSans-34" transform="translate(358.496094 0)"/>
     </g>
    </g>
    <g id="line2d_27">
     <path d="M 479.626562 133.567188 
L 489.626562 133.567188 
L 499.626562 133.567188 
" style="fill: none; stroke: #e377c2; stroke-width: 1.5; stroke-linecap: square"/>
    </g>
    <g id="text_21">
     <!-- s = 11.07 -->
     <g transform="translate(507.626562 137.067188) scale(0.1 -0.1)">
      <use xlink:href="#DejaVuSans-73"/>
      <use xlink:href="#DejaVuSans-20" transform="translate(52.099609 0)"/>
      <use xlink:href="#DejaVuSans-3d" transform="translate(83.886719 0)"/>
      <use xlink:href="#DejaVuSans-20" transform="translate(167.675781 0)"/>
      <use xlink:href="#DejaVuSans-31" transform="translate(199.462891 0)"/>
      <use xlink:href="#DejaVuSans-31" transform="translate(263.085938 0)"/>
      <use xlink:href="#DejaVuSans-2e" transform="translate(326.708984 0)"/>
      <use xlink:href="#DejaVuSans-30" transform="translate(358.496094 0)"/>
      <use xlink:href="#DejaVuSans-37" transform="translate(422.119141 0)"/>
     </g>
    </g>
    <g id="line2d_28">
     <path d="M 479.626562 148.245312 
L 489.626562 148.245312 
L 499.626562 148.245312 
" style="fill: none; stroke: #7f7f7f; stroke-width: 1.5; stroke-linecap: square"/>
    </g>
    <g id="text_22">
     <!-- s = 12.50 -->
     <g transform="translate(507.626562 151.745312) scale(0.1 -0.1)">
      <use xlink:href="#DejaVuSans-73"/>
      <use xlink:href="#DejaVuSans-20" transform="translate(52.099609 0)"/>
      <use xlink:href="#DejaVuSans-3d" transform="translate(83.886719 0)"/>
      <use xlink:href="#DejaVuSans-20" transform="translate(167.675781 0)"/>
      <use xlink:href="#DejaVuSans-31" transform="translate(199.462891 0)"/>
      <use xlink:href="#DejaVuSans-32" transform="translate(263.085938 0)"/>
      <use xlink:href="#DejaVuSans-2e" transform="translate(326.708984 0)"/>
      <use xlink:href="#DejaVuSans-35" transform="translate(358.496094 0)"/>
      <use xlink:href="#DejaVuSans-30" transform="translate(422.119141 0)"/>
     </g>
    </g>
   </g>
  </g>
  <g id="axes_2">
   <g id="patch_8">
    <path d="M 55.779096 543.692394 
L 565.2 543.692394 
L 565.2 310.747606 
L 55.779096 310.747606 
z
" style="fill: #ffffff"/>
   </g>
   <g id="matplotlib.axis_3">
    <g id="xtick_7">
     <g id="line2d_29">
      <g>
       <use xlink:href="#mc233e30695" x="71.465077" y="543.692394" style="stroke: #000000; stroke-width: 0.8"/>
      </g>
     </g>
     <g id="text_23">
      <!-- 0 -->
      <g transform="translate(68.283827 558.290831) scale(0.1 -0.1)">
       <use xlink:href="#DejaVuSans-30"/>
      </g>
     </g>
    </g>
    <g id="xtick_8">
     <g id="line2d_30">
      <g>
       <use xlink:href="#mc233e30695" x="164.834011" y="543.692394" style="stroke: #000000; stroke-width: 0.8"/>
      </g>
     </g>
     <g id="text_24">
      <!-- 50 -->
      <g transform="translate(158.471511 558.290831) scale(0.1 -0.1)">
       <use xlink:href="#DejaVuSans-35"/>
       <use xlink:href="#DejaVuSans-30" transform="translate(63.623047 0)"/>
      </g>
     </g>
    </g>
    <g id="xtick_9">
     <g id="line2d_31">
      <g>
       <use xlink:href="#mc233e30695" x="258.202945" y="543.692394" style="stroke: #000000; stroke-width: 0.8"/>
      </g>
     </g>
     <g id="text_25">
      <!-- 100 -->
      <g transform="translate(248.659195 558.290831) scale(0.1 -0.1)">
       <use xlink:href="#DejaVuSans-31"/>
       <use xlink:href="#DejaVuSans-30" transform="translate(63.623047 0)"/>
       <use xlink:href="#DejaVuSans-30" transform="translate(127.246094 0)"/>
      </g>
     </g>
    </g>
    <g id="xtick_10">
     <g id="line2d_32">
      <g>
       <use xlink:href="#mc233e30695" x="351.571879" y="543.692394" style="stroke: #000000; stroke-width: 0.8"/>
      </g>
     </g>
     <g id="text_26">
      <!-- 150 -->
      <g transform="translate(342.028129 558.290831) scale(0.1 -0.1)">
       <use xlink:href="#DejaVuSans-31"/>
       <use xlink:href="#DejaVuSans-35" transform="translate(63.623047 0)"/>
       <use xlink:href="#DejaVuSans-30" transform="translate(127.246094 0)"/>
      </g>
     </g>
    </g>
    <g id="xtick_11">
     <g id="line2d_33">
      <g>
       <use xlink:href="#mc233e30695" x="444.940813" y="543.692394" style="stroke: #000000; stroke-width: 0.8"/>
      </g>
     </g>
     <g id="text_27">
      <!-- 200 -->
      <g transform="translate(435.397063 558.290831) scale(0.1 -0.1)">
       <use xlink:href="#DejaVuSans-32"/>
       <use xlink:href="#DejaVuSans-30" transform="translate(63.623047 0)"/>
       <use xlink:href="#DejaVuSans-30" transform="translate(127.246094 0)"/>
      </g>
     </g>
    </g>
    <g id="xtick_12">
     <g id="line2d_34">
      <g>
       <use xlink:href="#mc233e30695" x="538.309747" y="543.692394" style="stroke: #000000; stroke-width: 0.8"/>
      </g>
     </g>
     <g id="text_28">
      <!-- 250 -->
      <g transform="translate(528.765997 558.290831) scale(0.1 -0.1)">
       <use xlink:href="#DejaVuSans-32"/>
       <use xlink:href="#DejaVuSans-35" transform="translate(63.623047 0)"/>
       <use xlink:href="#DejaVuSans-30" transform="translate(127.246094 0)"/>
      </g>
     </g>
    </g>
    <g id="text_29">
     <!-- Time (days) -->
     <g transform="translate(280.962986 571.968956) scale(0.1 -0.1)">
      <use xlink:href="#DejaVuSans-54"/>
      <use xlink:href="#DejaVuSans-69" transform="translate(57.958984 0)"/>
      <use xlink:href="#DejaVuSans-6d" transform="translate(85.742188 0)"/>
      <use xlink:href="#DejaVuSans-65" transform="translate(183.154297 0)"/>
      <use xlink:href="#DejaVuSans-20" transform="translate(244.677734 0)"/>
      <use xlink:href="#DejaVuSans-28" transform="translate(276.464844 0)"/>
      <use xlink:href="#DejaVuSans-64" transform="translate(315.478516 0)"/>
      <use xlink:href="#DejaVuSans-61" transform="translate(378.955078 0)"/>
      <use xlink:href="#DejaVuSans-79" transform="translate(440.234375 0)"/>
      <use xlink:href="#DejaVuSans-73" transform="translate(499.414062 0)"/>
      <use xlink:href="#DejaVuSans-29" transform="translate(551.513672 0)"/>
     </g>
    </g>
   </g>
   <g id="matplotlib.axis_4">
    <g id="ytick_7">
     <g id="line2d_35">
      <g>
       <use xlink:href="#m7885bdc9cd" x="55.779096" y="543.692394" style="stroke: #000000; stroke-width: 0.8"/>
      </g>
     </g>
     <g id="text_30">
      <!-- $\mathdefault{10^{-1}}$ -->
      <g transform="translate(25.279096 547.491612) scale(0.1 -0.1)">
       <defs>
        <path id="DejaVuSans-2212" d="M 678 2272 
L 4684 2272 
L 4684 1741 
L 678 1741 
L 678 2272 
z
" transform="scale(0.015625)"/>
       </defs>
       <use xlink:href="#DejaVuSans-31" transform="translate(0 0.684375)"/>
       <use xlink:href="#DejaVuSans-30" transform="translate(63.623047 0.684375)"/>
       <use xlink:href="#DejaVuSans-2212" transform="translate(128.203125 38.965625) scale(0.7)"/>
       <use xlink:href="#DejaVuSans-31" transform="translate(186.855469 38.965625) scale(0.7)"/>
      </g>
     </g>
    </g>
    <g id="ytick_8">
     <g id="line2d_36">
      <g>
       <use xlink:href="#m7885bdc9cd" x="55.779096" y="510.784161" style="stroke: #000000; stroke-width: 0.8"/>
      </g>
     </g>
     <g id="text_31">
      <!-- $\mathdefault{10^{1}}$ -->
      <g transform="translate(31.179096 514.58338) scale(0.1 -0.1)">
       <use xlink:href="#DejaVuSans-31" transform="translate(0 0.684375)"/>
       <use xlink:href="#DejaVuSans-30" transform="translate(63.623047 0.684375)"/>
       <use xlink:href="#DejaVuSans-31" transform="translate(128.203125 38.965625) scale(0.7)"/>
      </g>
     </g>
    </g>
    <g id="ytick_9">
     <g id="line2d_37">
      <g>
       <use xlink:href="#m7885bdc9cd" x="55.779096" y="477.875929" style="stroke: #000000; stroke-width: 0.8"/>
      </g>
     </g>
     <g id="text_32">
      <!-- $\mathdefault{10^{3}}$ -->
      <g transform="translate(31.179096 481.675147) scale(0.1 -0.1)">
       <use xlink:href="#DejaVuSans-31" transform="translate(0 0.765625)"/>
       <use xlink:href="#DejaVuSans-30" transform="translate(63.623047 0.765625)"/>
       <use xlink:href="#DejaVuSans-33" transform="translate(128.203125 39.046875) scale(0.7)"/>
      </g>
     </g>
    </g>
    <g id="ytick_10">
     <g id="line2d_38">
      <g>
       <use xlink:href="#m7885bdc9cd" x="55.779096" y="444.967696" style="stroke: #000000; stroke-width: 0.8"/>
      </g>
     </g>
     <g id="text_33">
      <!-- $\mathdefault{10^{5}}$ -->
      <g transform="translate(31.179096 448.766915) scale(0.1 -0.1)">
       <use xlink:href="#DejaVuSans-31" transform="translate(0 0.684375)"/>
       <use xlink:href="#DejaVuSans-30" transform="translate(63.623047 0.684375)"/>
       <use xlink:href="#DejaVuSans-35" transform="translate(128.203125 38.965625) scale(0.7)"/>
      </g>
     </g>
    </g>
    <g id="ytick_11">
     <g id="line2d_39">
      <g>
       <use xlink:href="#m7885bdc9cd" x="55.779096" y="412.059464" style="stroke: #000000; stroke-width: 0.8"/>
      </g>
     </g>
     <g id="text_34">
      <!-- $\mathdefault{10^{7}}$ -->
      <g transform="translate(31.179096 415.858683) scale(0.1 -0.1)">
       <use xlink:href="#DejaVuSans-31" transform="translate(0 0.684375)"/>
       <use xlink:href="#DejaVuSans-30" transform="translate(63.623047 0.684375)"/>
       <use xlink:href="#DejaVuSans-37" transform="translate(128.203125 38.965625) scale(0.7)"/>
      </g>
     </g>
    </g>
    <g id="ytick_12">
     <g id="line2d_40">
      <g>
       <use xlink:href="#m7885bdc9cd" x="55.779096" y="379.151231" style="stroke: #000000; stroke-width: 0.8"/>
      </g>
     </g>
     <g id="text_35">
      <!-- $\mathdefault{10^{9}}$ -->
      <g transform="translate(31.179096 382.95045) scale(0.1 -0.1)">
       <use xlink:href="#DejaVuSans-31" transform="translate(0 0.765625)"/>
       <use xlink:href="#DejaVuSans-30" transform="translate(63.623047 0.765625)"/>
       <use xlink:href="#DejaVuSans-39" transform="translate(128.203125 39.046875) scale(0.7)"/>
      </g>
     </g>
    </g>
    <g id="ytick_13">
     <g id="line2d_41">
      <g>
       <use xlink:href="#m7885bdc9cd" x="55.779096" y="346.242999" style="stroke: #000000; stroke-width: 0.8"/>
      </g>
     </g>
     <g id="text_36">
      <!-- $\mathdefault{10^{11}}$ -->
      <g transform="translate(26.679096 350.042218) scale(0.1 -0.1)">
       <use xlink:href="#DejaVuSans-31" transform="translate(0 0.684375)"/>
       <use xlink:href="#DejaVuSans-30" transform="translate(63.623047 0.684375)"/>
       <use xlink:href="#DejaVuSans-31" transform="translate(128.203125 38.965625) scale(0.7)"/>
       <use xlink:href="#DejaVuSans-31" transform="translate(172.739258 38.965625) scale(0.7)"/>
      </g>
     </g>
    </g>
    <g id="ytick_14">
     <g id="line2d_42">
      <g>
       <use xlink:href="#m7885bdc9cd" x="55.779096" y="313.334767" style="stroke: #000000; stroke-width: 0.8"/>
      </g>
     </g>
     <g id="text_37">
      <!-- $\mathdefault{10^{13}}$ -->
      <g transform="translate(26.679096 317.133985) scale(0.1 -0.1)">
       <use xlink:href="#DejaVuSans-31" transform="translate(0 0.765625)"/>
       <use xlink:href="#DejaVuSans-30" transform="translate(63.623047 0.765625)"/>
       <use xlink:href="#DejaVuSans-31" transform="translate(128.203125 39.046875) scale(0.7)"/>
       <use xlink:href="#DejaVuSans-33" transform="translate(172.739258 39.046875) scale(0.7)"/>
      </g>
     </g>
    </g>
    <g id="text_38">
     <!-- Period-averaged biovolume -->
     <g transform="translate(19.199409 495.991875) rotate(-90) scale(0.1 -0.1)">
      <defs>
       <path id="DejaVuSans-62" d="M 3116 1747 
Q 3116 2381 2855 2742 
Q 2594 3103 2138 3103 
Q 1681 3103 1420 2742 
Q 1159 2381 1159 1747 
Q 1159 1113 1420 752 
Q 1681 391 2138 391 
Q 2594 391 2855 752 
Q 3116 1113 3116 1747 
z
M 1159 2969 
Q 1341 3281 1617 3432 
Q 1894 3584 2278 3584 
Q 2916 3584 3314 3078 
Q 3713 2572 3713 1747 
Q 3713 922 3314 415 
Q 2916 -91 2278 -91 
Q 1894 -91 1617 61 
Q 1341 213 1159 525 
L 1159 0 
L 581 0 
L 581 4863 
L 1159 4863 
L 1159 2969 
z
" transform="scale(0.015625)"/>
      </defs>
      <use xlink:href="#DejaVuSans-50"/>
      <use xlink:href="#DejaVuSans-65" transform="translate(56.677734 0)"/>
      <use xlink:href="#DejaVuSans-72" transform="translate(118.201172 0)"/>
      <use xlink:href="#DejaVuSans-69" transform="translate(159.314453 0)"/>
      <use xlink:href="#DejaVuSans-6f" transform="translate(187.097656 0)"/>
      <use xlink:href="#DejaVuSans-64" transform="translate(248.279297 0)"/>
      <use xlink:href="#DejaVuSans-2d" transform="translate(311.755859 0)"/>
      <use xlink:href="#DejaVuSans-61" transform="translate(347.839844 0)"/>
      <use xlink:href="#DejaVuSans-76" transform="translate(409.119141 0)"/>
      <use xlink:href="#DejaVuSans-65" transform="translate(468.298828 0)"/>
      <use xlink:href="#DejaVuSans-72" transform="translate(529.822266 0)"/>
      <use xlink:href="#DejaVuSans-61" transform="translate(570.935547 0)"/>
      <use xlink:href="#DejaVuSans-67" transform="translate(632.214844 0)"/>
      <use xlink:href="#DejaVuSans-65" transform="translate(695.691406 0)"/>
      <use xlink:href="#DejaVuSans-64" transform="translate(757.214844 0)"/>
      <use xlink:href="#DejaVuSans-20" transform="translate(820.691406 0)"/>
      <use xlink:href="#DejaVuSans-62" transform="translate(852.478516 0)"/>
      <use xlink:href="#DejaVuSans-69" transform="translate(915.955078 0)"/>
      <use xlink:href="#DejaVuSans-6f" transform="translate(943.738281 0)"/>
      <use xlink:href="#DejaVuSans-76" transform="translate(1004.919922 0)"/>
      <use xlink:href="#DejaVuSans-6f" transform="translate(1064.099609 0)"/>
      <use xlink:href="#DejaVuSans-6c" transform="translate(1125.28125 0)"/>
      <use xlink:href="#DejaVuSans-75" transform="translate(1153.064453 0)"/>
      <use xlink:href="#DejaVuSans-6d" transform="translate(1216.443359 0)"/>
      <use xlink:href="#DejaVuSans-65" transform="translate(1313.855469 0)"/>
     </g>
    </g>
   </g>
   <g id="line2d_43">
    <path d="M 78.934592 461.728587 
L 93.873621 441.718421 
L 108.812651 438.30781 
L 123.75168 436.096843 
L 138.69071 434.216449 
L 153.629739 432.69669 
L 168.568768 431.450053 
L 183.507798 430.400053 
L 198.446827 429.49545 
L 213.385857 428.70221 
L 228.324886 427.997004 
L 243.263916 427.363209 
L 258.202945 426.788591 
L 273.141974 426.263822 
L 288.081004 425.781695 
L 303.020033 425.336477 
L 317.959063 424.923508 
L 332.898092 424.53897 
L 347.837122 424.179682 
L 362.776151 423.84298 
L 377.715181 423.526621 
L 392.65421 423.228705 
L 407.593239 422.947598 
L 422.532269 422.681873 
L 437.471298 422.430276 
L 452.410328 422.191698 
L 467.349357 421.965167 
L 482.288387 421.749823 
L 497.227416 421.544907 
L 512.166445 421.349745 
L 527.105475 421.163743 
L 542.044504 420.986371 
" clip-path="url(#pe60cfd494f)" style="fill: none; stroke: #1f77b4; stroke-width: 1.5; stroke-linecap: square"/>
   </g>
   <g id="line2d_44">
    <path d="M 78.934592 439.315023 
L 93.873621 419.033989 
L 108.812651 415.594047 
L 123.75168 413.61316 
L 138.69071 411.968963 
L 153.629739 410.712222 
L 168.568768 409.75347 
L 183.507798 409.010015 
L 198.446827 408.425908 
L 213.385857 407.96388 
L 228.324886 407.598361 
L 243.263916 407.311129 
L 258.202945 407.088783 
L 273.141974 406.921111 
L 288.081004 406.800205 
L 303.020033 406.719775 
L 317.959063 406.674727 
L 332.898092 406.660878 
L 347.837122 406.674752 
L 362.776151 406.713436 
L 377.715181 406.774468 
L 392.65421 406.855747 
L 407.593239 406.955462 
L 422.532269 407.072036 
L 437.471298 407.204094 
L 452.410328 407.35043 
L 467.349357 407.509988 
L 482.288387 407.681836 
L 497.227416 407.865151 
L 512.166445 408.059202 
L 527.105475 408.263338 
L 542.044504 408.476974 
" clip-path="url(#pe60cfd494f)" style="fill: none; stroke: #ff7f0e; stroke-width: 1.5; stroke-linecap: square"/>
   </g>
   <g id="line2d_45">
    <path d="M 78.934592 419.627235 
L 93.873621 400.680508 
L 108.812651 397.625609 
L 123.75168 396.361208 
L 138.69071 395.414081 
L 153.629739 394.85842 
L 168.568768 394.609446 
L 183.507798 394.582728 
L 198.446827 394.720516 
L 213.385857 394.984273 
L 228.324886 395.347551 
L 243.263916 395.791526 
L 258.202945 396.302349 
L 273.141974 396.8695 
L 288.081004 397.484815 
L 303.020033 398.141806 
L 317.959063 398.835239 
L 332.898092 399.560803 
L 347.837122 400.314915 
L 362.776151 401.094575 
L 377.715181 401.897245 
L 392.65421 402.720759 
L 407.593239 403.563245 
L 422.532269 404.423081 
L 437.471298 405.298849 
L 452.410328 406.189315 
L 467.349357 407.093394 
L 482.288387 408.010127 
L 497.227416 408.938668 
L 512.166445 409.878263 
L 527.105475 410.828243 
L 542.044504 411.788005 
" clip-path="url(#pe60cfd494f)" style="fill: none; stroke: #2ca02c; stroke-width: 1.5; stroke-linecap: square"/>
   </g>
   <g id="line2d_46">
    <path d="M 78.934592 400.843561 
L 93.873621 384.277337 
L 108.812651 381.770236 
L 123.75168 381.478881 
L 138.69071 381.474728 
L 153.629739 381.85393 
L 168.568768 382.540205 
L 183.507798 383.449749 
L 198.446827 384.5245 
L 213.385857 385.725646 
L 228.324886 387.026555 
L 243.263916 388.408301 
L 258.202945 389.856961 
L 273.141974 391.361993 
L 288.081004 392.915208 
L 303.020033 394.5101 
L 317.959063 396.141437 
L 332.898092 397.804904 
L 347.837122 399.496913 
L 362.776151 401.214461 
L 377.715181 402.955009 
L 392.65421 404.716389 
L 407.593239 406.496729 
L 422.532269 408.294405 
L 437.471298 410.108003 
L 452.410328 411.936291 
L 467.349357 413.778185 
L 482.288387 415.632726 
L 497.227416 417.499066 
L 512.166445 419.376452 
L 527.105475 421.264214 
L 542.044504 423.161749 
" clip-path="url(#pe60cfd494f)" style="fill: none; stroke: #d62728; stroke-width: 1.5; stroke-linecap: square"/>
   </g>
   <g id="line2d_47">
    <path d="M 78.934592 382.016758 
L 93.873621 368.62202 
L 108.812651 366.791244 
L 123.75168 367.657321 
L 138.69071 368.784522 
L 153.629739 370.277617 
L 168.568768 372.071583 
L 183.507798 374.085261 
L 198.446827 376.261489 
L 213.385857 378.56196 
L 228.324886 380.960396 
L 243.263916 383.438148 
L 258.202945 385.981508 
L 273.141974 388.580118 
L 288.081004 391.225937 
L 303.020033 393.912576 
L 317.959063 396.634904 
L 332.898092 399.388696 
L 347.837122 402.170433 
L 362.776151 404.97717 
L 377.715181 407.806421 
L 392.65421 410.656062 
L 407.593239 413.524262 
L 422.532269 416.409431 
L 437.471298 419.310185 
L 452.410328 422.225317 
L 467.349357 425.153769 
L 482.288387 428.094599 
L 497.227416 431.046977 
L 512.166445 434.010165 
L 527.105475 436.983505 
L 542.044504 439.966407 
" clip-path="url(#pe60cfd494f)" style="fill: none; stroke: #9467bd; stroke-width: 1.5; stroke-linecap: square"/>
   </g>
   <g id="line2d_48">
    <path d="M 78.934592 362.702854 
L 93.873621 353.107884 
L 108.812651 352.231475 
L 123.75168 354.446232 
L 138.69071 356.923168 
L 153.629739 359.738019 
L 168.568768 362.838976 
L 183.507798 366.150237 
L 198.446827 369.617181 
L 213.385857 373.203041 
L 228.324886 376.882592 
L 243.263916 380.637945 
L 258.202945 384.455968 
L 273.141974 388.32674 
L 288.081004 392.242584 
L 303.020033 396.197385 
L 317.959063 400.186242 
L 332.898092 404.205127 
L 347.837122 408.250677 
L 362.776151 412.32008 
L 377.715181 416.410966 
L 392.65421 420.521308 
L 407.593239 424.64936 
L 422.532269 428.793607 
L 437.471298 432.952727 
L 452.410328 437.125572 
L 467.349357 441.311129 
L 482.288387 445.508502 
L 497.227416 449.716895 
L 512.166445 453.935604 
L 527.105475 458.164 
L 542.044504 462.401521 
" clip-path="url(#pe60cfd494f)" style="fill: none; stroke: #8c564b; stroke-width: 1.5; stroke-linecap: square"/>
   </g>
   <g id="line2d_49">
    <path d="M 78.934592 342.747287 
L 93.873621 337.381831 
L 108.812651 337.984941 
L 123.75168 341.773935 
L 138.69071 345.882387 
L 153.629739 350.291054 
L 168.568768 354.960044 
L 183.507798 359.822281 
L 198.446827 364.827857 
L 213.385857 369.942917 
L 228.324886 375.144201 
L 243.263916 380.415216 
L 258.202945 385.743868 
L 273.141974 391.121019 
L 288.081004 396.539615 
L 303.020033 401.994029 
L 317.959063 407.479753 
L 332.898092 412.993091 
L 347.837122 418.53095 
L 362.776151 424.090747 
L 377.715181 429.670301 
L 392.65421 435.267754 
L 407.593239 440.881502 
L 422.532269 446.510154 
L 437.471298 452.152496 
L 452.410328 457.80747 
L 467.349357 463.474147 
L 482.288387 469.151702 
L 497.227416 474.839403 
L 512.166445 480.536601 
L 527.105475 486.242717 
L 542.044504 491.957236 
" clip-path="url(#pe60cfd494f)" style="fill: none; stroke: #e377c2; stroke-width: 1.5; stroke-linecap: square"/>
   </g>
   <g id="line2d_50">
    <path d="M 78.934592 322.154565 
L 93.873621 321.176492 
L 108.812651 323.921324 
L 123.75168 329.536378 
L 138.69071 335.591387 
L 153.629739 341.908578 
L 168.568768 348.450452 
L 183.507798 355.161056 
L 198.446827 361.997274 
L 213.385857 368.929495 
L 228.324886 375.937317 
L 243.263916 383.006266 
L 258.202945 390.125739 
L 273.141974 397.28772 
L 288.081004 404.486033 
L 303.020033 411.71575 
L 317.959063 418.97292 
L 332.898092 426.254309 
L 347.837122 433.55721 
L 362.776151 440.87936 
L 377.715181 448.218849 
L 392.65421 455.574051 
L 407.593239 462.943561 
L 422.532269 470.326162 
L 437.471298 477.72079 
L 452.410328 485.126518 
L 467.349357 492.542532 
L 482.288387 499.968106 
L 497.227416 507.4026 
L 512.166445 514.845444 
L 527.105475 522.29613 
L 542.044504 529.754204 
" clip-path="url(#pe60cfd494f)" style="fill: none; stroke: #7f7f7f; stroke-width: 1.5; stroke-linecap: square"/>
   </g>
   <g id="patch_9">
    <path d="M 55.779096 543.692394 
L 55.779096 310.747606 
" style="fill: none; stroke: #000000; stroke-width: 0.8; stroke-linejoin: miter; stroke-linecap: square"/>
   </g>
   <g id="patch_10">
    <path d="M 565.2 543.692394 
L 565.2 310.747606 
" style="fill: none; stroke: #000000; stroke-width: 0.8; stroke-linejoin: miter; stroke-linecap: square"/>
   </g>
   <g id="patch_11">
    <path d="M 55.779096 543.692394 
L 565.2 543.692394 
" style="fill: none; stroke: #000000; stroke-width: 0.8; stroke-linejoin: miter; stroke-linecap: square"/>
   </g>
   <g id="patch_12">
    <path d="M 55.779096 310.747606 
L 565.2 310.747606 
" style="fill: none; stroke: #000000; stroke-width: 0.8; stroke-linejoin: miter; stroke-linecap: square"/>
   </g>
  </g>
  <g id="axes_3">
   <g id="patch_13">
    <path d="M 55.779096 822.04 
L 565.2 822.04 
L 565.2 589.095213 
L 55.779096 589.095213 
z
" style="fill: #ffffff"/>
   </g>
   <g id="matplotlib.axis_5">
    <g id="xtick_13">
     <g id="line2d_51">
      <g>
       <use xlink:href="#mc233e30695" x="71.465077" y="822.04" style="stroke: #000000; stroke-width: 0.8"/>
      </g>
     </g>
     <g id="text_39">
      <!-- 0 -->
      <g transform="translate(68.283827 836.638438) scale(0.1 -0.1)">
       <use xlink:href="#DejaVuSans-30"/>
      </g>
     </g>
    </g>
    <g id="xtick_14">
     <g id="line2d_52">
      <g>
       <use xlink:href="#mc233e30695" x="164.834011" y="822.04" style="stroke: #000000; stroke-width: 0.8"/>
      </g>
     </g>
     <g id="text_40">
      <!-- 50 -->
      <g transform="translate(158.471511 836.638438) scale(0.1 -0.1)">
       <use xlink:href="#DejaVuSans-35"/>
       <use xlink:href="#DejaVuSans-30" transform="translate(63.623047 0)"/>
      </g>
     </g>
    </g>
    <g id="xtick_15">
     <g id="line2d_53">
      <g>
       <use xlink:href="#mc233e30695" x="258.202945" y="822.04" style="stroke: #000000; stroke-width: 0.8"/>
      </g>
     </g>
     <g id="text_41">
      <!-- 100 -->
      <g transform="translate(248.659195 836.638438) scale(0.1 -0.1)">
       <use xlink:href="#DejaVuSans-31"/>
       <use xlink:href="#DejaVuSans-30" transform="translate(63.623047 0)"/>
       <use xlink:href="#DejaVuSans-30" transform="translate(127.246094 0)"/>
      </g>
     </g>
    </g>
    <g id="xtick_16">
     <g id="line2d_54">
      <g>
       <use xlink:href="#mc233e30695" x="351.571879" y="822.04" style="stroke: #000000; stroke-width: 0.8"/>
      </g>
     </g>
     <g id="text_42">
      <!-- 150 -->
      <g transform="translate(342.028129 836.638438) scale(0.1 -0.1)">
       <use xlink:href="#DejaVuSans-31"/>
       <use xlink:href="#DejaVuSans-35" transform="translate(63.623047 0)"/>
       <use xlink:href="#DejaVuSans-30" transform="translate(127.246094 0)"/>
      </g>
     </g>
    </g>
    <g id="xtick_17">
     <g id="line2d_55">
      <g>
       <use xlink:href="#mc233e30695" x="444.940813" y="822.04" style="stroke: #000000; stroke-width: 0.8"/>
      </g>
     </g>
     <g id="text_43">
      <!-- 200 -->
      <g transform="translate(435.397063 836.638438) scale(0.1 -0.1)">
       <use xlink:href="#DejaVuSans-32"/>
       <use xlink:href="#DejaVuSans-30" transform="translate(63.623047 0)"/>
       <use xlink:href="#DejaVuSans-30" transform="translate(127.246094 0)"/>
      </g>
     </g>
    </g>
    <g id="xtick_18">
     <g id="line2d_56">
      <g>
       <use xlink:href="#mc233e30695" x="538.309747" y="822.04" style="stroke: #000000; stroke-width: 0.8"/>
      </g>
     </g>
     <g id="text_44">
      <!-- 250 -->
      <g transform="translate(528.765997 836.638438) scale(0.1 -0.1)">
       <use xlink:href="#DejaVuSans-32"/>
       <use xlink:href="#DejaVuSans-35" transform="translate(63.623047 0)"/>
       <use xlink:href="#DejaVuSans-30" transform="translate(127.246094 0)"/>
      </g>
     </g>
    </g>
    <g id="text_45">
     <!-- Time (days) -->
     <g transform="translate(280.962986 850.316563) scale(0.1 -0.1)">
      <use xlink:href="#DejaVuSans-54"/>
      <use xlink:href="#DejaVuSans-69" transform="translate(57.958984 0)"/>
      <use xlink:href="#DejaVuSans-6d" transform="translate(85.742188 0)"/>
      <use xlink:href="#DejaVuSans-65" transform="translate(183.154297 0)"/>
      <use xlink:href="#DejaVuSans-20" transform="translate(244.677734 0)"/>
      <use xlink:href="#DejaVuSans-28" transform="translate(276.464844 0)"/>
      <use xlink:href="#DejaVuSans-64" transform="translate(315.478516 0)"/>
      <use xlink:href="#DejaVuSans-61" transform="translate(378.955078 0)"/>
      <use xlink:href="#DejaVuSans-79" transform="translate(440.234375 0)"/>
      <use xlink:href="#DejaVuSans-73" transform="translate(499.414062 0)"/>
      <use xlink:href="#DejaVuSans-29" transform="translate(551.513672 0)"/>
     </g>
    </g>
   </g>
   <g id="matplotlib.axis_6">
    <g id="ytick_15">
     <g id="line2d_57">
      <g>
       <use xlink:href="#m7885bdc9cd" x="55.779096" y="822.04" style="stroke: #000000; stroke-width: 0.8"/>
      </g>
     </g>
     <g id="text_46">
      <!-- 0 -->
      <g transform="translate(42.416596 825.839219) scale(0.1 -0.1)">
       <use xlink:href="#DejaVuSans-30"/>
      </g>
     </g>
    </g>
    <g id="ytick_16">
     <g id="line2d_58">
      <g>
       <use xlink:href="#m7885bdc9cd" x="55.779096" y="779.081165" style="stroke: #000000; stroke-width: 0.8"/>
      </g>
     </g>
     <g id="text_47">
      <!-- 2 -->
      <g transform="translate(42.416596 782.880383) scale(0.1 -0.1)">
       <use xlink:href="#DejaVuSans-32"/>
      </g>
     </g>
    </g>
    <g id="ytick_17">
     <g id="line2d_59">
      <g>
       <use xlink:href="#m7885bdc9cd" x="55.779096" y="736.122329" style="stroke: #000000; stroke-width: 0.8"/>
      </g>
     </g>
     <g id="text_48">
      <!-- 4 -->
      <g transform="translate(42.416596 739.921548) scale(0.1 -0.1)">
       <use xlink:href="#DejaVuSans-34"/>
      </g>
     </g>
    </g>
    <g id="ytick_18">
     <g id="line2d_60">
      <g>
       <use xlink:href="#m7885bdc9cd" x="55.779096" y="693.163494" style="stroke: #000000; stroke-width: 0.8"/>
      </g>
     </g>
     <g id="text_49">
      <!-- 6 -->
      <g transform="translate(42.416596 696.962713) scale(0.1 -0.1)">
       <use xlink:href="#DejaVuSans-36"/>
      </g>
     </g>
    </g>
    <g id="ytick_19">
     <g id="line2d_61">
      <g>
       <use xlink:href="#m7885bdc9cd" x="55.779096" y="650.204659" style="stroke: #000000; stroke-width: 0.8"/>
      </g>
     </g>
     <g id="text_50">
      <!-- 8 -->
      <g transform="translate(42.416596 654.003878) scale(0.1 -0.1)">
       <use xlink:href="#DejaVuSans-38"/>
      </g>
     </g>
    </g>
    <g id="ytick_20">
     <g id="line2d_62">
      <g>
       <use xlink:href="#m7885bdc9cd" x="55.779096" y="607.245823" style="stroke: #000000; stroke-width: 0.8"/>
      </g>
     </g>
     <g id="text_51">
      <!-- 10 -->
      <g transform="translate(36.054096 611.045042) scale(0.1 -0.1)">
       <use xlink:href="#DejaVuSans-31"/>
       <use xlink:href="#DejaVuSans-30" transform="translate(63.623047 0)"/>
      </g>
     </g>
    </g>
    <g id="text_52">
     <!-- Period-averaged resource (nutrient) -->
     <g transform="translate(29.974409 795.252763) rotate(-90) scale(0.1 -0.1)">
      <use xlink:href="#DejaVuSans-50"/>
      <use xlink:href="#DejaVuSans-65" transform="translate(56.677734 0)"/>
      <use xlink:href="#DejaVuSans-72" transform="translate(118.201172 0)"/>
      <use xlink:href="#DejaVuSans-69" transform="translate(159.314453 0)"/>
      <use xlink:href="#DejaVuSans-6f" transform="translate(187.097656 0)"/>
      <use xlink:href="#DejaVuSans-64" transform="translate(248.279297 0)"/>
      <use xlink:href="#DejaVuSans-2d" transform="translate(311.755859 0)"/>
      <use xlink:href="#DejaVuSans-61" transform="translate(347.839844 0)"/>
      <use xlink:href="#DejaVuSans-76" transform="translate(409.119141 0)"/>
      <use xlink:href="#DejaVuSans-65" transform="translate(468.298828 0)"/>
      <use xlink:href="#DejaVuSans-72" transform="translate(529.822266 0)"/>
      <use xlink:href="#DejaVuSans-61" transform="translate(570.935547 0)"/>
      <use xlink:href="#DejaVuSans-67" transform="translate(632.214844 0)"/>
      <use xlink:href="#DejaVuSans-65" transform="translate(695.691406 0)"/>
      <use xlink:href="#DejaVuSans-64" transform="translate(757.214844 0)"/>
      <use xlink:href="#DejaVuSans-20" transform="translate(820.691406 0)"/>
      <use xlink:href="#DejaVuSans-72" transform="translate(852.478516 0)"/>
      <use xlink:href="#DejaVuSans-65" transform="translate(891.341797 0)"/>
      <use xlink:href="#DejaVuSans-73" transform="translate(952.865234 0)"/>
      <use xlink:href="#DejaVuSans-6f" transform="translate(1004.964844 0)"/>
      <use xlink:href="#DejaVuSans-75" transform="translate(1066.146484 0)"/>
      <use xlink:href="#DejaVuSans-72" transform="translate(1129.525391 0)"/>
      <use xlink:href="#DejaVuSans-63" transform="translate(1168.388672 0)"/>
      <use xlink:href="#DejaVuSans-65" transform="translate(1223.369141 0)"/>
      <use xlink:href="#DejaVuSans-20" transform="translate(1284.892578 0)"/>
      <use xlink:href="#DejaVuSans-28" transform="translate(1316.679688 0)"/>
      <use xlink:href="#DejaVuSans-6e" transform="translate(1355.693359 0)"/>
      <use xlink:href="#DejaVuSans-75" transform="translate(1419.072266 0)"/>
      <use xlink:href="#DejaVuSans-74" transform="translate(1482.451172 0)"/>
      <use xlink:href="#DejaVuSans-72" transform="translate(1521.660156 0)"/>
      <use xlink:href="#DejaVuSans-69" transform="translate(1562.773438 0)"/>
      <use xlink:href="#DejaVuSans-65" transform="translate(1590.556641 0)"/>
      <use xlink:href="#DejaVuSans-6e" transform="translate(1652.080078 0)"/>
      <use xlink:href="#DejaVuSans-74" transform="translate(1715.458984 0)"/>
      <use xlink:href="#DejaVuSans-29" transform="translate(1754.667969 0)"/>
     </g>
    </g>
   </g>
   <g id="line2d_63">
    <path d="M 78.934592 599.532871 
L 93.873621 788.969764 
L 108.812651 803.747938 
L 123.75168 803.665792 
L 138.69071 804.509508 
L 153.629739 805.323864 
L 168.568768 805.91204 
L 183.507798 806.334785 
L 198.446827 806.649209 
L 213.385857 806.89173 
L 228.324886 807.084648 
L 243.263916 807.242107 
L 258.202945 807.37333 
L 273.141974 807.484545 
L 288.081004 807.580142 
L 303.020033 807.663291 
L 317.959063 807.736362 
L 332.898092 807.801081 
L 347.837122 807.858866 
L 362.776151 807.910831 
L 377.715181 807.957857 
L 392.65421 808.00064 
L 407.593239 808.039754 
L 422.532269 808.075668 
L 437.471298 808.108783 
L 452.410328 808.139468 
L 467.349357 808.167997 
L 482.288387 808.19463 
L 497.227416 808.219579 
L 512.166445 808.243035 
L 527.105475 808.265147 
L 542.044504 808.286042 
" clip-path="url(#p4e8fdaa8ac)" style="fill: none; stroke: #1f77b4; stroke-width: 1.5; stroke-linecap: square"/>
   </g>
   <g id="patch_14">
    <path d="M 55.779096 822.04 
L 55.779096 589.095213 
" style="fill: none; stroke: #000000; stroke-width: 0.8; stroke-linejoin: miter; stroke-linecap: square"/>
   </g>
   <g id="patch_15">
    <path d="M 565.2 822.04 
L 565.2 589.095213 
" style="fill: none; stroke: #000000; stroke-width: 0.8; stroke-linejoin: miter; stroke-linecap: square"/>
   </g>
   <g id="patch_16">
    <path d="M 55.779096 822.04 
L 565.2 822.04 
" style="fill: none; stroke: #000000; stroke-width: 0.8; stroke-linejoin: miter; stroke-linecap: square"/>
   </g>
   <g id="patch_17">
    <path d="M 55.779096 589.095213 
L 565.2 589.095213 
" style="fill: none; stroke: #000000; stroke-width: 0.8; stroke-linejoin: miter; stroke-linecap: square"/>
   </g>
  </g>
  <g id="text_53">
   <!-- Mixing every 8.0 days: Period-Averaged Time Series -->
   <g transform="translate(131.890312 26.398125) scale(0.12 -0.12)">
    <defs>
     <path id="DejaVuSans-4d" d="M 628 4666 
L 1569 4666 
L 2759 1491 
L 3956 4666 
L 4897 4666 
L 4897 0 
L 4281 0 
L 4281 4097 
L 3078 897 
L 2444 897 
L 1241 4097 
L 1241 0 
L 628 0 
L 628 4666 
z
" transform="scale(0.015625)"/>
     <path id="DejaVuSans-78" d="M 3513 3500 
L 2247 1797 
L 3578 0 
L 2900 0 
L 1881 1375 
L 863 0 
L 184 0 
L 1544 1831 
L 300 3500 
L 978 3500 
L 1906 2253 
L 2834 3500 
L 3513 3500 
z
" transform="scale(0.015625)"/>
     <path id="DejaVuSans-3a" d="M 750 794 
L 1409 794 
L 1409 0 
L 750 0 
L 750 794 
z
M 750 3309 
L 1409 3309 
L 1409 2516 
L 750 2516 
L 750 3309 
z
" transform="scale(0.015625)"/>
     <path id="DejaVuSans-41" d="M 2188 4044 
L 1331 1722 
L 3047 1722 
L 2188 4044 
z
M 1831 4666 
L 2547 4666 
L 4325 0 
L 3669 0 
L 3244 1197 
L 1141 1197 
L 716 0 
L 50 0 
L 1831 4666 
z
" transform="scale(0.015625)"/>
     <path id="DejaVuSans-53" d="M 3425 4513 
L 3425 3897 
Q 3066 4069 2747 4153 
Q 2428 4238 2131 4238 
Q 1616 4238 1336 4038 
Q 1056 3838 1056 3469 
Q 1056 3159 1242 3001 
Q 1428 2844 1947 2747 
L 2328 2669 
Q 3034 2534 3370 2195 
Q 3706 1856 3706 1288 
Q 3706 609 3251 259 
Q 2797 -91 1919 -91 
Q 1588 -91 1214 -16 
Q 841 59 441 206 
L 441 856 
Q 825 641 1194 531 
Q 1563 422 1919 422 
Q 2459 422 2753 634 
Q 3047 847 3047 1241 
Q 3047 1584 2836 1778 
Q 2625 1972 2144 2069 
L 1759 2144 
Q 1053 2284 737 2584 
Q 422 2884 422 3419 
Q 422 4038 858 4394 
Q 1294 4750 2059 4750 
Q 2388 4750 2728 4690 
Q 3069 4631 3425 4513 
z
" transform="scale(0.015625)"/>
    </defs>
    <use xlink:href="#DejaVuSans-4d"/>
    <use xlink:href="#DejaVuSans-69" transform="translate(86.279297 0)"/>
    <use xlink:href="#DejaVuSans-78" transform="translate(114.0625 0)"/>
    <use xlink:href="#DejaVuSans-69" transform="translate(173.242188 0)"/>
    <use xlink:href="#DejaVuSans-6e" transform="translate(201.025391 0)"/>
    <use xlink:href="#DejaVuSans-67" transform="translate(264.404297 0)"/>
    <use xlink:href="#DejaVuSans-20" transform="translate(327.880859 0)"/>
    <use xlink:href="#DejaVuSans-65" transform="translate(359.667969 0)"/>
    <use xlink:href="#DejaVuSans-76" transform="translate(421.191406 0)"/>
    <use xlink:href="#DejaVuSans-65" transform="translate(480.371094 0)"/>
    <use xlink:href="#DejaVuSans-72" transform="translate(541.894531 0)"/>
    <use xlink:href="#DejaVuSans-79" transform="translate(583.007812 0)"/>
    <use xlink:href="#DejaVuSans-20" transform="translate(642.1875 0)"/>
    <use xlink:href="#DejaVuSans-38" transform="translate(673.974609 0)"/>
    <use xlink:href="#DejaVuSans-2e" transform="translate(737.597656 0)"/>
    <use xlink:href="#DejaVuSans-30" transform="translate(769.384766 0)"/>
    <use xlink:href="#DejaVuSans-20" transform="translate(833.007812 0)"/>
    <use xlink:href="#DejaVuSans-64" transform="translate(864.794922 0)"/>
    <use xlink:href="#DejaVuSans-61" transform="translate(928.271484 0)"/>
    <use xlink:href="#DejaVuSans-79" transform="translate(989.550781 0)"/>
    <use xlink:href="#DejaVuSans-73" transform="translate(1048.730469 0)"/>
    <use xlink:href="#DejaVuSans-3a" transform="translate(1100.830078 0)"/>
    <use xlink:href="#DejaVuSans-20" transform="translate(1134.521484 0)"/>
    <use xlink:href="#DejaVuSans-50" transform="translate(1166.308594 0)"/>
    <use xlink:href="#DejaVuSans-65" transform="translate(1222.986328 0)"/>
    <use xlink:href="#DejaVuSans-72" transform="translate(1284.509766 0)"/>
    <use xlink:href="#DejaVuSans-69" transform="translate(1325.623047 0)"/>
    <use xlink:href="#DejaVuSans-6f" transform="translate(1353.40625 0)"/>
    <use xlink:href="#DejaVuSans-64" transform="translate(1414.587891 0)"/>
    <use xlink:href="#DejaVuSans-2d" transform="translate(1478.064453 0)"/>
    <use xlink:href="#DejaVuSans-41" transform="translate(1511.898438 0)"/>
    <use xlink:href="#DejaVuSans-76" transform="translate(1574.431641 0)"/>
    <use xlink:href="#DejaVuSans-65" transform="translate(1633.611328 0)"/>
    <use xlink:href="#DejaVuSans-72" transform="translate(1695.134766 0)"/>
    <use xlink:href="#DejaVuSans-61" transform="translate(1736.248047 0)"/>
    <use xlink:href="#DejaVuSans-67" transform="translate(1797.527344 0)"/>
    <use xlink:href="#DejaVuSans-65" transform="translate(1861.003906 0)"/>
    <use xlink:href="#DejaVuSans-64" transform="translate(1922.527344 0)"/>
    <use xlink:href="#DejaVuSans-20" transform="translate(1986.003906 0)"/>
    <use xlink:href="#DejaVuSans-54" transform="translate(2017.791016 0)"/>
    <use xlink:href="#DejaVuSans-69" transform="translate(2075.75 0)"/>
    <use xlink:href="#DejaVuSans-6d" transform="translate(2103.533203 0)"/>
    <use xlink:href="#DejaVuSans-65" transform="translate(2200.945312 0)"/>
    <use xlink:href="#DejaVuSans-20" transform="translate(2262.46875 0)"/>
    <use xlink:href="#DejaVuSans-53" transform="translate(2294.255859 0)"/>
    <use xlink:href="#DejaVuSans-65" transform="translate(2357.732422 0)"/>
    <use xlink:href="#DejaVuSans-72" transform="translate(2419.255859 0)"/>
    <use xlink:href="#DejaVuSans-69" transform="translate(2460.369141 0)"/>
    <use xlink:href="#DejaVuSans-65" transform="translate(2488.152344 0)"/>
    <use xlink:href="#DejaVuSans-73" transform="translate(2549.675781 0)"/>
   </g>
  </g>
 </g>
 <defs>
  <clipPath id="pfd6930b455">
   <rect x="55.779096" y="32.4" width="509.420904" height="232.944787"/>
  </clipPath>
  <clipPath id="pe60cfd494f">
   <rect x="55.779096" y="310.747606" width="509.420904" height="232.944787"/>
  </clipPath>
  <clipPath id="p4e8fdaa8ac">
   <rect x="55.779096" y="589.095213" width="509.420904" height="232.944787"/>
  </clipPath>
 </defs>
</svg>
