<?xml version="1.0" encoding="utf-8" standalone="no"?>
<!DOCTYPE svg PUBLIC "-//W3C//DTD SVG 1.1//EN"
  "http://www.w3.org/Graphics/SVG/1.1/DTD/svg11.dtd">
<svg xmlns:xlink="http://www.w3.org/1999/xlink" width="576pt" height="864pt" viewBox="0 0 576 864" xmlns="http://www.w3.org/2000/svg" version="1.1">
 <metadata>
  <rdf:RDF xmlns:dc="http://purl.org/dc/elements/1.1/" xmlns:cc="http://creativecommons.org/ns#" xmlns:rdf="http://www.w3.org/1999/02/22-rdf-syntax-ns#">
   <cc:Work>
    <dc:type rdf:resource="http://purl.org/dc/dcmitype/StillImage"/>
    <dc:date>2025-12-25T16:23:13.900972</dc:date>
    <dc:format>image/svg+xml</dc:format>
    <dc:creator>
     <cc:Agent>
      <dc:title>Matplotlib v3.10.6, https://matplotlib.org/</dc:title>
     </cc:Agent>
    </dc:creator>
   </cc:Work>
  </rdf:RDF>
 </metadata>
 <defs>
  <style type="text/css">*{stroke-linejoin: round; stroke-linecap: butt}</style>
 </defs>
 <g id="figure_1">
  <g id="patch_1">
   <path d="M 0 864 
L 576 864 
L 576 0 
L 0 0 
z
" style="fill: #ffffff"/>
  </g>
  <g id="axes_1">
   <g id="patch_2">
    <path d="M 55.779096 267.64 
L 565.2 267.64 
L 565.2 32.4 
L 55.779096 32.4 
z
" style="fill: #ffffff"/>
   </g>
   <g id="matplotlib.axis_1">
    <g id="xtick_1">
     <g id="line2d_1">
      <defs>
       <path id="m5ef7e65e7b" d="M 0 0 
L 0 3.5 
" style="stroke: #000000; stroke-width: 0.8"/>
      </defs>
      <g>
       <use xlink:href="#m5ef7e65e7b" x="78.934592" y="267.64" style="stroke: #000000; stroke-width: 0.8"/>
      </g>
     </g>
     <g id="text_1">
      <!-- 0 -->
      <g transform="translate(75.753342 282.238438) scale(0.1 -0.1)">
       <defs>
        <path id="DejaVuSans-30" d="M 2034 4250 
Q 1547 4250 1301 3770 
Q 1056 3291 1056 2328 
Q 1056 1369 1301 889 
Q 1547 409 2034 409 
Q 2525 409 2770 889 
Q 3016 1369 3016 2328 
Q 3016 3291 2770 3770 
Q 2525 4250 2034 4250 
z
M 2034 4750 
Q 2819 4750 3233 4129 
Q 3647 3509 3647 2328 
Q 3647 1150 3233 529 
Q 2819 -91 2034 -91 
Q 1250 -91 836 529 
Q 422 1150 422 2328 
Q 422 3509 836 4129 
Q 1250 4750 2034 4750 
z
" transform="scale(0.015625)"/>
       </defs>
       <use xlink:href="#DejaVuSans-30"/>
      </g>
     </g>
    </g>
    <g id="xtick_2">
     <g id="line2d_2">
      <g>
       <use xlink:href="#m5ef7e65e7b" x="136.823331" y="267.64" style="stroke: #000000; stroke-width: 0.8"/>
      </g>
     </g>
     <g id="text_2">
      <!-- 1 -->
      <g transform="translate(133.642081 282.238438) scale(0.1 -0.1)">
       <defs>
        <path id="DejaVuSans-31" d="M 794 531 
L 1825 531 
L 1825 4091 
L 703 3866 
L 703 4441 
L 1819 4666 
L 2450 4666 
L 2450 531 
L 3481 531 
L 3481 0 
L 794 0 
L 794 531 
z
" transform="scale(0.015625)"/>
       </defs>
       <use xlink:href="#DejaVuSans-31"/>
      </g>
     </g>
    </g>
    <g id="xtick_3">
     <g id="line2d_3">
      <g>
       <use xlink:href="#m5ef7e65e7b" x="194.71207" y="267.64" style="stroke: #000000; stroke-width: 0.8"/>
      </g>
     </g>
     <g id="text_3">
      <!-- 2 -->
      <g transform="translate(191.53082 282.238438) scale(0.1 -0.1)">
       <defs>
        <path id="DejaVuSans-32" d="M 1228 531 
L 3431 531 
L 3431 0 
L 469 0 
L 469 531 
Q 828 903 1448 1529 
Q 2069 2156 2228 2338 
Q 2531 2678 2651 2914 
Q 2772 3150 2772 3378 
Q 2772 3750 2511 3984 
Q 2250 4219 1831 4219 
Q 1534 4219 1204 4116 
Q 875 4013 500 3803 
L 500 4441 
Q 881 4594 1212 4672 
Q 1544 4750 1819 4750 
Q 2544 4750 2975 4387 
Q 3406 4025 3406 3419 
Q 3406 3131 3298 2873 
Q 3191 2616 2906 2266 
Q 2828 2175 2409 1742 
Q 1991 1309 1228 531 
z
" transform="scale(0.015625)"/>
       </defs>
       <use xlink:href="#DejaVuSans-32"/>
      </g>
     </g>
    </g>
    <g id="xtick_4">
     <g id="line2d_4">
      <g>
       <use xlink:href="#m5ef7e65e7b" x="252.600809" y="267.64" style="stroke: #000000; stroke-width: 0.8"/>
      </g>
     </g>
     <g id="text_4">
      <!-- 3 -->
      <g transform="translate(249.419559 282.238438) scale(0.1 -0.1)">
       <defs>
        <path id="DejaVuSans-33" d="M 2597 2516 
Q 3050 2419 3304 2112 
Q 3559 1806 3559 1356 
Q 3559 666 3084 287 
Q 2609 -91 1734 -91 
Q 1441 -91 1130 -33 
Q 819 25 488 141 
L 488 750 
Q 750 597 1062 519 
Q 1375 441 1716 441 
Q 2309 441 2620 675 
Q 2931 909 2931 1356 
Q 2931 1769 2642 2001 
Q 2353 2234 1838 2234 
L 1294 2234 
L 1294 2753 
L 1863 2753 
Q 2328 2753 2575 2939 
Q 2822 3125 2822 3475 
Q 2822 3834 2567 4026 
Q 2313 4219 1838 4219 
Q 1578 4219 1281 4162 
Q 984 4106 628 3988 
L 628 4550 
Q 988 4650 1302 4700 
Q 1616 4750 1894 4750 
Q 2613 4750 3031 4423 
Q 3450 4097 3450 3541 
Q 3450 3153 3228 2886 
Q 3006 2619 2597 2516 
z
" transform="scale(0.015625)"/>
       </defs>
       <use xlink:href="#DejaVuSans-33"/>
      </g>
     </g>
    </g>
    <g id="xtick_5">
     <g id="line2d_5">
      <g>
       <use xlink:href="#m5ef7e65e7b" x="310.489548" y="267.64" style="stroke: #000000; stroke-width: 0.8"/>
      </g>
     </g>
     <g id="text_5">
      <!-- 4 -->
      <g transform="translate(307.308298 282.238438) scale(0.1 -0.1)">
       <defs>
        <path id="DejaVuSans-34" d="M 2419 4116 
L 825 1625 
L 2419 1625 
L 2419 4116 
z
M 2253 4666 
L 3047 4666 
L 3047 1625 
L 3713 1625 
L 3713 1100 
L 3047 1100 
L 3047 0 
L 2419 0 
L 2419 1100 
L 313 1100 
L 313 1709 
L 2253 4666 
z
" transform="scale(0.015625)"/>
       </defs>
       <use xlink:href="#DejaVuSans-34"/>
      </g>
     </g>
    </g>
    <g id="xtick_6">
     <g id="line2d_6">
      <g>
       <use xlink:href="#m5ef7e65e7b" x="368.378287" y="267.64" style="stroke: #000000; stroke-width: 0.8"/>
      </g>
     </g>
     <g id="text_6">
      <!-- 5 -->
      <g transform="translate(365.197037 282.238438) scale(0.1 -0.1)">
       <defs>
        <path id="DejaVuSans-35" d="M 691 4666 
L 3169 4666 
L 3169 4134 
L 1269 4134 
L 1269 2991 
Q 1406 3038 1543 3061 
Q 1681 3084 1819 3084 
Q 2600 3084 3056 2656 
Q 3513 2228 3513 1497 
Q 3513 744 3044 326 
Q 2575 -91 1722 -91 
Q 1428 -91 1123 -41 
Q 819 9 494 109 
L 494 744 
Q 775 591 1075 516 
Q 1375 441 1709 441 
Q 2250 441 2565 725 
Q 2881 1009 2881 1497 
Q 2881 1984 2565 2268 
Q 2250 2553 1709 2553 
Q 1456 2553 1204 2497 
Q 953 2441 691 2322 
L 691 4666 
z
" transform="scale(0.015625)"/>
       </defs>
       <use xlink:href="#DejaVuSans-35"/>
      </g>
     </g>
    </g>
    <g id="xtick_7">
     <g id="line2d_7">
      <g>
       <use xlink:href="#m5ef7e65e7b" x="426.267026" y="267.64" style="stroke: #000000; stroke-width: 0.8"/>
      </g>
     </g>
     <g id="text_7">
      <!-- 6 -->
      <g transform="translate(423.085776 282.238438) scale(0.1 -0.1)">
       <defs>
        <path id="DejaVuSans-36" d="M 2113 2584 
Q 1688 2584 1439 2293 
Q 1191 2003 1191 1497 
Q 1191 994 1439 701 
Q 1688 409 2113 409 
Q 2538 409 2786 701 
Q 3034 994 3034 1497 
Q 3034 2003 2786 2293 
Q 2538 2584 2113 2584 
z
M 3366 4563 
L 3366 3988 
Q 3128 4100 2886 4159 
Q 2644 4219 2406 4219 
Q 1781 4219 1451 3797 
Q 1122 3375 1075 2522 
Q 1259 2794 1537 2939 
Q 1816 3084 2150 3084 
Q 2853 3084 3261 2657 
Q 3669 2231 3669 1497 
Q 3669 778 3244 343 
Q 2819 -91 2113 -91 
Q 1303 -91 875 529 
Q 447 1150 447 2328 
Q 447 3434 972 4092 
Q 1497 4750 2381 4750 
Q 2619 4750 2861 4703 
Q 3103 4656 3366 4563 
z
" transform="scale(0.015625)"/>
       </defs>
       <use xlink:href="#DejaVuSans-36"/>
      </g>
     </g>
    </g>
    <g id="xtick_8">
     <g id="line2d_8">
      <g>
       <use xlink:href="#m5ef7e65e7b" x="484.155765" y="267.64" style="stroke: #000000; stroke-width: 0.8"/>
      </g>
     </g>
     <g id="text_8">
      <!-- 7 -->
      <g transform="translate(480.974515 282.238438) scale(0.1 -0.1)">
       <defs>
        <path id="DejaVuSans-37" d="M 525 4666 
L 3525 4666 
L 3525 4397 
L 1831 0 
L 1172 0 
L 2766 4134 
L 525 4134 
L 525 4666 
z
" transform="scale(0.015625)"/>
       </defs>
       <use xlink:href="#DejaVuSans-37"/>
      </g>
     </g>
    </g>
    <g id="xtick_9">
     <g id="line2d_9">
      <g>
       <use xlink:href="#m5ef7e65e7b" x="542.044504" y="267.64" style="stroke: #000000; stroke-width: 0.8"/>
      </g>
     </g>
     <g id="text_9">
      <!-- 8 -->
      <g transform="translate(538.863254 282.238438) scale(0.1 -0.1)">
       <defs>
        <path id="DejaVuSans-38" d="M 2034 2216 
Q 1584 2216 1326 1975 
Q 1069 1734 1069 1313 
Q 1069 891 1326 650 
Q 1584 409 2034 409 
Q 2484 409 2743 651 
Q 3003 894 3003 1313 
Q 3003 1734 2745 1975 
Q 2488 2216 2034 2216 
z
M 1403 2484 
Q 997 2584 770 2862 
Q 544 3141 544 3541 
Q 544 4100 942 4425 
Q 1341 4750 2034 4750 
Q 2731 4750 3128 4425 
Q 3525 4100 3525 3541 
Q 3525 3141 3298 2862 
Q 3072 2584 2669 2484 
Q 3125 2378 3379 2068 
Q 3634 1759 3634 1313 
Q 3634 634 3220 271 
Q 2806 -91 2034 -91 
Q 1263 -91 848 271 
Q 434 634 434 1313 
Q 434 1759 690 2068 
Q 947 2378 1403 2484 
z
M 1172 3481 
Q 1172 3119 1398 2916 
Q 1625 2713 2034 2713 
Q 2441 2713 2670 2916 
Q 2900 3119 2900 3481 
Q 2900 3844 2670 4047 
Q 2441 4250 2034 4250 
Q 1625 4250 1398 4047 
Q 1172 3844 1172 3481 
z
" transform="scale(0.015625)"/>
       </defs>
       <use xlink:href="#DejaVuSans-38"/>
      </g>
     </g>
    </g>
    <g id="text_10">
     <!-- Time (days) -->
     <g transform="translate(280.962986 295.916563) scale(0.1 -0.1)">
      <defs>
       <path id="DejaVuSans-54" d="M -19 4666 
L 3928 4666 
L 3928 4134 
L 2272 4134 
L 2272 0 
L 1638 0 
L 1638 4134 
L -19 4134 
L -19 4666 
z
" transform="scale(0.015625)"/>
       <path id="DejaVuSans-69" d="M 603 3500 
L 1178 3500 
L 1178 0 
L 603 0 
L 603 3500 
z
M 603 4863 
L 1178 4863 
L 1178 4134 
L 603 4134 
L 603 4863 
z
" transform="scale(0.015625)"/>
       <path id="DejaVuSans-6d" d="M 3328 2828 
Q 3544 3216 3844 3400 
Q 4144 3584 4550 3584 
Q 5097 3584 5394 3201 
Q 5691 2819 5691 2113 
L 5691 0 
L 5113 0 
L 5113 2094 
Q 5113 2597 4934 2840 
Q 4756 3084 4391 3084 
Q 3944 3084 3684 2787 
Q 3425 2491 3425 1978 
L 3425 0 
L 2847 0 
L 2847 2094 
Q 2847 2600 2669 2842 
Q 2491 3084 2119 3084 
Q 1678 3084 1418 2786 
Q 1159 2488 1159 1978 
L 1159 0 
L 581 0 
L 581 3500 
L 1159 3500 
L 1159 2956 
Q 1356 3278 1631 3431 
Q 1906 3584 2284 3584 
Q 2666 3584 2933 3390 
Q 3200 3197 3328 2828 
z
" transform="scale(0.015625)"/>
       <path id="DejaVuSans-65" d="M 3597 1894 
L 3597 1613 
L 953 1613 
Q 991 1019 1311 708 
Q 1631 397 2203 397 
Q 2534 397 2845 478 
Q 3156 559 3463 722 
L 3463 178 
Q 3153 47 2828 -22 
Q 2503 -91 2169 -91 
Q 1331 -91 842 396 
Q 353 884 353 1716 
Q 353 2575 817 3079 
Q 1281 3584 2069 3584 
Q 2775 3584 3186 3129 
Q 3597 2675 3597 1894 
z
M 3022 2063 
Q 3016 2534 2758 2815 
Q 2500 3097 2075 3097 
Q 1594 3097 1305 2825 
Q 1016 2553 972 2059 
L 3022 2063 
z
" transform="scale(0.015625)"/>
       <path id="DejaVuSans-20" transform="scale(0.015625)"/>
       <path id="DejaVuSans-28" d="M 1984 4856 
Q 1566 4138 1362 3434 
Q 1159 2731 1159 2009 
Q 1159 1288 1364 580 
Q 1569 -128 1984 -844 
L 1484 -844 
Q 1016 -109 783 600 
Q 550 1309 550 2009 
Q 550 2706 781 3412 
Q 1013 4119 1484 4856 
L 1984 4856 
z
" transform="scale(0.015625)"/>
       <path id="DejaVuSans-64" d="M 2906 2969 
L 2906 4863 
L 3481 4863 
L 3481 0 
L 2906 0 
L 2906 525 
Q 2725 213 2448 61 
Q 2172 -91 1784 -91 
Q 1150 -91 751 415 
Q 353 922 353 1747 
Q 353 2572 751 3078 
Q 1150 3584 1784 3584 
Q 2172 3584 2448 3432 
Q 2725 3281 2906 2969 
z
M 947 1747 
Q 947 1113 1208 752 
Q 1469 391 1925 391 
Q 2381 391 2643 752 
Q 2906 1113 2906 1747 
Q 2906 2381 2643 2742 
Q 2381 3103 1925 3103 
Q 1469 3103 1208 2742 
Q 947 2381 947 1747 
z
" transform="scale(0.015625)"/>
       <path id="DejaVuSans-61" d="M 2194 1759 
Q 1497 1759 1228 1600 
Q 959 1441 959 1056 
Q 959 750 1161 570 
Q 1363 391 1709 391 
Q 2188 391 2477 730 
Q 2766 1069 2766 1631 
L 2766 1759 
L 2194 1759 
z
M 3341 1997 
L 3341 0 
L 2766 0 
L 2766 531 
Q 2569 213 2275 61 
Q 1981 -91 1556 -91 
Q 1019 -91 701 211 
Q 384 513 384 1019 
Q 384 1609 779 1909 
Q 1175 2209 1959 2209 
L 2766 2209 
L 2766 2266 
Q 2766 2663 2505 2880 
Q 2244 3097 1772 3097 
Q 1472 3097 1187 3025 
Q 903 2953 641 2809 
L 641 3341 
Q 956 3463 1253 3523 
Q 1550 3584 1831 3584 
Q 2591 3584 2966 3190 
Q 3341 2797 3341 1997 
z
" transform="scale(0.015625)"/>
       <path id="DejaVuSans-79" d="M 2059 -325 
Q 1816 -950 1584 -1140 
Q 1353 -1331 966 -1331 
L 506 -1331 
L 506 -850 
L 844 -850 
Q 1081 -850 1212 -737 
Q 1344 -625 1503 -206 
L 1606 56 
L 191 3500 
L 800 3500 
L 1894 763 
L 2988 3500 
L 3597 3500 
L 2059 -325 
z
" transform="scale(0.015625)"/>
       <path id="DejaVuSans-73" d="M 2834 3397 
L 2834 2853 
Q 2591 2978 2328 3040 
Q 2066 3103 1784 3103 
Q 1356 3103 1142 2972 
Q 928 2841 928 2578 
Q 928 2378 1081 2264 
Q 1234 2150 1697 2047 
L 1894 2003 
Q 2506 1872 2764 1633 
Q 3022 1394 3022 966 
Q 3022 478 2636 193 
Q 2250 -91 1575 -91 
Q 1294 -91 989 -36 
Q 684 19 347 128 
L 347 722 
Q 666 556 975 473 
Q 1284 391 1588 391 
Q 1994 391 2212 530 
Q 2431 669 2431 922 
Q 2431 1156 2273 1281 
Q 2116 1406 1581 1522 
L 1381 1569 
Q 847 1681 609 1914 
Q 372 2147 372 2553 
Q 372 3047 722 3315 
Q 1072 3584 1716 3584 
Q 2034 3584 2315 3537 
Q 2597 3491 2834 3397 
z
" transform="scale(0.015625)"/>
       <path id="DejaVuSans-29" d="M 513 4856 
L 1013 4856 
Q 1481 4119 1714 3412 
Q 1947 2706 1947 2009 
Q 1947 1309 1714 600 
Q 1481 -109 1013 -844 
L 513 -844 
Q 928 -128 1133 580 
Q 1338 1288 1338 2009 
Q 1338 2731 1133 3434 
Q 928 4138 513 4856 
z
" transform="scale(0.015625)"/>
      </defs>
      <use xlink:href="#DejaVuSans-54"/>
      <use xlink:href="#DejaVuSans-69" transform="translate(57.958984 0)"/>
      <use xlink:href="#DejaVuSans-6d" transform="translate(85.742188 0)"/>
      <use xlink:href="#DejaVuSans-65" transform="translate(183.154297 0)"/>
      <use xlink:href="#DejaVuSans-20" transform="translate(244.677734 0)"/>
      <use xlink:href="#DejaVuSans-28" transform="translate(276.464844 0)"/>
      <use xlink:href="#DejaVuSans-64" transform="translate(315.478516 0)"/>
      <use xlink:href="#DejaVuSans-61" transform="translate(378.955078 0)"/>
      <use xlink:href="#DejaVuSans-79" transform="translate(440.234375 0)"/>
      <use xlink:href="#DejaVuSans-73" transform="translate(499.414062 0)"/>
      <use xlink:href="#DejaVuSans-29" transform="translate(551.513672 0)"/>
     </g>
    </g>
   </g>
   <g id="matplotlib.axis_2">
    <g id="ytick_1">
     <g id="line2d_10">
      <defs>
       <path id="m4746ca12f4" d="M 0 0 
L -3.5 0 
" style="stroke: #000000; stroke-width: 0.8"/>
      </defs>
      <g>
       <use xlink:href="#m4746ca12f4" x="55.779096" y="267.64" style="stroke: #000000; stroke-width: 0.8"/>
      </g>
     </g>
     <g id="text_11">
      <!-- 1.0 -->
      <g transform="translate(32.875971 271.439219) scale(0.1 -0.1)">
       <defs>
        <path id="DejaVuSans-2e" d="M 684 794 
L 1344 794 
L 1344 0 
L 684 0 
L 684 794 
z
" transform="scale(0.015625)"/>
       </defs>
       <use xlink:href="#DejaVuSans-31"/>
       <use xlink:href="#DejaVuSans-2e" transform="translate(63.623047 0)"/>
       <use xlink:href="#DejaVuSans-30" transform="translate(95.410156 0)"/>
      </g>
     </g>
    </g>
    <g id="ytick_2">
     <g id="line2d_11">
      <g>
       <use xlink:href="#m4746ca12f4" x="55.779096" y="232.374423" style="stroke: #000000; stroke-width: 0.8"/>
      </g>
     </g>
     <g id="text_12">
      <!-- 1.5 -->
      <g transform="translate(32.875971 236.173641) scale(0.1 -0.1)">
       <use xlink:href="#DejaVuSans-31"/>
       <use xlink:href="#DejaVuSans-2e" transform="translate(63.623047 0)"/>
       <use xlink:href="#DejaVuSans-35" transform="translate(95.410156 0)"/>
      </g>
     </g>
    </g>
    <g id="ytick_3">
     <g id="line2d_12">
      <g>
       <use xlink:href="#m4746ca12f4" x="55.779096" y="197.108845" style="stroke: #000000; stroke-width: 0.8"/>
      </g>
     </g>
     <g id="text_13">
      <!-- 2.0 -->
      <g transform="translate(32.875971 200.908064) scale(0.1 -0.1)">
       <use xlink:href="#DejaVuSans-32"/>
       <use xlink:href="#DejaVuSans-2e" transform="translate(63.623047 0)"/>
       <use xlink:href="#DejaVuSans-30" transform="translate(95.410156 0)"/>
      </g>
     </g>
    </g>
    <g id="ytick_4">
     <g id="line2d_13">
      <g>
       <use xlink:href="#m4746ca12f4" x="55.779096" y="161.843268" style="stroke: #000000; stroke-width: 0.8"/>
      </g>
     </g>
     <g id="text_14">
      <!-- 2.5 -->
      <g transform="translate(32.875971 165.642487) scale(0.1 -0.1)">
       <use xlink:href="#DejaVuSans-32"/>
       <use xlink:href="#DejaVuSans-2e" transform="translate(63.623047 0)"/>
       <use xlink:href="#DejaVuSans-35" transform="translate(95.410156 0)"/>
      </g>
     </g>
    </g>
    <g id="ytick_5">
     <g id="line2d_14">
      <g>
       <use xlink:href="#m4746ca12f4" x="55.779096" y="126.577691" style="stroke: #000000; stroke-width: 0.8"/>
      </g>
     </g>
     <g id="text_15">
      <!-- 3.0 -->
      <g transform="translate(32.875971 130.376909) scale(0.1 -0.1)">
       <use xlink:href="#DejaVuSans-33"/>
       <use xlink:href="#DejaVuSans-2e" transform="translate(63.623047 0)"/>
       <use xlink:href="#DejaVuSans-30" transform="translate(95.410156 0)"/>
      </g>
     </g>
    </g>
    <g id="ytick_6">
     <g id="line2d_15">
      <g>
       <use xlink:href="#m4746ca12f4" x="55.779096" y="91.312113" style="stroke: #000000; stroke-width: 0.8"/>
      </g>
     </g>
     <g id="text_16">
      <!-- 3.5 -->
      <g transform="translate(32.875971 95.111332) scale(0.1 -0.1)">
       <use xlink:href="#DejaVuSans-33"/>
       <use xlink:href="#DejaVuSans-2e" transform="translate(63.623047 0)"/>
       <use xlink:href="#DejaVuSans-35" transform="translate(95.410156 0)"/>
      </g>
     </g>
    </g>
    <g id="ytick_7">
     <g id="line2d_16">
      <g>
       <use xlink:href="#m4746ca12f4" x="55.779096" y="56.046536" style="stroke: #000000; stroke-width: 0.8"/>
      </g>
     </g>
     <g id="text_17">
      <!-- 4.0 -->
      <g transform="translate(32.875971 59.845755) scale(0.1 -0.1)">
       <use xlink:href="#DejaVuSans-34"/>
       <use xlink:href="#DejaVuSans-2e" transform="translate(63.623047 0)"/>
       <use xlink:href="#DejaVuSans-30" transform="translate(95.410156 0)"/>
      </g>
     </g>
    </g>
    <g id="text_18">
     <!-- Fractional quotas -->
     <g transform="translate(26.796284 193.052813) rotate(-90) scale(0.1 -0.1)">
      <defs>
       <path id="DejaVuSans-46" d="M 628 4666 
L 3309 4666 
L 3309 4134 
L 1259 4134 
L 1259 2759 
L 3109 2759 
L 3109 2228 
L 1259 2228 
L 1259 0 
L 628 0 
L 628 4666 
z
" transform="scale(0.015625)"/>
       <path id="DejaVuSans-72" d="M 2631 2963 
Q 2534 3019 2420 3045 
Q 2306 3072 2169 3072 
Q 1681 3072 1420 2755 
Q 1159 2438 1159 1844 
L 1159 0 
L 581 0 
L 581 3500 
L 1159 3500 
L 1159 2956 
Q 1341 3275 1631 3429 
Q 1922 3584 2338 3584 
Q 2397 3584 2469 3576 
Q 2541 3569 2628 3553 
L 2631 2963 
z
" transform="scale(0.015625)"/>
       <path id="DejaVuSans-63" d="M 3122 3366 
L 3122 2828 
Q 2878 2963 2633 3030 
Q 2388 3097 2138 3097 
Q 1578 3097 1268 2742 
Q 959 2388 959 1747 
Q 959 1106 1268 751 
Q 1578 397 2138 397 
Q 2388 397 2633 464 
Q 2878 531 3122 666 
L 3122 134 
Q 2881 22 2623 -34 
Q 2366 -91 2075 -91 
Q 1284 -91 818 406 
Q 353 903 353 1747 
Q 353 2603 823 3093 
Q 1294 3584 2113 3584 
Q 2378 3584 2631 3529 
Q 2884 3475 3122 3366 
z
" transform="scale(0.015625)"/>
       <path id="DejaVuSans-74" d="M 1172 4494 
L 1172 3500 
L 2356 3500 
L 2356 3053 
L 1172 3053 
L 1172 1153 
Q 1172 725 1289 603 
Q 1406 481 1766 481 
L 2356 481 
L 2356 0 
L 1766 0 
Q 1100 0 847 248 
Q 594 497 594 1153 
L 594 3053 
L 172 3053 
L 172 3500 
L 594 3500 
L 594 4494 
L 1172 4494 
z
" transform="scale(0.015625)"/>
       <path id="DejaVuSans-6f" d="M 1959 3097 
Q 1497 3097 1228 2736 
Q 959 2375 959 1747 
Q 959 1119 1226 758 
Q 1494 397 1959 397 
Q 2419 397 2687 759 
Q 2956 1122 2956 1747 
Q 2956 2369 2687 2733 
Q 2419 3097 1959 3097 
z
M 1959 3584 
Q 2709 3584 3137 3096 
Q 3566 2609 3566 1747 
Q 3566 888 3137 398 
Q 2709 -91 1959 -91 
Q 1206 -91 779 398 
Q 353 888 353 1747 
Q 353 2609 779 3096 
Q 1206 3584 1959 3584 
z
" transform="scale(0.015625)"/>
       <path id="DejaVuSans-6e" d="M 3513 2113 
L 3513 0 
L 2938 0 
L 2938 2094 
Q 2938 2591 2744 2837 
Q 2550 3084 2163 3084 
Q 1697 3084 1428 2787 
Q 1159 2491 1159 1978 
L 1159 0 
L 581 0 
L 581 3500 
L 1159 3500 
L 1159 2956 
Q 1366 3272 1645 3428 
Q 1925 3584 2291 3584 
Q 2894 3584 3203 3211 
Q 3513 2838 3513 2113 
z
" transform="scale(0.015625)"/>
       <path id="DejaVuSans-6c" d="M 603 4863 
L 1178 4863 
L 1178 0 
L 603 0 
L 603 4863 
z
" transform="scale(0.015625)"/>
       <path id="DejaVuSans-71" d="M 947 1747 
Q 947 1113 1208 752 
Q 1469 391 1925 391 
Q 2381 391 2643 752 
Q 2906 1113 2906 1747 
Q 2906 2381 2643 2742 
Q 2381 3103 1925 3103 
Q 1469 3103 1208 2742 
Q 947 2381 947 1747 
z
M 2906 525 
Q 2725 213 2448 61 
Q 2172 -91 1784 -91 
Q 1150 -91 751 415 
Q 353 922 353 1747 
Q 353 2572 751 3078 
Q 1150 3584 1784 3584 
Q 2172 3584 2448 3432 
Q 2725 3281 2906 2969 
L 2906 3500 
L 3481 3500 
L 3481 -1331 
L 2906 -1331 
L 2906 525 
z
" transform="scale(0.015625)"/>
       <path id="DejaVuSans-75" d="M 544 1381 
L 544 3500 
L 1119 3500 
L 1119 1403 
Q 1119 906 1312 657 
Q 1506 409 1894 409 
Q 2359 409 2629 706 
Q 2900 1003 2900 1516 
L 2900 3500 
L 3475 3500 
L 3475 0 
L 2900 0 
L 2900 538 
Q 2691 219 2414 64 
Q 2138 -91 1772 -91 
Q 1169 -91 856 284 
Q 544 659 544 1381 
z
M 1991 3584 
L 1991 3584 
z
" transform="scale(0.015625)"/>
      </defs>
      <use xlink:href="#DejaVuSans-46"/>
      <use xlink:href="#DejaVuSans-72" transform="translate(50.269531 0)"/>
      <use xlink:href="#DejaVuSans-61" transform="translate(91.382812 0)"/>
      <use xlink:href="#DejaVuSans-63" transform="translate(152.662109 0)"/>
      <use xlink:href="#DejaVuSans-74" transform="translate(207.642578 0)"/>
      <use xlink:href="#DejaVuSans-69" transform="translate(246.851562 0)"/>
      <use xlink:href="#DejaVuSans-6f" transform="translate(274.634766 0)"/>
      <use xlink:href="#DejaVuSans-6e" transform="translate(335.816406 0)"/>
      <use xlink:href="#DejaVuSans-61" transform="translate(399.195312 0)"/>
      <use xlink:href="#DejaVuSans-6c" transform="translate(460.474609 0)"/>
      <use xlink:href="#DejaVuSans-20" transform="translate(488.257812 0)"/>
      <use xlink:href="#DejaVuSans-71" transform="translate(520.044922 0)"/>
      <use xlink:href="#DejaVuSans-75" transform="translate(583.521484 0)"/>
      <use xlink:href="#DejaVuSans-6f" transform="translate(646.900391 0)"/>
      <use xlink:href="#DejaVuSans-74" transform="translate(708.082031 0)"/>
      <use xlink:href="#DejaVuSans-61" transform="translate(747.291016 0)"/>
      <use xlink:href="#DejaVuSans-73" transform="translate(808.570312 0)"/>
     </g>
    </g>
   </g>
   <g id="line2d_17">
    <path d="M 78.934592 267.638314 
L 81.346623 260.098986 
L 83.758653 253.252683 
L 86.170684 247.024896 
L 88.582715 241.362687 
L 90.994746 236.23139 
L 93.406777 231.597087 
L 95.818807 227.426613 
L 98.230838 223.687549 
L 100.642869 220.34823 
L 103.0549 217.377738 
L 105.466931 214.745907 
L 107.878961 212.423319 
L 110.290992 210.384778 
L 112.703023 208.64699 
L 115.115054 207.223825 
L 117.527084 206.13466 
L 119.939115 205.409521 
L 121.145131 205.192304 
L 122.351146 205.093153 
L 123.557161 205.129128 
L 124.763177 205.313713 
L 125.969192 205.656821 
L 127.175208 206.164788 
L 128.381223 206.840379 
L 129.587238 207.683649 
L 130.793254 208.694753 
L 133.205285 211.15619 
L 136.823331 215.46 
L 141.647392 221.289031 
L 145.265439 225.34677 
L 148.883485 229.069595 
L 152.501531 232.469338 
L 156.119577 235.570385 
L 159.737623 238.398199 
L 163.35567 240.976699 
L 166.973716 243.327826 
L 170.591762 245.471655 
L 175.415824 248.038937 
L 180.239885 250.308897 
L 185.063947 252.315985 
L 189.888008 254.090647 
L 194.71207 255.6598 
L 200.742147 257.368184 
L 206.772224 258.832944 
L 212.802301 260.088837 
L 220.038393 261.361849 
L 227.274486 262.42022 
L 235.716593 263.431699 
L 245.364717 264.349975 
L 256.218855 265.14583 
L 268.279009 265.80643 
L 282.751194 266.372557 
L 300.841425 266.841113 
L 323.755717 267.194788 
L 355.112118 267.439949 
L 405.764764 267.585093 
L 523.954273 267.637308 
L 542.044504 267.638312 
L 542.044504 267.638312 
" clip-path="url(#p30dcef7824)" style="fill: none; stroke: #1f77b4; stroke-width: 1.5; stroke-linecap: square"/>
   </g>
   <g id="line2d_18">
    <path d="M 78.934592 267.624147 
L 81.346623 258.848478 
L 83.758653 250.642413 
L 86.170684 242.964818 
L 88.582715 235.786811 
L 90.994746 229.091569 
L 93.406777 222.862984 
L 95.818807 217.085665 
L 98.230838 211.744934 
L 100.642869 206.826828 
L 103.0549 202.3181 
L 105.466931 198.206217 
L 107.878961 194.479363 
L 110.290992 191.129295 
L 112.703023 188.184071 
L 115.115054 185.675764 
L 117.527084 183.647532 
L 118.7331 182.831774 
L 119.939115 182.156533 
L 121.145131 181.630048 
L 122.351146 181.278313 
L 123.557161 181.123026 
L 124.763177 181.180411 
L 125.969192 181.46122 
L 127.175208 181.970734 
L 128.381223 182.708759 
L 129.587238 183.670226 
L 130.793254 184.846883 
L 133.205285 187.742813 
L 136.823331 192.827474 
L 142.853408 201.445927 
L 146.471454 206.245812 
L 150.0895 210.710927 
L 153.707546 214.854168 
L 157.325593 218.696444 
L 160.943639 222.25915 
L 164.561685 225.562543 
L 168.179731 228.625471 
L 173.003793 232.365385 
L 177.827854 235.746819 
L 182.651916 238.804099 
L 187.475978 241.568295 
L 192.300039 244.067508 
L 197.124101 246.327155 
L 201.948162 248.370205 
L 207.978239 250.650844 
L 214.008316 252.661569 
L 220.038393 254.434322 
L 226.06847 255.997262 
L 233.304563 257.630558 
L 240.540655 259.034764 
L 248.982763 260.42599 
L 257.424871 261.59233 
L 267.072994 262.69621 
L 277.927132 263.699144 
L 289.987286 264.576761 
L 303.253456 265.31819 
L 318.931656 265.966632 
L 338.227902 266.521734 
L 361.142195 266.94711 
L 391.29258 267.270909 
L 434.709134 267.490952 
L 508.276073 267.607965 
L 542.044504 267.624178 
L 542.044504 267.624178 
" clip-path="url(#p30dcef7824)" style="fill: none; stroke: #ff7f0e; stroke-width: 1.5; stroke-linecap: square"/>
   </g>
   <g id="line2d_19">
    <path d="M 78.934592 267.544446 
L 82.552638 252.596688 
L 86.170684 238.765372 
L 89.78873 225.983186 
L 93.406777 214.23152 
L 97.024823 203.498328 
L 99.436854 196.904728 
L 101.848884 190.759116 
L 104.260915 185.061181 
L 106.672946 179.811483 
L 109.084977 175.011452 
L 111.497008 170.681901 
L 113.909038 166.877609 
L 116.321069 163.654016 
L 117.527084 162.282694 
L 118.7331 161.086304 
L 119.939115 160.073303 
L 121.145131 159.254891 
L 122.351146 158.660765 
L 123.557161 158.314698 
L 124.763177 158.233251 
L 125.969192 158.42577 
L 127.175208 158.894386 
L 128.381223 159.634016 
L 129.587238 160.632898 
L 130.793254 161.874814 
L 133.205285 164.956055 
L 135.617315 168.519341 
L 144.059423 181.467588 
L 147.677469 186.627358 
L 151.295516 191.486088 
L 154.913562 196.055079 
L 158.531608 200.350277 
L 163.35567 205.679096 
L 168.179731 210.585922 
L 173.003793 215.104162 
L 177.827854 219.264617 
L 182.651916 223.095585 
L 187.475978 226.623158 
L 192.300039 229.871366 
L 197.124101 232.862348 
L 201.948162 235.616479 
L 206.772224 238.1525 
L 212.802301 241.041991 
L 218.832378 243.648344 
L 224.862455 245.999309 
L 230.892532 248.119901 
L 236.922609 250.03267 
L 244.158701 252.082243 
L 251.394794 253.893263 
L 258.630886 255.493426 
L 267.072994 257.126458 
L 275.515102 258.539934 
L 285.163225 259.924165 
L 296.017363 261.231412 
L 306.871502 262.31717 
L 318.931656 263.309246 
L 333.403841 264.258788 
L 349.082041 265.054044 
L 367.172272 265.742169 
L 388.880549 266.330771 
L 415.412888 266.808342 
L 449.181319 267.173207 
L 495.009904 267.426816 
L 542.044504 267.544646 
L 542.044504 267.544646 
" clip-path="url(#p30dcef7824)" style="fill: none; stroke: #2ca02c; stroke-width: 1.5; stroke-linecap: square"/>
   </g>
   <g id="line2d_20">
    <path d="M 78.934592 267.226795 
L 82.552638 250.1598 
L 86.170684 234.155831 
L 89.78873 219.17403 
L 93.406777 205.224448 
L 97.024823 192.326173 
L 100.642869 180.505108 
L 103.0549 173.238728 
L 105.466931 166.476889 
L 107.878961 160.232319 
L 110.290992 154.522312 
L 112.703023 149.407829 
L 115.115054 144.959106 
L 117.527084 141.259543 
L 118.7331 139.722271 
L 119.939115 138.408483 
L 121.145131 137.331088 
L 122.351146 136.520866 
L 123.557161 136.001304 
L 124.763177 135.787264 
L 125.969192 135.884988 
L 127.175208 136.292095 
L 128.381223 136.997579 
L 129.587238 137.982526 
L 130.793254 139.224122 
L 133.205285 142.326259 
L 135.617315 145.923726 
L 146.471454 162.723944 
L 151.295516 169.572897 
L 156.119577 175.977971 
L 160.943639 181.965085 
L 165.7677 187.561176 
L 170.591762 192.791757 
L 175.415824 197.680675 
L 180.239885 202.250254 
L 185.063947 206.521366 
L 189.888008 210.513508 
L 194.71207 214.244901 
L 199.536132 217.732553 
L 204.360193 220.992391 
L 210.39027 224.769418 
L 216.420347 228.240615 
L 222.450424 231.430751 
L 228.480501 234.362592 
L 234.510578 237.057053 
L 240.540655 239.533343 
L 247.776747 242.241654 
L 255.01284 244.689018 
L 262.248932 246.900554 
L 269.485025 248.898978 
L 277.927132 250.988432 
L 286.36924 252.844936 
L 296.017363 254.71457 
L 305.665486 256.34793 
L 316.519625 257.940101 
L 327.373764 259.307772 
L 339.433918 260.602455 
L 352.700087 261.795513 
L 367.172272 262.867564 
L 382.850472 263.808255 
L 400.940703 264.665696 
L 421.442965 265.407921 
L 445.563273 266.047706 
L 474.507642 266.578272 
L 509.482089 266.989384 
L 542.044504 267.227618 
L 542.044504 267.227618 
" clip-path="url(#p30dcef7824)" style="fill: none; stroke: #d62728; stroke-width: 1.5; stroke-linecap: square"/>
   </g>
   <g id="line2d_21">
    <path d="M 78.934592 266.264906 
L 82.552638 246.981583 
L 86.170684 228.754037 
L 89.78873 211.561455 
L 93.406777 195.436967 
L 97.024823 180.426096 
L 100.642869 166.584505 
L 103.0549 158.038455 
L 105.466931 150.06312 
L 107.878961 142.682504 
L 110.290992 135.925847 
L 112.703023 129.867897 
L 115.115054 124.59395 
L 117.527084 120.200543 
L 118.7331 118.369122 
L 119.939115 116.797989 
L 121.145131 115.500377 
L 122.351146 114.505849 
L 123.557161 113.835685 
L 124.763177 113.501583 
L 125.969192 113.505653 
L 127.175208 113.840424 
L 128.381223 114.488837 
L 129.587238 115.425288 
L 130.793254 116.622066 
L 131.999269 118.041866 
L 134.4113 121.345054 
L 138.029346 126.850391 
L 145.265439 137.923695 
L 150.0895 144.896509 
L 154.913562 151.499723 
L 159.737623 157.748307 
L 164.561685 163.660772 
L 169.385747 169.25514 
L 174.209808 174.548502 
L 179.03387 179.557079 
L 183.857931 184.296188 
L 188.681993 188.780321 
L 194.71207 194.047746 
L 200.742147 198.963324 
L 206.772224 203.550563 
L 212.802301 207.831405 
L 218.832378 211.826314 
L 224.862455 215.554391 
L 230.892532 219.03345 
L 236.922609 222.280106 
L 242.952686 225.309905 
L 250.188778 228.679757 
L 257.424871 231.78133 
L 264.660963 234.635983 
L 271.897055 237.263393 
L 280.339163 240.065516 
L 288.781271 242.609168 
L 297.223379 244.918181 
L 305.665486 247.014168 
L 315.31361 249.173925 
L 324.961733 251.107522 
L 335.815871 253.041899 
L 346.67001 254.749934 
L 358.730164 256.414392 
L 371.996333 257.998162 
L 385.262503 259.358496 
L 399.734687 260.624589 
L 415.412888 261.778685 
L 433.503119 262.876489 
L 452.799365 263.82185 
L 474.507642 264.663054 
L 499.833965 265.413252 
L 528.778335 266.042051 
L 542.044504 266.2675 
L 542.044504 266.2675 
" clip-path="url(#p30dcef7824)" style="fill: none; stroke: #9467bd; stroke-width: 1.5; stroke-linecap: square"/>
   </g>
   <g id="line2d_22">
    <path d="M 78.934592 263.930052 
L 82.552638 242.3824 
L 86.170684 221.921488 
L 89.78873 202.543845 
L 93.406777 184.302539 
L 97.024823 167.266523 
L 100.642869 151.51838 
L 103.0549 141.782053 
L 105.466931 132.692467 
L 107.878961 124.284185 
L 110.290992 116.597527 
L 112.703023 109.717619 
L 115.115054 103.740339 
L 117.527084 98.769292 
L 118.7331 96.697246 
L 119.939115 94.917802 
L 121.145131 93.443228 
L 122.351146 92.300085 
L 123.557161 91.506101 
L 124.763177 91.068933 
L 125.969192 90.986168 
L 127.175208 91.245324 
L 128.381223 91.823848 
L 129.587238 92.690531 
L 130.793254 93.814408 
L 131.999269 95.156525 
L 134.4113 98.291395 
L 138.029346 103.537741 
L 146.471454 115.912066 
L 152.501531 124.257644 
L 158.531608 132.147337 
L 164.561685 139.603093 
L 170.591762 146.648599 
L 176.621839 153.306413 
L 182.651916 159.597861 
L 188.681993 165.543111 
L 194.71207 171.161212 
L 200.742147 176.470155 
L 206.772224 181.486959 
L 212.802301 186.22771 
L 218.832378 190.707596 
L 224.862455 194.940973 
L 230.892532 198.941399 
L 238.128624 203.452387 
L 245.364717 207.667197 
L 252.600809 211.605227 
L 259.836901 215.284678 
L 267.072994 218.722525 
L 274.309086 221.934618 
L 282.751194 225.4165 
L 291.193302 228.633105 
L 299.635409 231.604662 
L 308.077517 234.349877 
L 317.72564 237.232095 
L 327.373764 239.864776 
L 337.021887 242.269531 
L 347.876025 244.726934 
L 358.730164 246.946302 
L 369.584303 248.950723 
L 381.644457 250.950959 
L 394.910626 252.904858 
L 408.176795 254.630017 
L 422.64898 256.28249 
L 438.32718 257.836698 
L 455.211396 259.273426 
L 473.301627 260.579995 
L 492.597873 261.749572 
L 514.30615 262.83541 
L 538.426458 263.808826 
L 542.044504 263.936729 
L 542.044504 263.936729 
" clip-path="url(#p30dcef7824)" style="fill: none; stroke: #8c564b; stroke-width: 1.5; stroke-linecap: square"/>
   </g>
   <g id="line2d_23">
    <path d="M 78.934592 259.183615 
L 82.552638 235.391255 
L 86.170684 212.751499 
L 89.78873 191.276776 
L 93.406777 171.037866 
L 97.024823 152.124316 
L 100.642869 134.642216 
L 103.0549 123.842611 
L 105.466931 113.773789 
L 107.878961 104.47944 
L 110.290992 96.009243 
L 112.703023 88.454468 
L 115.115054 81.91617 
L 116.321069 79.060447 
L 117.527084 76.498565 
L 118.7331 74.244832 
L 119.939115 72.310259 
L 121.145131 70.705115 
L 122.351146 69.451804 
L 123.557161 68.56375 
L 124.763177 68.044253 
L 125.969192 67.886495 
L 127.175208 68.073536 
L 128.381223 68.578318 
L 129.587238 69.365414 
L 130.793254 70.402013 
L 131.999269 71.648747 
L 134.4113 74.57398 
L 138.029346 79.490511 
L 147.677469 92.817424 
L 153.707546 100.731822 
L 159.737623 108.289657 
L 165.7677 115.505367 
L 171.797777 122.394344 
L 177.827854 128.97138 
L 183.857931 135.250585 
L 189.888008 141.245454 
L 195.918085 146.968864 
L 201.948162 152.433104 
L 209.184255 158.66459 
L 216.420347 164.559003 
L 223.656439 170.134589 
L 230.892532 175.408621 
L 238.128624 180.397349 
L 245.364717 185.116267 
L 252.600809 189.579922 
L 259.836901 193.802148 
L 267.072994 197.795997 
L 275.515102 202.183286 
L 283.957209 206.294978 
L 292.399317 210.148407 
L 300.841425 213.759763 
L 309.283533 217.144288 
L 318.931656 220.75277 
L 328.579779 224.103379 
L 338.227902 227.214538 
L 347.876025 230.103401 
L 358.730164 233.107337 
L 369.584303 235.870897 
L 380.438441 238.413271 
L 392.498595 241.00024 
L 404.558749 243.358218 
L 417.824918 245.711671 
L 431.091088 247.83702 
L 445.563273 249.921351 
L 460.035457 251.786277 
L 475.713658 253.58579 
L 492.597873 255.295993 
L 510.688104 256.898082 
L 529.98435 258.378505 
L 542.044504 259.198266 
L 542.044504 259.198266 
" clip-path="url(#p30dcef7824)" style="fill: none; stroke: #e377c2; stroke-width: 1.5; stroke-linecap: square"/>
   </g>
   <g id="line2d_24">
    <path d="M 78.934592 250.803026 
L 82.552638 224.865157 
L 86.170684 200.178146 
L 89.78873 176.768811 
L 93.406777 154.72341 
L 97.024823 134.148591 
L 100.642869 115.169204 
L 103.0549 103.472527 
L 105.466931 92.595018 
L 107.878961 82.587153 
L 110.290992 73.505296 
L 112.703023 65.442267 
L 115.115054 58.498615 
L 116.321069 55.477335 
L 117.527084 52.773099 
L 118.7331 50.398585 
L 119.939115 48.363079 
L 121.145131 46.674182 
L 122.351146 45.349608 
L 123.557161 44.39827 
L 124.763177 43.819255 
L 125.969192 43.601824 
L 127.175208 43.725408 
L 128.381223 44.159612 
L 129.587238 44.866231 
L 130.793254 45.811734 
L 133.205285 48.255154 
L 135.617315 51.135897 
L 141.647392 58.930168 
L 148.883485 68.194406 
L 156.119577 77.069978 
L 163.35567 85.55156 
L 170.591762 93.65569 
L 177.827854 101.399133 
L 185.063947 108.79793 
L 192.300039 115.867443 
L 199.536132 122.622334 
L 206.772224 129.076556 
L 214.008316 135.243541 
L 221.244409 141.136056 
L 228.480501 146.766298 
L 235.716593 152.145983 
L 244.158701 158.120398 
L 252.600809 163.785773 
L 261.042917 169.158087 
L 269.485025 174.252477 
L 277.927132 179.083351 
L 286.36924 183.66433 
L 294.811348 188.008323 
L 303.253456 192.127624 
L 312.901579 196.575111 
L 322.549702 200.760645 
L 332.197825 204.699659 
L 341.845948 208.406706 
L 351.494072 211.89539 
L 362.34821 215.575167 
L 373.202349 219.012029 
L 384.056487 222.222035 
L 396.116641 225.540791 
L 408.176795 228.617058 
L 420.236949 231.468523 
L 433.503119 234.365072 
L 446.769288 237.029685 
L 461.241473 239.693763 
L 475.713658 242.125988 
L 491.391858 244.522619 
L 507.070058 246.694123 
L 523.954273 248.805096 
L 542.044504 250.83136 
L 542.044504 250.83136 
" clip-path="url(#p30dcef7824)" style="fill: none; stroke: #7f7f7f; stroke-width: 1.5; stroke-linecap: square"/>
   </g>
   <g id="patch_3">
    <path d="M 55.779096 267.64 
L 55.779096 32.4 
" style="fill: none; stroke: #000000; stroke-width: 0.8; stroke-linejoin: miter; stroke-linecap: square"/>
   </g>
   <g id="patch_4">
    <path d="M 565.2 267.64 
L 565.2 32.4 
" style="fill: none; stroke: #000000; stroke-width: 0.8; stroke-linejoin: miter; stroke-linecap: square"/>
   </g>
   <g id="patch_5">
    <path d="M 55.779096 267.64 
L 565.2 267.64 
" style="fill: none; stroke: #000000; stroke-width: 0.8; stroke-linejoin: miter; stroke-linecap: square"/>
   </g>
   <g id="patch_6">
    <path d="M 55.779096 32.4 
L 565.2 32.4 
" style="fill: none; stroke: #000000; stroke-width: 0.8; stroke-linejoin: miter; stroke-linecap: square"/>
   </g>
   <g id="legend_1">
    <g id="patch_7">
     <path d="M 477.626562 157.825 
L 558.2 157.825 
Q 560.2 157.825 560.2 155.825 
L 560.2 39.4 
Q 560.2 37.4 558.2 37.4 
L 477.626562 37.4 
Q 475.626562 37.4 475.626562 39.4 
L 475.626562 155.825 
Q 475.626562 157.825 477.626562 157.825 
z
" style="fill: #ffffff; opacity: 0.8; stroke: #cccccc; stroke-linejoin: miter"/>
    </g>
    <g id="line2d_25">
     <path d="M 479.626562 45.498438 
L 489.626562 45.498438 
L 499.626562 45.498438 
" style="fill: none; stroke: #1f77b4; stroke-width: 1.5; stroke-linecap: square"/>
    </g>
    <g id="text_19">
     <!-- s = 2.50 -->
     <g transform="translate(507.626562 48.998438) scale(0.1 -0.1)">
      <defs>
       <path id="DejaVuSans-3d" d="M 678 2906 
L 4684 2906 
L 4684 2381 
L 678 2381 
L 678 2906 
z
M 678 1631 
L 4684 1631 
L 4684 1100 
L 678 1100 
L 678 1631 
z
" transform="scale(0.015625)"/>
      </defs>
      <use xlink:href="#DejaVuSans-73"/>
      <use xlink:href="#DejaVuSans-20" transform="translate(52.099609 0)"/>
      <use xlink:href="#DejaVuSans-3d" transform="translate(83.886719 0)"/>
      <use xlink:href="#DejaVuSans-20" transform="translate(167.675781 0)"/>
      <use xlink:href="#DejaVuSans-32" transform="translate(199.462891 0)"/>
      <use xlink:href="#DejaVuSans-2e" transform="translate(263.085938 0)"/>
      <use xlink:href="#DejaVuSans-35" transform="translate(294.873047 0)"/>
      <use xlink:href="#DejaVuSans-30" transform="translate(358.496094 0)"/>
     </g>
    </g>
    <g id="line2d_26">
     <path d="M 479.626562 60.176563 
L 489.626562 60.176563 
L 499.626562 60.176563 
" style="fill: none; stroke: #ff7f0e; stroke-width: 1.5; stroke-linecap: square"/>
    </g>
    <g id="text_20">
     <!-- s = 3.93 -->
     <g transform="translate(507.626562 63.676563) scale(0.1 -0.1)">
      <defs>
       <path id="DejaVuSans-39" d="M 703 97 
L 703 672 
Q 941 559 1184 500 
Q 1428 441 1663 441 
Q 2288 441 2617 861 
Q 2947 1281 2994 2138 
Q 2813 1869 2534 1725 
Q 2256 1581 1919 1581 
Q 1219 1581 811 2004 
Q 403 2428 403 3163 
Q 403 3881 828 4315 
Q 1253 4750 1959 4750 
Q 2769 4750 3195 4129 
Q 3622 3509 3622 2328 
Q 3622 1225 3098 567 
Q 2575 -91 1691 -91 
Q 1453 -91 1209 -44 
Q 966 3 703 97 
z
M 1959 2075 
Q 2384 2075 2632 2365 
Q 2881 2656 2881 3163 
Q 2881 3666 2632 3958 
Q 2384 4250 1959 4250 
Q 1534 4250 1286 3958 
Q 1038 3666 1038 3163 
Q 1038 2656 1286 2365 
Q 1534 2075 1959 2075 
z
" transform="scale(0.015625)"/>
      </defs>
      <use xlink:href="#DejaVuSans-73"/>
      <use xlink:href="#DejaVuSans-20" transform="translate(52.099609 0)"/>
      <use xlink:href="#DejaVuSans-3d" transform="translate(83.886719 0)"/>
      <use xlink:href="#DejaVuSans-20" transform="translate(167.675781 0)"/>
      <use xlink:href="#DejaVuSans-33" transform="translate(199.462891 0)"/>
      <use xlink:href="#DejaVuSans-2e" transform="translate(263.085938 0)"/>
      <use xlink:href="#DejaVuSans-39" transform="translate(294.873047 0)"/>
      <use xlink:href="#DejaVuSans-33" transform="translate(358.496094 0)"/>
     </g>
    </g>
    <g id="line2d_27">
     <path d="M 479.626562 74.854688 
L 489.626562 74.854688 
L 499.626562 74.854688 
" style="fill: none; stroke: #2ca02c; stroke-width: 1.5; stroke-linecap: square"/>
    </g>
    <g id="text_21">
     <!-- s = 5.36 -->
     <g transform="translate(507.626562 78.354688) scale(0.1 -0.1)">
      <use xlink:href="#DejaVuSans-73"/>
      <use xlink:href="#DejaVuSans-20" transform="translate(52.099609 0)"/>
      <use xlink:href="#DejaVuSans-3d" transform="translate(83.886719 0)"/>
      <use xlink:href="#DejaVuSans-20" transform="translate(167.675781 0)"/>
      <use xlink:href="#DejaVuSans-35" transform="translate(199.462891 0)"/>
      <use xlink:href="#DejaVuSans-2e" transform="translate(263.085938 0)"/>
      <use xlink:href="#DejaVuSans-33" transform="translate(294.873047 0)"/>
      <use xlink:href="#DejaVuSans-36" transform="translate(358.496094 0)"/>
     </g>
    </g>
    <g id="line2d_28">
     <path d="M 479.626562 89.532812 
L 489.626562 89.532812 
L 499.626562 89.532812 
" style="fill: none; stroke: #d62728; stroke-width: 1.5; stroke-linecap: square"/>
    </g>
    <g id="text_22">
     <!-- s = 6.79 -->
     <g transform="translate(507.626562 93.032812) scale(0.1 -0.1)">
      <use xlink:href="#DejaVuSans-73"/>
      <use xlink:href="#DejaVuSans-20" transform="translate(52.099609 0)"/>
      <use xlink:href="#DejaVuSans-3d" transform="translate(83.886719 0)"/>
      <use xlink:href="#DejaVuSans-20" transform="translate(167.675781 0)"/>
      <use xlink:href="#DejaVuSans-36" transform="translate(199.462891 0)"/>
      <use xlink:href="#DejaVuSans-2e" transform="translate(263.085938 0)"/>
      <use xlink:href="#DejaVuSans-37" transform="translate(294.873047 0)"/>
      <use xlink:href="#DejaVuSans-39" transform="translate(358.496094 0)"/>
     </g>
    </g>
    <g id="line2d_29">
     <path d="M 479.626562 104.210938 
L 489.626562 104.210938 
L 499.626562 104.210938 
" style="fill: none; stroke: #9467bd; stroke-width: 1.5; stroke-linecap: square"/>
    </g>
    <g id="text_23">
     <!-- s = 8.21 -->
     <g transform="translate(507.626562 107.710938) scale(0.1 -0.1)">
      <use xlink:href="#DejaVuSans-73"/>
      <use xlink:href="#DejaVuSans-20" transform="translate(52.099609 0)"/>
      <use xlink:href="#DejaVuSans-3d" transform="translate(83.886719 0)"/>
      <use xlink:href="#DejaVuSans-20" transform="translate(167.675781 0)"/>
      <use xlink:href="#DejaVuSans-38" transform="translate(199.462891 0)"/>
      <use xlink:href="#DejaVuSans-2e" transform="translate(263.085938 0)"/>
      <use xlink:href="#DejaVuSans-32" transform="translate(294.873047 0)"/>
      <use xlink:href="#DejaVuSans-31" transform="translate(358.496094 0)"/>
     </g>
    </g>
    <g id="line2d_30">
     <path d="M 479.626562 118.889063 
L 489.626562 118.889063 
L 499.626562 118.889063 
" style="fill: none; stroke: #8c564b; stroke-width: 1.5; stroke-linecap: square"/>
    </g>
    <g id="text_24">
     <!-- s = 9.64 -->
     <g transform="translate(507.626562 122.389063) scale(0.1 -0.1)">
      <use xlink:href="#DejaVuSans-73"/>
      <use xlink:href="#DejaVuSans-20" transform="translate(52.099609 0)"/>
      <use xlink:href="#DejaVuSans-3d" transform="translate(83.886719 0)"/>
      <use xlink:href="#DejaVuSans-20" transform="translate(167.675781 0)"/>
      <use xlink:href="#DejaVuSans-39" transform="translate(199.462891 0)"/>
      <use xlink:href="#DejaVuSans-2e" transform="translate(263.085938 0)"/>
      <use xlink:href="#DejaVuSans-36" transform="translate(294.873047 0)"/>
      <use xlink:href="#DejaVuSans-34" transform="translate(358.496094 0)"/>
     </g>
    </g>
    <g id="line2d_31">
     <path d="M 479.626562 133.567188 
L 489.626562 133.567188 
L 499.626562 133.567188 
" style="fill: none; stroke: #e377c2; stroke-width: 1.5; stroke-linecap: square"/>
    </g>
    <g id="text_25">
     <!-- s = 11.07 -->
     <g transform="translate(507.626562 137.067188) scale(0.1 -0.1)">
      <use xlink:href="#DejaVuSans-73"/>
      <use xlink:href="#DejaVuSans-20" transform="translate(52.099609 0)"/>
      <use xlink:href="#DejaVuSans-3d" transform="translate(83.886719 0)"/>
      <use xlink:href="#DejaVuSans-20" transform="translate(167.675781 0)"/>
      <use xlink:href="#DejaVuSans-31" transform="translate(199.462891 0)"/>
      <use xlink:href="#DejaVuSans-31" transform="translate(263.085938 0)"/>
      <use xlink:href="#DejaVuSans-2e" transform="translate(326.708984 0)"/>
      <use xlink:href="#DejaVuSans-30" transform="translate(358.496094 0)"/>
      <use xlink:href="#DejaVuSans-37" transform="translate(422.119141 0)"/>
     </g>
    </g>
    <g id="line2d_32">
     <path d="M 479.626562 148.245312 
L 489.626562 148.245312 
L 499.626562 148.245312 
" style="fill: none; stroke: #7f7f7f; stroke-width: 1.5; stroke-linecap: square"/>
    </g>
    <g id="text_26">
     <!-- s = 12.50 -->
     <g transform="translate(507.626562 151.745312) scale(0.1 -0.1)">
      <use xlink:href="#DejaVuSans-73"/>
      <use xlink:href="#DejaVuSans-20" transform="translate(52.099609 0)"/>
      <use xlink:href="#DejaVuSans-3d" transform="translate(83.886719 0)"/>
      <use xlink:href="#DejaVuSans-20" transform="translate(167.675781 0)"/>
      <use xlink:href="#DejaVuSans-31" transform="translate(199.462891 0)"/>
      <use xlink:href="#DejaVuSans-32" transform="translate(263.085938 0)"/>
      <use xlink:href="#DejaVuSans-2e" transform="translate(326.708984 0)"/>
      <use xlink:href="#DejaVuSans-35" transform="translate(358.496094 0)"/>
      <use xlink:href="#DejaVuSans-30" transform="translate(422.119141 0)"/>
     </g>
    </g>
   </g>
  </g>
  <g id="axes_2">
   <g id="patch_8">
    <path d="M 55.779096 544.84 
L 565.2 544.84 
L 565.2 309.6 
L 55.779096 309.6 
z
" style="fill: #ffffff"/>
   </g>
   <g id="matplotlib.axis_3">
    <g id="xtick_10">
     <g id="line2d_33">
      <g>
       <use xlink:href="#m5ef7e65e7b" x="78.934592" y="544.84" style="stroke: #000000; stroke-width: 0.8"/>
      </g>
     </g>
     <g id="text_27">
      <!-- 0 -->
      <g transform="translate(75.753342 559.438437) scale(0.1 -0.1)">
       <use xlink:href="#DejaVuSans-30"/>
      </g>
     </g>
    </g>
    <g id="xtick_11">
     <g id="line2d_34">
      <g>
       <use xlink:href="#m5ef7e65e7b" x="136.823331" y="544.84" style="stroke: #000000; stroke-width: 0.8"/>
      </g>
     </g>
     <g id="text_28">
      <!-- 1 -->
      <g transform="translate(133.642081 559.438437) scale(0.1 -0.1)">
       <use xlink:href="#DejaVuSans-31"/>
      </g>
     </g>
    </g>
    <g id="xtick_12">
     <g id="line2d_35">
      <g>
       <use xlink:href="#m5ef7e65e7b" x="194.71207" y="544.84" style="stroke: #000000; stroke-width: 0.8"/>
      </g>
     </g>
     <g id="text_29">
      <!-- 2 -->
      <g transform="translate(191.53082 559.438437) scale(0.1 -0.1)">
       <use xlink:href="#DejaVuSans-32"/>
      </g>
     </g>
    </g>
    <g id="xtick_13">
     <g id="line2d_36">
      <g>
       <use xlink:href="#m5ef7e65e7b" x="252.600809" y="544.84" style="stroke: #000000; stroke-width: 0.8"/>
      </g>
     </g>
     <g id="text_30">
      <!-- 3 -->
      <g transform="translate(249.419559 559.438437) scale(0.1 -0.1)">
       <use xlink:href="#DejaVuSans-33"/>
      </g>
     </g>
    </g>
    <g id="xtick_14">
     <g id="line2d_37">
      <g>
       <use xlink:href="#m5ef7e65e7b" x="310.489548" y="544.84" style="stroke: #000000; stroke-width: 0.8"/>
      </g>
     </g>
     <g id="text_31">
      <!-- 4 -->
      <g transform="translate(307.308298 559.438437) scale(0.1 -0.1)">
       <use xlink:href="#DejaVuSans-34"/>
      </g>
     </g>
    </g>
    <g id="xtick_15">
     <g id="line2d_38">
      <g>
       <use xlink:href="#m5ef7e65e7b" x="368.378287" y="544.84" style="stroke: #000000; stroke-width: 0.8"/>
      </g>
     </g>
     <g id="text_32">
      <!-- 5 -->
      <g transform="translate(365.197037 559.438437) scale(0.1 -0.1)">
       <use xlink:href="#DejaVuSans-35"/>
      </g>
     </g>
    </g>
    <g id="xtick_16">
     <g id="line2d_39">
      <g>
       <use xlink:href="#m5ef7e65e7b" x="426.267026" y="544.84" style="stroke: #000000; stroke-width: 0.8"/>
      </g>
     </g>
     <g id="text_33">
      <!-- 6 -->
      <g transform="translate(423.085776 559.438437) scale(0.1 -0.1)">
       <use xlink:href="#DejaVuSans-36"/>
      </g>
     </g>
    </g>
    <g id="xtick_17">
     <g id="line2d_40">
      <g>
       <use xlink:href="#m5ef7e65e7b" x="484.155765" y="544.84" style="stroke: #000000; stroke-width: 0.8"/>
      </g>
     </g>
     <g id="text_34">
      <!-- 7 -->
      <g transform="translate(480.974515 559.438437) scale(0.1 -0.1)">
       <use xlink:href="#DejaVuSans-37"/>
      </g>
     </g>
    </g>
    <g id="xtick_18">
     <g id="line2d_41">
      <g>
       <use xlink:href="#m5ef7e65e7b" x="542.044504" y="544.84" style="stroke: #000000; stroke-width: 0.8"/>
      </g>
     </g>
     <g id="text_35">
      <!-- 8 -->
      <g transform="translate(538.863254 559.438437) scale(0.1 -0.1)">
       <use xlink:href="#DejaVuSans-38"/>
      </g>
     </g>
    </g>
    <g id="text_36">
     <!-- Time (days) -->
     <g transform="translate(280.962986 573.116563) scale(0.1 -0.1)">
      <use xlink:href="#DejaVuSans-54"/>
      <use xlink:href="#DejaVuSans-69" transform="translate(57.958984 0)"/>
      <use xlink:href="#DejaVuSans-6d" transform="translate(85.742188 0)"/>
      <use xlink:href="#DejaVuSans-65" transform="translate(183.154297 0)"/>
      <use xlink:href="#DejaVuSans-20" transform="translate(244.677734 0)"/>
      <use xlink:href="#DejaVuSans-28" transform="translate(276.464844 0)"/>
      <use xlink:href="#DejaVuSans-64" transform="translate(315.478516 0)"/>
      <use xlink:href="#DejaVuSans-61" transform="translate(378.955078 0)"/>
      <use xlink:href="#DejaVuSans-79" transform="translate(440.234375 0)"/>
      <use xlink:href="#DejaVuSans-73" transform="translate(499.414062 0)"/>
      <use xlink:href="#DejaVuSans-29" transform="translate(551.513672 0)"/>
     </g>
    </g>
   </g>
   <g id="matplotlib.axis_4">
    <g id="ytick_8">
     <g id="line2d_42">
      <g>
       <use xlink:href="#m4746ca12f4" x="55.779096" y="544.84" style="stroke: #000000; stroke-width: 0.8"/>
      </g>
     </g>
     <g id="text_37">
      <!-- $\mathdefault{10^{-1}}$ -->
      <g transform="translate(25.279096 548.639219) scale(0.1 -0.1)">
       <defs>
        <path id="DejaVuSans-2212" d="M 678 2272 
L 4684 2272 
L 4684 1741 
L 678 1741 
L 678 2272 
z
" transform="scale(0.015625)"/>
       </defs>
       <use xlink:href="#DejaVuSans-31" transform="translate(0 0.684375)"/>
       <use xlink:href="#DejaVuSans-30" transform="translate(63.623047 0.684375)"/>
       <use xlink:href="#DejaVuSans-2212" transform="translate(128.203125 38.965625) scale(0.7)"/>
       <use xlink:href="#DejaVuSans-31" transform="translate(186.855469 38.965625) scale(0.7)"/>
      </g>
     </g>
    </g>
    <g id="ytick_9">
     <g id="line2d_43">
      <g>
       <use xlink:href="#m4746ca12f4" x="55.779096" y="517.800327" style="stroke: #000000; stroke-width: 0.8"/>
      </g>
     </g>
     <g id="text_38">
      <!-- $\mathdefault{10^{0}}$ -->
      <g transform="translate(31.179096 521.599546) scale(0.1 -0.1)">
       <use xlink:href="#DejaVuSans-31" transform="translate(0 0.765625)"/>
       <use xlink:href="#DejaVuSans-30" transform="translate(63.623047 0.765625)"/>
       <use xlink:href="#DejaVuSans-30" transform="translate(128.203125 39.046875) scale(0.7)"/>
      </g>
     </g>
    </g>
    <g id="ytick_10">
     <g id="line2d_44">
      <g>
       <use xlink:href="#m4746ca12f4" x="55.779096" y="490.760654" style="stroke: #000000; stroke-width: 0.8"/>
      </g>
     </g>
     <g id="text_39">
      <!-- $\mathdefault{10^{1}}$ -->
      <g transform="translate(31.179096 494.559873) scale(0.1 -0.1)">
       <use xlink:href="#DejaVuSans-31" transform="translate(0 0.684375)"/>
       <use xlink:href="#DejaVuSans-30" transform="translate(63.623047 0.684375)"/>
       <use xlink:href="#DejaVuSans-31" transform="translate(128.203125 38.965625) scale(0.7)"/>
      </g>
     </g>
    </g>
    <g id="ytick_11">
     <g id="line2d_45">
      <g>
       <use xlink:href="#m4746ca12f4" x="55.779096" y="463.720981" style="stroke: #000000; stroke-width: 0.8"/>
      </g>
     </g>
     <g id="text_40">
      <!-- $\mathdefault{10^{2}}$ -->
      <g transform="translate(31.179096 467.5202) scale(0.1 -0.1)">
       <use xlink:href="#DejaVuSans-31" transform="translate(0 0.765625)"/>
       <use xlink:href="#DejaVuSans-30" transform="translate(63.623047 0.765625)"/>
       <use xlink:href="#DejaVuSans-32" transform="translate(128.203125 39.046875) scale(0.7)"/>
      </g>
     </g>
    </g>
    <g id="ytick_12">
     <g id="line2d_46">
      <g>
       <use xlink:href="#m4746ca12f4" x="55.779096" y="436.681308" style="stroke: #000000; stroke-width: 0.8"/>
      </g>
     </g>
     <g id="text_41">
      <!-- $\mathdefault{10^{3}}$ -->
      <g transform="translate(31.179096 440.480527) scale(0.1 -0.1)">
       <use xlink:href="#DejaVuSans-31" transform="translate(0 0.765625)"/>
       <use xlink:href="#DejaVuSans-30" transform="translate(63.623047 0.765625)"/>
       <use xlink:href="#DejaVuSans-33" transform="translate(128.203125 39.046875) scale(0.7)"/>
      </g>
     </g>
    </g>
    <g id="ytick_13">
     <g id="line2d_47">
      <g>
       <use xlink:href="#m4746ca12f4" x="55.779096" y="409.641635" style="stroke: #000000; stroke-width: 0.8"/>
      </g>
     </g>
     <g id="text_42">
      <!-- $\mathdefault{10^{4}}$ -->
      <g transform="translate(31.179096 413.440854) scale(0.1 -0.1)">
       <use xlink:href="#DejaVuSans-31" transform="translate(0 0.684375)"/>
       <use xlink:href="#DejaVuSans-30" transform="translate(63.623047 0.684375)"/>
       <use xlink:href="#DejaVuSans-34" transform="translate(128.203125 38.965625) scale(0.7)"/>
      </g>
     </g>
    </g>
    <g id="ytick_14">
     <g id="line2d_48">
      <g>
       <use xlink:href="#m4746ca12f4" x="55.779096" y="382.601963" style="stroke: #000000; stroke-width: 0.8"/>
      </g>
     </g>
     <g id="text_43">
      <!-- $\mathdefault{10^{5}}$ -->
      <g transform="translate(31.179096 386.401181) scale(0.1 -0.1)">
       <use xlink:href="#DejaVuSans-31" transform="translate(0 0.684375)"/>
       <use xlink:href="#DejaVuSans-30" transform="translate(63.623047 0.684375)"/>
       <use xlink:href="#DejaVuSans-35" transform="translate(128.203125 38.965625) scale(0.7)"/>
      </g>
     </g>
    </g>
    <g id="ytick_15">
     <g id="line2d_49">
      <g>
       <use xlink:href="#m4746ca12f4" x="55.779096" y="355.56229" style="stroke: #000000; stroke-width: 0.8"/>
      </g>
     </g>
     <g id="text_44">
      <!-- $\mathdefault{10^{6}}$ -->
      <g transform="translate(31.179096 359.361508) scale(0.1 -0.1)">
       <use xlink:href="#DejaVuSans-31" transform="translate(0 0.765625)"/>
       <use xlink:href="#DejaVuSans-30" transform="translate(63.623047 0.765625)"/>
       <use xlink:href="#DejaVuSans-36" transform="translate(128.203125 39.046875) scale(0.7)"/>
      </g>
     </g>
    </g>
    <g id="ytick_16">
     <g id="line2d_50">
      <g>
       <use xlink:href="#m4746ca12f4" x="55.779096" y="328.522617" style="stroke: #000000; stroke-width: 0.8"/>
      </g>
     </g>
     <g id="text_45">
      <!-- $\mathdefault{10^{7}}$ -->
      <g transform="translate(31.179096 332.321835) scale(0.1 -0.1)">
       <use xlink:href="#DejaVuSans-31" transform="translate(0 0.684375)"/>
       <use xlink:href="#DejaVuSans-30" transform="translate(63.623047 0.684375)"/>
       <use xlink:href="#DejaVuSans-37" transform="translate(128.203125 38.965625) scale(0.7)"/>
      </g>
     </g>
    </g>
    <g id="ytick_17">
     <g id="line2d_51">
      <defs>
       <path id="maee6874731" d="M 0 0 
L -2 0 
" style="stroke: #000000; stroke-width: 0.6"/>
      </defs>
      <g>
       <use xlink:href="#maee6874731" x="55.779096" y="536.700247" style="stroke: #000000; stroke-width: 0.6"/>
      </g>
     </g>
    </g>
    <g id="ytick_18">
     <g id="line2d_52">
      <g>
       <use xlink:href="#maee6874731" x="55.779096" y="531.938797" style="stroke: #000000; stroke-width: 0.6"/>
      </g>
     </g>
    </g>
    <g id="ytick_19">
     <g id="line2d_53">
      <g>
       <use xlink:href="#maee6874731" x="55.779096" y="528.560495" style="stroke: #000000; stroke-width: 0.6"/>
      </g>
     </g>
    </g>
    <g id="ytick_20">
     <g id="line2d_54">
      <g>
       <use xlink:href="#maee6874731" x="55.779096" y="525.94008" style="stroke: #000000; stroke-width: 0.6"/>
      </g>
     </g>
    </g>
    <g id="ytick_21">
     <g id="line2d_55">
      <g>
       <use xlink:href="#maee6874731" x="55.779096" y="523.799045" style="stroke: #000000; stroke-width: 0.6"/>
      </g>
     </g>
    </g>
    <g id="ytick_22">
     <g id="line2d_56">
      <g>
       <use xlink:href="#maee6874731" x="55.779096" y="521.988825" style="stroke: #000000; stroke-width: 0.6"/>
      </g>
     </g>
    </g>
    <g id="ytick_23">
     <g id="line2d_57">
      <g>
       <use xlink:href="#maee6874731" x="55.779096" y="520.420742" style="stroke: #000000; stroke-width: 0.6"/>
      </g>
     </g>
    </g>
    <g id="ytick_24">
     <g id="line2d_58">
      <g>
       <use xlink:href="#maee6874731" x="55.779096" y="519.037595" style="stroke: #000000; stroke-width: 0.6"/>
      </g>
     </g>
    </g>
    <g id="ytick_25">
     <g id="line2d_59">
      <g>
       <use xlink:href="#maee6874731" x="55.779096" y="509.660574" style="stroke: #000000; stroke-width: 0.6"/>
      </g>
     </g>
    </g>
    <g id="ytick_26">
     <g id="line2d_60">
      <g>
       <use xlink:href="#maee6874731" x="55.779096" y="504.899124" style="stroke: #000000; stroke-width: 0.6"/>
      </g>
     </g>
    </g>
    <g id="ytick_27">
     <g id="line2d_61">
      <g>
       <use xlink:href="#maee6874731" x="55.779096" y="501.520822" style="stroke: #000000; stroke-width: 0.6"/>
      </g>
     </g>
    </g>
    <g id="ytick_28">
     <g id="line2d_62">
      <g>
       <use xlink:href="#maee6874731" x="55.779096" y="498.900407" style="stroke: #000000; stroke-width: 0.6"/>
      </g>
     </g>
    </g>
    <g id="ytick_29">
     <g id="line2d_63">
      <g>
       <use xlink:href="#maee6874731" x="55.779096" y="496.759372" style="stroke: #000000; stroke-width: 0.6"/>
      </g>
     </g>
    </g>
    <g id="ytick_30">
     <g id="line2d_64">
      <g>
       <use xlink:href="#maee6874731" x="55.779096" y="494.949153" style="stroke: #000000; stroke-width: 0.6"/>
      </g>
     </g>
    </g>
    <g id="ytick_31">
     <g id="line2d_65">
      <g>
       <use xlink:href="#maee6874731" x="55.779096" y="493.381069" style="stroke: #000000; stroke-width: 0.6"/>
      </g>
     </g>
    </g>
    <g id="ytick_32">
     <g id="line2d_66">
      <g>
       <use xlink:href="#maee6874731" x="55.779096" y="491.997922" style="stroke: #000000; stroke-width: 0.6"/>
      </g>
     </g>
    </g>
    <g id="ytick_33">
     <g id="line2d_67">
      <g>
       <use xlink:href="#maee6874731" x="55.779096" y="482.620902" style="stroke: #000000; stroke-width: 0.6"/>
      </g>
     </g>
    </g>
    <g id="ytick_34">
     <g id="line2d_68">
      <g>
       <use xlink:href="#maee6874731" x="55.779096" y="477.859452" style="stroke: #000000; stroke-width: 0.6"/>
      </g>
     </g>
    </g>
    <g id="ytick_35">
     <g id="line2d_69">
      <g>
       <use xlink:href="#maee6874731" x="55.779096" y="474.481149" style="stroke: #000000; stroke-width: 0.6"/>
      </g>
     </g>
    </g>
    <g id="ytick_36">
     <g id="line2d_70">
      <g>
       <use xlink:href="#maee6874731" x="55.779096" y="471.860734" style="stroke: #000000; stroke-width: 0.6"/>
      </g>
     </g>
    </g>
    <g id="ytick_37">
     <g id="line2d_71">
      <g>
       <use xlink:href="#maee6874731" x="55.779096" y="469.719699" style="stroke: #000000; stroke-width: 0.6"/>
      </g>
     </g>
    </g>
    <g id="ytick_38">
     <g id="line2d_72">
      <g>
       <use xlink:href="#maee6874731" x="55.779096" y="467.90948" style="stroke: #000000; stroke-width: 0.6"/>
      </g>
     </g>
    </g>
    <g id="ytick_39">
     <g id="line2d_73">
      <g>
       <use xlink:href="#maee6874731" x="55.779096" y="466.341396" style="stroke: #000000; stroke-width: 0.6"/>
      </g>
     </g>
    </g>
    <g id="ytick_40">
     <g id="line2d_74">
      <g>
       <use xlink:href="#maee6874731" x="55.779096" y="464.958249" style="stroke: #000000; stroke-width: 0.6"/>
      </g>
     </g>
    </g>
    <g id="ytick_41">
     <g id="line2d_75">
      <g>
       <use xlink:href="#maee6874731" x="55.779096" y="455.581229" style="stroke: #000000; stroke-width: 0.6"/>
      </g>
     </g>
    </g>
    <g id="ytick_42">
     <g id="line2d_76">
      <g>
       <use xlink:href="#maee6874731" x="55.779096" y="450.819779" style="stroke: #000000; stroke-width: 0.6"/>
      </g>
     </g>
    </g>
    <g id="ytick_43">
     <g id="line2d_77">
      <g>
       <use xlink:href="#maee6874731" x="55.779096" y="447.441476" style="stroke: #000000; stroke-width: 0.6"/>
      </g>
     </g>
    </g>
    <g id="ytick_44">
     <g id="line2d_78">
      <g>
       <use xlink:href="#maee6874731" x="55.779096" y="444.821061" style="stroke: #000000; stroke-width: 0.6"/>
      </g>
     </g>
    </g>
    <g id="ytick_45">
     <g id="line2d_79">
      <g>
       <use xlink:href="#maee6874731" x="55.779096" y="442.680026" style="stroke: #000000; stroke-width: 0.6"/>
      </g>
     </g>
    </g>
    <g id="ytick_46">
     <g id="line2d_80">
      <g>
       <use xlink:href="#maee6874731" x="55.779096" y="440.869807" style="stroke: #000000; stroke-width: 0.6"/>
      </g>
     </g>
    </g>
    <g id="ytick_47">
     <g id="line2d_81">
      <g>
       <use xlink:href="#maee6874731" x="55.779096" y="439.301723" style="stroke: #000000; stroke-width: 0.6"/>
      </g>
     </g>
    </g>
    <g id="ytick_48">
     <g id="line2d_82">
      <g>
       <use xlink:href="#maee6874731" x="55.779096" y="437.918576" style="stroke: #000000; stroke-width: 0.6"/>
      </g>
     </g>
    </g>
    <g id="ytick_49">
     <g id="line2d_83">
      <g>
       <use xlink:href="#maee6874731" x="55.779096" y="428.541556" style="stroke: #000000; stroke-width: 0.6"/>
      </g>
     </g>
    </g>
    <g id="ytick_50">
     <g id="line2d_84">
      <g>
       <use xlink:href="#maee6874731" x="55.779096" y="423.780106" style="stroke: #000000; stroke-width: 0.6"/>
      </g>
     </g>
    </g>
    <g id="ytick_51">
     <g id="line2d_85">
      <g>
       <use xlink:href="#maee6874731" x="55.779096" y="420.401803" style="stroke: #000000; stroke-width: 0.6"/>
      </g>
     </g>
    </g>
    <g id="ytick_52">
     <g id="line2d_86">
      <g>
       <use xlink:href="#maee6874731" x="55.779096" y="417.781388" style="stroke: #000000; stroke-width: 0.6"/>
      </g>
     </g>
    </g>
    <g id="ytick_53">
     <g id="line2d_87">
      <g>
       <use xlink:href="#maee6874731" x="55.779096" y="415.640353" style="stroke: #000000; stroke-width: 0.6"/>
      </g>
     </g>
    </g>
    <g id="ytick_54">
     <g id="line2d_88">
      <g>
       <use xlink:href="#maee6874731" x="55.779096" y="413.830134" style="stroke: #000000; stroke-width: 0.6"/>
      </g>
     </g>
    </g>
    <g id="ytick_55">
     <g id="line2d_89">
      <g>
       <use xlink:href="#maee6874731" x="55.779096" y="412.262051" style="stroke: #000000; stroke-width: 0.6"/>
      </g>
     </g>
    </g>
    <g id="ytick_56">
     <g id="line2d_90">
      <g>
       <use xlink:href="#maee6874731" x="55.779096" y="410.878903" style="stroke: #000000; stroke-width: 0.6"/>
      </g>
     </g>
    </g>
    <g id="ytick_57">
     <g id="line2d_91">
      <g>
       <use xlink:href="#maee6874731" x="55.779096" y="401.501883" style="stroke: #000000; stroke-width: 0.6"/>
      </g>
     </g>
    </g>
    <g id="ytick_58">
     <g id="line2d_92">
      <g>
       <use xlink:href="#maee6874731" x="55.779096" y="396.740433" style="stroke: #000000; stroke-width: 0.6"/>
      </g>
     </g>
    </g>
    <g id="ytick_59">
     <g id="line2d_93">
      <g>
       <use xlink:href="#maee6874731" x="55.779096" y="393.36213" style="stroke: #000000; stroke-width: 0.6"/>
      </g>
     </g>
    </g>
    <g id="ytick_60">
     <g id="line2d_94">
      <g>
       <use xlink:href="#maee6874731" x="55.779096" y="390.741715" style="stroke: #000000; stroke-width: 0.6"/>
      </g>
     </g>
    </g>
    <g id="ytick_61">
     <g id="line2d_95">
      <g>
       <use xlink:href="#maee6874731" x="55.779096" y="388.60068" style="stroke: #000000; stroke-width: 0.6"/>
      </g>
     </g>
    </g>
    <g id="ytick_62">
     <g id="line2d_96">
      <g>
       <use xlink:href="#maee6874731" x="55.779096" y="386.790461" style="stroke: #000000; stroke-width: 0.6"/>
      </g>
     </g>
    </g>
    <g id="ytick_63">
     <g id="line2d_97">
      <g>
       <use xlink:href="#maee6874731" x="55.779096" y="385.222378" style="stroke: #000000; stroke-width: 0.6"/>
      </g>
     </g>
    </g>
    <g id="ytick_64">
     <g id="line2d_98">
      <g>
       <use xlink:href="#maee6874731" x="55.779096" y="383.83923" style="stroke: #000000; stroke-width: 0.6"/>
      </g>
     </g>
    </g>
    <g id="ytick_65">
     <g id="line2d_99">
      <g>
       <use xlink:href="#maee6874731" x="55.779096" y="374.46221" style="stroke: #000000; stroke-width: 0.6"/>
      </g>
     </g>
    </g>
    <g id="ytick_66">
     <g id="line2d_100">
      <g>
       <use xlink:href="#maee6874731" x="55.779096" y="369.70076" style="stroke: #000000; stroke-width: 0.6"/>
      </g>
     </g>
    </g>
    <g id="ytick_67">
     <g id="line2d_101">
      <g>
       <use xlink:href="#maee6874731" x="55.779096" y="366.322457" style="stroke: #000000; stroke-width: 0.6"/>
      </g>
     </g>
    </g>
    <g id="ytick_68">
     <g id="line2d_102">
      <g>
       <use xlink:href="#maee6874731" x="55.779096" y="363.702042" style="stroke: #000000; stroke-width: 0.6"/>
      </g>
     </g>
    </g>
    <g id="ytick_69">
     <g id="line2d_103">
      <g>
       <use xlink:href="#maee6874731" x="55.779096" y="361.561007" style="stroke: #000000; stroke-width: 0.6"/>
      </g>
     </g>
    </g>
    <g id="ytick_70">
     <g id="line2d_104">
      <g>
       <use xlink:href="#maee6874731" x="55.779096" y="359.750788" style="stroke: #000000; stroke-width: 0.6"/>
      </g>
     </g>
    </g>
    <g id="ytick_71">
     <g id="line2d_105">
      <g>
       <use xlink:href="#maee6874731" x="55.779096" y="358.182705" style="stroke: #000000; stroke-width: 0.6"/>
      </g>
     </g>
    </g>
    <g id="ytick_72">
     <g id="line2d_106">
      <g>
       <use xlink:href="#maee6874731" x="55.779096" y="356.799557" style="stroke: #000000; stroke-width: 0.6"/>
      </g>
     </g>
    </g>
    <g id="ytick_73">
     <g id="line2d_107">
      <g>
       <use xlink:href="#maee6874731" x="55.779096" y="347.422537" style="stroke: #000000; stroke-width: 0.6"/>
      </g>
     </g>
    </g>
    <g id="ytick_74">
     <g id="line2d_108">
      <g>
       <use xlink:href="#maee6874731" x="55.779096" y="342.661087" style="stroke: #000000; stroke-width: 0.6"/>
      </g>
     </g>
    </g>
    <g id="ytick_75">
     <g id="line2d_109">
      <g>
       <use xlink:href="#maee6874731" x="55.779096" y="339.282784" style="stroke: #000000; stroke-width: 0.6"/>
      </g>
     </g>
    </g>
    <g id="ytick_76">
     <g id="line2d_110">
      <g>
       <use xlink:href="#maee6874731" x="55.779096" y="336.662369" style="stroke: #000000; stroke-width: 0.6"/>
      </g>
     </g>
    </g>
    <g id="ytick_77">
     <g id="line2d_111">
      <g>
       <use xlink:href="#maee6874731" x="55.779096" y="334.521334" style="stroke: #000000; stroke-width: 0.6"/>
      </g>
     </g>
    </g>
    <g id="ytick_78">
     <g id="line2d_112">
      <g>
       <use xlink:href="#maee6874731" x="55.779096" y="332.711115" style="stroke: #000000; stroke-width: 0.6"/>
      </g>
     </g>
    </g>
    <g id="ytick_79">
     <g id="line2d_113">
      <g>
       <use xlink:href="#maee6874731" x="55.779096" y="331.143032" style="stroke: #000000; stroke-width: 0.6"/>
      </g>
     </g>
    </g>
    <g id="ytick_80">
     <g id="line2d_114">
      <g>
       <use xlink:href="#maee6874731" x="55.779096" y="329.759884" style="stroke: #000000; stroke-width: 0.6"/>
      </g>
     </g>
    </g>
    <g id="ytick_81">
     <g id="line2d_115">
      <g>
       <use xlink:href="#maee6874731" x="55.779096" y="320.382864" style="stroke: #000000; stroke-width: 0.6"/>
      </g>
     </g>
    </g>
    <g id="ytick_82">
     <g id="line2d_116">
      <g>
       <use xlink:href="#maee6874731" x="55.779096" y="315.621414" style="stroke: #000000; stroke-width: 0.6"/>
      </g>
     </g>
    </g>
    <g id="ytick_83">
     <g id="line2d_117">
      <g>
       <use xlink:href="#maee6874731" x="55.779096" y="312.243111" style="stroke: #000000; stroke-width: 0.6"/>
      </g>
     </g>
    </g>
    <g id="ytick_84">
     <g id="line2d_118">
      <g>
       <use xlink:href="#maee6874731" x="55.779096" y="309.622696" style="stroke: #000000; stroke-width: 0.6"/>
      </g>
     </g>
    </g>
    <g id="text_46">
     <!-- Biovolume -->
     <g transform="translate(19.199409 453.622344) rotate(-90) scale(0.1 -0.1)">
      <defs>
       <path id="DejaVuSans-42" d="M 1259 2228 
L 1259 519 
L 2272 519 
Q 2781 519 3026 730 
Q 3272 941 3272 1375 
Q 3272 1813 3026 2020 
Q 2781 2228 2272 2228 
L 1259 2228 
z
M 1259 4147 
L 1259 2741 
L 2194 2741 
Q 2656 2741 2882 2914 
Q 3109 3088 3109 3444 
Q 3109 3797 2882 3972 
Q 2656 4147 2194 4147 
L 1259 4147 
z
M 628 4666 
L 2241 4666 
Q 2963 4666 3353 4366 
Q 3744 4066 3744 3513 
Q 3744 3084 3544 2831 
Q 3344 2578 2956 2516 
Q 3422 2416 3680 2098 
Q 3938 1781 3938 1306 
Q 3938 681 3513 340 
Q 3088 0 2303 0 
L 628 0 
L 628 4666 
z
" transform="scale(0.015625)"/>
       <path id="DejaVuSans-76" d="M 191 3500 
L 800 3500 
L 1894 563 
L 2988 3500 
L 3597 3500 
L 2284 0 
L 1503 0 
L 191 3500 
z
" transform="scale(0.015625)"/>
      </defs>
      <use xlink:href="#DejaVuSans-42"/>
      <use xlink:href="#DejaVuSans-69" transform="translate(68.603516 0)"/>
      <use xlink:href="#DejaVuSans-6f" transform="translate(96.386719 0)"/>
      <use xlink:href="#DejaVuSans-76" transform="translate(157.568359 0)"/>
      <use xlink:href="#DejaVuSans-6f" transform="translate(216.748047 0)"/>
      <use xlink:href="#DejaVuSans-6c" transform="translate(277.929688 0)"/>
      <use xlink:href="#DejaVuSans-75" transform="translate(305.712891 0)"/>
      <use xlink:href="#DejaVuSans-6d" transform="translate(369.091797 0)"/>
      <use xlink:href="#DejaVuSans-65" transform="translate(466.503906 0)"/>
     </g>
    </g>
   </g>
   <g id="line2d_119">
    <path d="M 78.934592 350.285601 
L 83.758653 350.241912 
L 89.78873 349.939028 
L 97.024823 349.342915 
L 107.878961 348.183429 
L 127.175208 345.875234 
L 140.441377 344.376909 
L 151.295516 343.372019 
L 163.35567 342.490728 
L 175.415824 341.830436 
L 188.681993 341.32136 
L 204.360193 340.956314 
L 222.450424 340.774376 
L 244.158701 340.788197 
L 273.103071 341.0447 
L 316.519625 341.678691 
L 400.940703 343.179177 
L 542.044504 345.808253 
L 542.044504 345.808253 
" clip-path="url(#p863823a5f3)" style="fill: none; stroke: #1f77b4; stroke-width: 1.5; stroke-linecap: square"/>
   </g>
   <g id="line2d_120">
    <path d="M 78.934592 329.627712 
L 83.758653 329.616173 
L 89.78873 329.36502 
L 98.230838 328.748076 
L 110.290992 327.588438 
L 153.707546 323.153132 
L 166.973716 322.182997 
L 181.445901 321.361011 
L 195.918085 320.76199 
L 211.596285 320.330676 
L 229.686516 320.064365 
L 250.188778 319.994034 
L 274.309086 320.136113 
L 305.665486 320.553679 
L 350.288056 321.39259 
L 426.267026 323.078103 
L 542.044504 325.793714 
L 542.044504 325.793714 
" clip-path="url(#p863823a5f3)" style="fill: none; stroke: #ff7f0e; stroke-width: 1.5; stroke-linecap: square"/>
   </g>
   <g id="line2d_121">
    <path d="M 78.934592 334.296653 
L 83.758653 334.317832 
L 90.994746 334.071425 
L 99.436854 333.543337 
L 112.703023 332.461105 
L 154.913562 328.800918 
L 170.591762 327.769665 
L 187.475978 326.890484 
L 204.360193 326.238344 
L 222.450424 325.768233 
L 241.74667 325.49324 
L 263.454948 325.414424 
L 288.781271 325.561519 
L 318.931656 325.976353 
L 356.318133 326.722931 
L 409.382811 328.022542 
L 498.62795 330.462224 
L 542.044504 331.689636 
L 542.044504 331.689636 
" clip-path="url(#p863823a5f3)" style="fill: none; stroke: #2ca02c; stroke-width: 1.5; stroke-linecap: square"/>
   </g>
   <g id="line2d_122">
    <path d="M 78.934592 351.788501 
L 83.758653 351.841211 
L 90.994746 351.674436 
L 100.642869 351.204862 
L 115.115054 350.262623 
L 157.325593 347.373802 
L 176.621839 346.349692 
L 195.918085 345.539228 
L 216.420347 344.907025 
L 236.922609 344.496797 
L 258.630886 344.281096 
L 282.751194 344.269531 
L 309.283533 344.484572 
L 339.433918 344.952625 
L 376.820395 345.768491 
L 423.854995 347.031002 
L 490.185842 349.050676 
L 542.044504 350.723465 
L 542.044504 350.723465 
" clip-path="url(#p863823a5f3)" style="fill: none; stroke: #d62728; stroke-width: 1.5; stroke-linecap: square"/>
   </g>
   <g id="line2d_123">
    <path d="M 78.934592 377.888048 
L 84.964669 377.968042 
L 93.406777 377.815127 
L 105.466931 377.346125 
L 125.969192 376.299538 
L 154.913562 374.851462 
L 179.03387 373.870819 
L 203.154178 373.111233 
L 227.274486 372.575253 
L 251.394794 372.257087 
L 276.721117 372.142793 
L 303.253456 372.240673 
L 332.197825 372.566463 
L 364.760241 373.156864 
L 402.146718 374.059863 
L 447.975303 375.399559 
L 507.070058 377.366099 
L 542.044504 378.607517 
L 542.044504 378.607517 
" clip-path="url(#p863823a5f3)" style="fill: none; stroke: #9467bd; stroke-width: 1.5; stroke-linecap: square"/>
   </g>
   <g id="line2d_124">
    <path d="M 78.934592 412.996725 
L 84.964669 413.110651 
L 94.612792 413.031357 
L 110.290992 412.622695 
L 185.063947 410.352698 
L 215.214332 409.790055 
L 244.158701 409.469566 
L 274.309086 409.364048 
L 304.459471 409.482278 
L 335.815871 409.824393 
L 369.584303 410.414256 
L 406.97078 411.293718 
L 449.181319 412.515132 
L 498.62795 414.17563 
L 542.044504 415.778646 
L 542.044504 415.778646 
" clip-path="url(#p863823a5f3)" style="fill: none; stroke: #8c564b; stroke-width: 1.5; stroke-linecap: square"/>
   </g>
   <g id="line2d_125">
    <path d="M 78.934592 459.640183 
L 86.170684 459.796692 
L 97.024823 459.791898 
L 117.527084 459.513047 
L 175.415824 458.612351 
L 212.802301 458.290244 
L 248.982763 458.19917 
L 285.163225 458.333384 
L 321.343687 458.692584 
L 358.730164 459.290841 
L 397.322657 460.131988 
L 438.32718 461.246181 
L 484.155765 462.718635 
L 536.014427 464.615861 
L 542.044504 464.849599 
L 542.044504 464.849599 
" clip-path="url(#p863823a5f3)" style="fill: none; stroke: #e377c2; stroke-width: 1.5; stroke-linecap: square"/>
   </g>
   <g id="line2d_126">
    <path d="M 78.934592 519.750078 
L 87.3767 519.963311 
L 101.848884 520.073437 
L 133.205285 520.031831 
L 183.857931 520.02784 
L 230.892532 520.249613 
L 275.515102 520.681204 
L 318.931656 521.319265 
L 362.34821 522.175664 
L 406.97078 523.278205 
L 452.799365 524.631249 
L 502.245996 526.317585 
L 542.044504 527.824519 
L 542.044504 527.824519 
" clip-path="url(#p863823a5f3)" style="fill: none; stroke: #7f7f7f; stroke-width: 1.5; stroke-linecap: square"/>
   </g>
   <g id="patch_9">
    <path d="M 55.779096 544.84 
L 55.779096 309.6 
" style="fill: none; stroke: #000000; stroke-width: 0.8; stroke-linejoin: miter; stroke-linecap: square"/>
   </g>
   <g id="patch_10">
    <path d="M 565.2 544.84 
L 565.2 309.6 
" style="fill: none; stroke: #000000; stroke-width: 0.8; stroke-linejoin: miter; stroke-linecap: square"/>
   </g>
   <g id="patch_11">
    <path d="M 55.779096 544.84 
L 565.2 544.84 
" style="fill: none; stroke: #000000; stroke-width: 0.8; stroke-linejoin: miter; stroke-linecap: square"/>
   </g>
   <g id="patch_12">
    <path d="M 55.779096 309.6 
L 565.2 309.6 
" style="fill: none; stroke: #000000; stroke-width: 0.8; stroke-linejoin: miter; stroke-linecap: square"/>
   </g>
  </g>
  <g id="axes_3">
   <g id="patch_13">
    <path d="M 55.779096 822.04 
L 565.2 822.04 
L 565.2 586.8 
L 55.779096 586.8 
z
" style="fill: #ffffff"/>
   </g>
   <g id="matplotlib.axis_5">
    <g id="xtick_19">
     <g id="line2d_127">
      <g>
       <use xlink:href="#m5ef7e65e7b" x="78.934592" y="822.04" style="stroke: #000000; stroke-width: 0.8"/>
      </g>
     </g>
     <g id="text_47">
      <!-- 0 -->
      <g transform="translate(75.753342 836.638438) scale(0.1 -0.1)">
       <use xlink:href="#DejaVuSans-30"/>
      </g>
     </g>
    </g>
    <g id="xtick_20">
     <g id="line2d_128">
      <g>
       <use xlink:href="#m5ef7e65e7b" x="136.823331" y="822.04" style="stroke: #000000; stroke-width: 0.8"/>
      </g>
     </g>
     <g id="text_48">
      <!-- 1 -->
      <g transform="translate(133.642081 836.638438) scale(0.1 -0.1)">
       <use xlink:href="#DejaVuSans-31"/>
      </g>
     </g>
    </g>
    <g id="xtick_21">
     <g id="line2d_129">
      <g>
       <use xlink:href="#m5ef7e65e7b" x="194.71207" y="822.04" style="stroke: #000000; stroke-width: 0.8"/>
      </g>
     </g>
     <g id="text_49">
      <!-- 2 -->
      <g transform="translate(191.53082 836.638438) scale(0.1 -0.1)">
       <use xlink:href="#DejaVuSans-32"/>
      </g>
     </g>
    </g>
    <g id="xtick_22">
     <g id="line2d_130">
      <g>
       <use xlink:href="#m5ef7e65e7b" x="252.600809" y="822.04" style="stroke: #000000; stroke-width: 0.8"/>
      </g>
     </g>
     <g id="text_50">
      <!-- 3 -->
      <g transform="translate(249.419559 836.638438) scale(0.1 -0.1)">
       <use xlink:href="#DejaVuSans-33"/>
      </g>
     </g>
    </g>
    <g id="xtick_23">
     <g id="line2d_131">
      <g>
       <use xlink:href="#m5ef7e65e7b" x="310.489548" y="822.04" style="stroke: #000000; stroke-width: 0.8"/>
      </g>
     </g>
     <g id="text_51">
      <!-- 4 -->
      <g transform="translate(307.308298 836.638438) scale(0.1 -0.1)">
       <use xlink:href="#DejaVuSans-34"/>
      </g>
     </g>
    </g>
    <g id="xtick_24">
     <g id="line2d_132">
      <g>
       <use xlink:href="#m5ef7e65e7b" x="368.378287" y="822.04" style="stroke: #000000; stroke-width: 0.8"/>
      </g>
     </g>
     <g id="text_52">
      <!-- 5 -->
      <g transform="translate(365.197037 836.638438) scale(0.1 -0.1)">
       <use xlink:href="#DejaVuSans-35"/>
      </g>
     </g>
    </g>
    <g id="xtick_25">
     <g id="line2d_133">
      <g>
       <use xlink:href="#m5ef7e65e7b" x="426.267026" y="822.04" style="stroke: #000000; stroke-width: 0.8"/>
      </g>
     </g>
     <g id="text_53">
      <!-- 6 -->
      <g transform="translate(423.085776 836.638438) scale(0.1 -0.1)">
       <use xlink:href="#DejaVuSans-36"/>
      </g>
     </g>
    </g>
    <g id="xtick_26">
     <g id="line2d_134">
      <g>
       <use xlink:href="#m5ef7e65e7b" x="484.155765" y="822.04" style="stroke: #000000; stroke-width: 0.8"/>
      </g>
     </g>
     <g id="text_54">
      <!-- 7 -->
      <g transform="translate(480.974515 836.638438) scale(0.1 -0.1)">
       <use xlink:href="#DejaVuSans-37"/>
      </g>
     </g>
    </g>
    <g id="xtick_27">
     <g id="line2d_135">
      <g>
       <use xlink:href="#m5ef7e65e7b" x="542.044504" y="822.04" style="stroke: #000000; stroke-width: 0.8"/>
      </g>
     </g>
     <g id="text_55">
      <!-- 8 -->
      <g transform="translate(538.863254 836.638438) scale(0.1 -0.1)">
       <use xlink:href="#DejaVuSans-38"/>
      </g>
     </g>
    </g>
    <g id="text_56">
     <!-- Time (days) -->
     <g transform="translate(280.962986 850.316563) scale(0.1 -0.1)">
      <use xlink:href="#DejaVuSans-54"/>
      <use xlink:href="#DejaVuSans-69" transform="translate(57.958984 0)"/>
      <use xlink:href="#DejaVuSans-6d" transform="translate(85.742188 0)"/>
      <use xlink:href="#DejaVuSans-65" transform="translate(183.154297 0)"/>
      <use xlink:href="#DejaVuSans-20" transform="translate(244.677734 0)"/>
      <use xlink:href="#DejaVuSans-28" transform="translate(276.464844 0)"/>
      <use xlink:href="#DejaVuSans-64" transform="translate(315.478516 0)"/>
      <use xlink:href="#DejaVuSans-61" transform="translate(378.955078 0)"/>
      <use xlink:href="#DejaVuSans-79" transform="translate(440.234375 0)"/>
      <use xlink:href="#DejaVuSans-73" transform="translate(499.414062 0)"/>
      <use xlink:href="#DejaVuSans-29" transform="translate(551.513672 0)"/>
     </g>
    </g>
   </g>
   <g id="matplotlib.axis_6">
    <g id="ytick_85">
     <g id="line2d_136">
      <g>
       <use xlink:href="#m4746ca12f4" x="55.779096" y="822.04" style="stroke: #000000; stroke-width: 0.8"/>
      </g>
     </g>
     <g id="text_57">
      <!-- 0 -->
      <g transform="translate(42.416596 825.839219) scale(0.1 -0.1)">
       <use xlink:href="#DejaVuSans-30"/>
      </g>
     </g>
    </g>
    <g id="ytick_86">
     <g id="line2d_137">
      <g>
       <use xlink:href="#m4746ca12f4" x="55.779096" y="784.700321" style="stroke: #000000; stroke-width: 0.8"/>
      </g>
     </g>
     <g id="text_58">
      <!-- 2 -->
      <g transform="translate(42.416596 788.49954) scale(0.1 -0.1)">
       <use xlink:href="#DejaVuSans-32"/>
      </g>
     </g>
    </g>
    <g id="ytick_87">
     <g id="line2d_138">
      <g>
       <use xlink:href="#m4746ca12f4" x="55.779096" y="747.360643" style="stroke: #000000; stroke-width: 0.8"/>
      </g>
     </g>
     <g id="text_59">
      <!-- 4 -->
      <g transform="translate(42.416596 751.159862) scale(0.1 -0.1)">
       <use xlink:href="#DejaVuSans-34"/>
      </g>
     </g>
    </g>
    <g id="ytick_88">
     <g id="line2d_139">
      <g>
       <use xlink:href="#m4746ca12f4" x="55.779096" y="710.020964" style="stroke: #000000; stroke-width: 0.8"/>
      </g>
     </g>
     <g id="text_60">
      <!-- 6 -->
      <g transform="translate(42.416596 713.820183) scale(0.1 -0.1)">
       <use xlink:href="#DejaVuSans-36"/>
      </g>
     </g>
    </g>
    <g id="ytick_89">
     <g id="line2d_140">
      <g>
       <use xlink:href="#m4746ca12f4" x="55.779096" y="672.681286" style="stroke: #000000; stroke-width: 0.8"/>
      </g>
     </g>
     <g id="text_61">
      <!-- 8 -->
      <g transform="translate(42.416596 676.480504) scale(0.1 -0.1)">
       <use xlink:href="#DejaVuSans-38"/>
      </g>
     </g>
    </g>
    <g id="ytick_90">
     <g id="line2d_141">
      <g>
       <use xlink:href="#m4746ca12f4" x="55.779096" y="635.341607" style="stroke: #000000; stroke-width: 0.8"/>
      </g>
     </g>
     <g id="text_62">
      <!-- 10 -->
      <g transform="translate(36.054096 639.140826) scale(0.1 -0.1)">
       <use xlink:href="#DejaVuSans-31"/>
       <use xlink:href="#DejaVuSans-30" transform="translate(63.623047 0)"/>
      </g>
     </g>
    </g>
    <g id="ytick_91">
     <g id="line2d_142">
      <g>
       <use xlink:href="#m4746ca12f4" x="55.779096" y="598.001928" style="stroke: #000000; stroke-width: 0.8"/>
      </g>
     </g>
     <g id="text_63">
      <!-- 12 -->
      <g transform="translate(36.054096 601.801147) scale(0.1 -0.1)">
       <use xlink:href="#DejaVuSans-31"/>
       <use xlink:href="#DejaVuSans-32" transform="translate(63.623047 0)"/>
      </g>
     </g>
    </g>
    <g id="text_64">
     <!-- Resource (nutrient) -->
     <g transform="translate(29.974409 752.785625) rotate(-90) scale(0.1 -0.1)">
      <defs>
       <path id="DejaVuSans-52" d="M 2841 2188 
Q 3044 2119 3236 1894 
Q 3428 1669 3622 1275 
L 4263 0 
L 3584 0 
L 2988 1197 
Q 2756 1666 2539 1819 
Q 2322 1972 1947 1972 
L 1259 1972 
L 1259 0 
L 628 0 
L 628 4666 
L 2053 4666 
Q 2853 4666 3247 4331 
Q 3641 3997 3641 3322 
Q 3641 2881 3436 2590 
Q 3231 2300 2841 2188 
z
M 1259 4147 
L 1259 2491 
L 2053 2491 
Q 2509 2491 2742 2702 
Q 2975 2913 2975 3322 
Q 2975 3731 2742 3939 
Q 2509 4147 2053 4147 
L 1259 4147 
z
" transform="scale(0.015625)"/>
      </defs>
      <use xlink:href="#DejaVuSans-52"/>
      <use xlink:href="#DejaVuSans-65" transform="translate(64.982422 0)"/>
      <use xlink:href="#DejaVuSans-73" transform="translate(126.505859 0)"/>
      <use xlink:href="#DejaVuSans-6f" transform="translate(178.605469 0)"/>
      <use xlink:href="#DejaVuSans-75" transform="translate(239.787109 0)"/>
      <use xlink:href="#DejaVuSans-72" transform="translate(303.166016 0)"/>
      <use xlink:href="#DejaVuSans-63" transform="translate(342.029297 0)"/>
      <use xlink:href="#DejaVuSans-65" transform="translate(397.009766 0)"/>
      <use xlink:href="#DejaVuSans-20" transform="translate(458.533203 0)"/>
      <use xlink:href="#DejaVuSans-28" transform="translate(490.320312 0)"/>
      <use xlink:href="#DejaVuSans-6e" transform="translate(529.333984 0)"/>
      <use xlink:href="#DejaVuSans-75" transform="translate(592.712891 0)"/>
      <use xlink:href="#DejaVuSans-74" transform="translate(656.091797 0)"/>
      <use xlink:href="#DejaVuSans-72" transform="translate(695.300781 0)"/>
      <use xlink:href="#DejaVuSans-69" transform="translate(736.414062 0)"/>
      <use xlink:href="#DejaVuSans-65" transform="translate(764.197266 0)"/>
      <use xlink:href="#DejaVuSans-6e" transform="translate(825.720703 0)"/>
      <use xlink:href="#DejaVuSans-74" transform="translate(889.099609 0)"/>
      <use xlink:href="#DejaVuSans-29" transform="translate(928.308594 0)"/>
     </g>
    </g>
   </g>
   <g id="line2d_143">
    <path d="M 78.934592 598.001908 
L 83.758653 622.196904 
L 89.78873 651.244309 
L 97.024823 685.043759 
L 106.672946 729.003053 
L 113.909038 761.272772 
L 117.527084 776.679169 
L 121.145131 791.058397 
L 123.557161 799.675592 
L 125.969192 807.074148 
L 127.175208 810.222833 
L 128.381223 812.967413 
L 129.587238 815.287469 
L 130.793254 817.167928 
L 131.999269 818.621709 
L 133.205285 819.699819 
L 134.4113 820.47847 
L 135.617315 821.018048 
L 136.823331 821.381603 
L 139.235362 821.777607 
L 142.853408 821.978665 
L 151.295516 822.038425 
L 349.082041 822.040013 
L 542.044504 822.039981 
L 542.044504 822.039981 
" clip-path="url(#pe3047bf915)" style="fill: none; stroke: #1f77b4; stroke-width: 1.5; stroke-linecap: square"/>
   </g>
   <g id="patch_14">
    <path d="M 55.779096 822.04 
L 55.779096 586.8 
" style="fill: none; stroke: #000000; stroke-width: 0.8; stroke-linejoin: miter; stroke-linecap: square"/>
   </g>
   <g id="patch_15">
    <path d="M 565.2 822.04 
L 565.2 586.8 
" style="fill: none; stroke: #000000; stroke-width: 0.8; stroke-linejoin: miter; stroke-linecap: square"/>
   </g>
   <g id="patch_16">
    <path d="M 55.779096 822.04 
L 565.2 822.04 
" style="fill: none; stroke: #000000; stroke-width: 0.8; stroke-linejoin: miter; stroke-linecap: square"/>
   </g>
   <g id="patch_17">
    <path d="M 55.779096 586.8 
L 565.2 586.8 
" style="fill: none; stroke: #000000; stroke-width: 0.8; stroke-linejoin: miter; stroke-linecap: square"/>
   </g>
  </g>
  <g id="text_65">
   <!-- Mixing every 8.0 days: 1-Period Time Series -->
   <g transform="translate(156.38625 26.398125) scale(0.12 -0.12)">
    <defs>
     <path id="DejaVuSans-4d" d="M 628 4666 
L 1569 4666 
L 2759 1491 
L 3956 4666 
L 4897 4666 
L 4897 0 
L 4281 0 
L 4281 4097 
L 3078 897 
L 2444 897 
L 1241 4097 
L 1241 0 
L 628 0 
L 628 4666 
z
" transform="scale(0.015625)"/>
     <path id="DejaVuSans-78" d="M 3513 3500 
L 2247 1797 
L 3578 0 
L 2900 0 
L 1881 1375 
L 863 0 
L 184 0 
L 1544 1831 
L 300 3500 
L 978 3500 
L 1906 2253 
L 2834 3500 
L 3513 3500 
z
" transform="scale(0.015625)"/>
     <path id="DejaVuSans-67" d="M 2906 1791 
Q 2906 2416 2648 2759 
Q 2391 3103 1925 3103 
Q 1463 3103 1205 2759 
Q 947 2416 947 1791 
Q 947 1169 1205 825 
Q 1463 481 1925 481 
Q 2391 481 2648 825 
Q 2906 1169 2906 1791 
z
M 3481 434 
Q 3481 -459 3084 -895 
Q 2688 -1331 1869 -1331 
Q 1566 -1331 1297 -1286 
Q 1028 -1241 775 -1147 
L 775 -588 
Q 1028 -725 1275 -790 
Q 1522 -856 1778 -856 
Q 2344 -856 2625 -561 
Q 2906 -266 2906 331 
L 2906 616 
Q 2728 306 2450 153 
Q 2172 0 1784 0 
Q 1141 0 747 490 
Q 353 981 353 1791 
Q 353 2603 747 3093 
Q 1141 3584 1784 3584 
Q 2172 3584 2450 3431 
Q 2728 3278 2906 2969 
L 2906 3500 
L 3481 3500 
L 3481 434 
z
" transform="scale(0.015625)"/>
     <path id="DejaVuSans-3a" d="M 750 794 
L 1409 794 
L 1409 0 
L 750 0 
L 750 794 
z
M 750 3309 
L 1409 3309 
L 1409 2516 
L 750 2516 
L 750 3309 
z
" transform="scale(0.015625)"/>
     <path id="DejaVuSans-2d" d="M 313 2009 
L 1997 2009 
L 1997 1497 
L 313 1497 
L 313 2009 
z
" transform="scale(0.015625)"/>
     <path id="DejaVuSans-50" d="M 1259 4147 
L 1259 2394 
L 2053 2394 
Q 2494 2394 2734 2622 
Q 2975 2850 2975 3272 
Q 2975 3691 2734 3919 
Q 2494 4147 2053 4147 
L 1259 4147 
z
M 628 4666 
L 2053 4666 
Q 2838 4666 3239 4311 
Q 3641 3956 3641 3272 
Q 3641 2581 3239 2228 
Q 2838 1875 2053 1875 
L 1259 1875 
L 1259 0 
L 628 0 
L 628 4666 
z
" transform="scale(0.015625)"/>
     <path id="DejaVuSans-53" d="M 3425 4513 
L 3425 3897 
Q 3066 4069 2747 4153 
Q 2428 4238 2131 4238 
Q 1616 4238 1336 4038 
Q 1056 3838 1056 3469 
Q 1056 3159 1242 3001 
Q 1428 2844 1947 2747 
L 2328 2669 
Q 3034 2534 3370 2195 
Q 3706 1856 3706 1288 
Q 3706 609 3251 259 
Q 2797 -91 1919 -91 
Q 1588 -91 1214 -16 
Q 841 59 441 206 
L 441 856 
Q 825 641 1194 531 
Q 1563 422 1919 422 
Q 2459 422 2753 634 
Q 3047 847 3047 1241 
Q 3047 1584 2836 1778 
Q 2625 1972 2144 2069 
L 1759 2144 
Q 1053 2284 737 2584 
Q 422 2884 422 3419 
Q 422 4038 858 4394 
Q 1294 4750 2059 4750 
Q 2388 4750 2728 4690 
Q 3069 4631 3425 4513 
z
" transform="scale(0.015625)"/>
    </defs>
    <use xlink:href="#DejaVuSans-4d"/>
    <use xlink:href="#DejaVuSans-69" transform="translate(86.279297 0)"/>
    <use xlink:href="#DejaVuSans-78" transform="translate(114.0625 0)"/>
    <use xlink:href="#DejaVuSans-69" transform="translate(173.242188 0)"/>
    <use xlink:href="#DejaVuSans-6e" transform="translate(201.025391 0)"/>
    <use xlink:href="#DejaVuSans-67" transform="translate(264.404297 0)"/>
    <use xlink:href="#DejaVuSans-20" transform="translate(327.880859 0)"/>
    <use xlink:href="#DejaVuSans-65" transform="translate(359.667969 0)"/>
    <use xlink:href="#DejaVuSans-76" transform="translate(421.191406 0)"/>
    <use xlink:href="#DejaVuSans-65" transform="translate(480.371094 0)"/>
    <use xlink:href="#DejaVuSans-72" transform="translate(541.894531 0)"/>
    <use xlink:href="#DejaVuSans-79" transform="translate(583.007812 0)"/>
    <use xlink:href="#DejaVuSans-20" transform="translate(642.1875 0)"/>
    <use xlink:href="#DejaVuSans-38" transform="translate(673.974609 0)"/>
    <use xlink:href="#DejaVuSans-2e" transform="translate(737.597656 0)"/>
    <use xlink:href="#DejaVuSans-30" transform="translate(769.384766 0)"/>
    <use xlink:href="#DejaVuSans-20" transform="translate(833.007812 0)"/>
    <use xlink:href="#DejaVuSans-64" transform="translate(864.794922 0)"/>
    <use xlink:href="#DejaVuSans-61" transform="translate(928.271484 0)"/>
    <use xlink:href="#DejaVuSans-79" transform="translate(989.550781 0)"/>
    <use xlink:href="#DejaVuSans-73" transform="translate(1048.730469 0)"/>
    <use xlink:href="#DejaVuSans-3a" transform="translate(1100.830078 0)"/>
    <use xlink:href="#DejaVuSans-20" transform="translate(1134.521484 0)"/>
    <use xlink:href="#DejaVuSans-31" transform="translate(1166.308594 0)"/>
    <use xlink:href="#DejaVuSans-2d" transform="translate(1229.931641 0)"/>
    <use xlink:href="#DejaVuSans-50" transform="translate(1266.015625 0)"/>
    <use xlink:href="#DejaVuSans-65" transform="translate(1322.693359 0)"/>
    <use xlink:href="#DejaVuSans-72" transform="translate(1384.216797 0)"/>
    <use xlink:href="#DejaVuSans-69" transform="translate(1425.330078 0)"/>
    <use xlink:href="#DejaVuSans-6f" transform="translate(1453.113281 0)"/>
    <use xlink:href="#DejaVuSans-64" transform="translate(1514.294922 0)"/>
    <use xlink:href="#DejaVuSans-20" transform="translate(1577.771484 0)"/>
    <use xlink:href="#DejaVuSans-54" transform="translate(1609.558594 0)"/>
    <use xlink:href="#DejaVuSans-69" transform="translate(1667.517578 0)"/>
    <use xlink:href="#DejaVuSans-6d" transform="translate(1695.300781 0)"/>
    <use xlink:href="#DejaVuSans-65" transform="translate(1792.712891 0)"/>
    <use xlink:href="#DejaVuSans-20" transform="translate(1854.236328 0)"/>
    <use xlink:href="#DejaVuSans-53" transform="translate(1886.023438 0)"/>
    <use xlink:href="#DejaVuSans-65" transform="translate(1949.5 0)"/>
    <use xlink:href="#DejaVuSans-72" transform="translate(2011.023438 0)"/>
    <use xlink:href="#DejaVuSans-69" transform="translate(2052.136719 0)"/>
    <use xlink:href="#DejaVuSans-65" transform="translate(2079.919922 0)"/>
    <use xlink:href="#DejaVuSans-73" transform="translate(2141.443359 0)"/>
   </g>
  </g>
 </g>
 <defs>
  <clipPath id="p30dcef7824">
   <rect x="55.779096" y="32.4" width="509.420904" height="235.24"/>
  </clipPath>
  <clipPath id="p863823a5f3">
   <rect x="55.779096" y="309.6" width="509.420904" height="235.24"/>
  </clipPath>
  <clipPath id="pe3047bf915">
   <rect x="55.779096" y="586.8" width="509.420904" height="235.24"/>
  </clipPath>
 </defs>
</svg>
